<svg xmlns="http://www.w3.org/2000/svg" xmlns:xlink="http://www.w3.org/1999/xlink" width="500" zoomAndPan="magnify" viewBox="0 0 375 374.999991" height="500" preserveAspectRatio="xMidYMid meet" version="1.2"><defs><linearGradient x1="0" gradientTransform="matrix(0.75,0,0,0.75,0.0000045,0)" y1="250" x2="499.999979" gradientUnits="userSpaceOnUse" y2="250" id="c37fb8e5c5"><stop style="stop-color:#000000;stop-opacity:1;" offset="0"/><stop style="stop-color:#000001;stop-opacity:1;" offset="0.00390625"/><stop style="stop-color:#000002;stop-opacity:1;" offset="0.0078125"/><stop style="stop-color:#010102;stop-opacity:1;" offset="0.0117187"/><stop style="stop-color:#010103;stop-opacity:1;" offset="0.015625"/><stop style="stop-color:#010104;stop-opacity:1;" offset="0.0195312"/><stop style="stop-color:#010105;stop-opacity:1;" offset="0.0234375"/><stop style="stop-color:#010106;stop-opacity:1;" offset="0.0273438"/><stop style="stop-color:#020206;stop-opacity:1;" offset="0.03125"/><stop style="stop-color:#020207;stop-opacity:1;" offset="0.0351562"/><stop style="stop-color:#020208;stop-opacity:1;" offset="0.0390625"/><stop style="stop-color:#020209;stop-opacity:1;" offset="0.0429687"/><stop style="stop-color:#02020a;stop-opacity:1;" offset="0.046875"/><stop style="stop-color:#03030a;stop-opacity:1;" offset="0.0507812"/><stop style="stop-color:#03030b;stop-opacity:1;" offset="0.0546875"/><stop style="stop-color:#03030c;stop-opacity:1;" offset="0.0585938"/><stop style="stop-color:#03030d;stop-opacity:1;" offset="0.0625"/><stop style="stop-color:#04030e;stop-opacity:1;" offset="0.0664062"/><stop style="stop-color:#04040e;stop-opacity:1;" offset="0.0703125"/><stop style="stop-color:#04040f;stop-opacity:1;" offset="0.0742187"/><stop style="stop-color:#040410;stop-opacity:1;" offset="0.078125"/><stop style="stop-color:#040411;stop-opacity:1;" offset="0.0820312"/><stop style="stop-color:#050412;stop-opacity:1;" offset="0.0859375"/><stop style="stop-color:#050512;stop-opacity:1;" offset="0.0898437"/><stop style="stop-color:#050513;stop-opacity:1;" offset="0.09375"/><stop style="stop-color:#050514;stop-opacity:1;" offset="0.0976562"/><stop style="stop-color:#050515;stop-opacity:1;" offset="0.101562"/><stop style="stop-color:#060516;stop-opacity:1;" offset="0.105469"/><stop style="stop-color:#060616;stop-opacity:1;" offset="0.109375"/><stop style="stop-color:#060617;stop-opacity:1;" offset="0.113281"/><stop style="stop-color:#060618;stop-opacity:1;" offset="0.117188"/><stop style="stop-color:#060619;stop-opacity:1;" offset="0.121094"/><stop style="stop-color:#07061a;stop-opacity:1;" offset="0.125"/><stop style="stop-color:#07071a;stop-opacity:1;" offset="0.128906"/><stop style="stop-color:#07071b;stop-opacity:1;" offset="0.132812"/><stop style="stop-color:#07071c;stop-opacity:1;" offset="0.136719"/><stop style="stop-color:#07071d;stop-opacity:1;" offset="0.140625"/><stop style="stop-color:#08071e;stop-opacity:1;" offset="0.144531"/><stop style="stop-color:#08081e;stop-opacity:1;" offset="0.148437"/><stop style="stop-color:#08081f;stop-opacity:1;" offset="0.152344"/><stop style="stop-color:#080820;stop-opacity:1;" offset="0.15625"/><stop style="stop-color:#080821;stop-opacity:1;" offset="0.160156"/><stop style="stop-color:#090822;stop-opacity:1;" offset="0.164062"/><stop style="stop-color:#090922;stop-opacity:1;" offset="0.167969"/><stop style="stop-color:#090923;stop-opacity:1;" offset="0.171875"/><stop style="stop-color:#090924;stop-opacity:1;" offset="0.175781"/><stop style="stop-color:#0a0925;stop-opacity:1;" offset="0.179687"/><stop style="stop-color:#0a0926;stop-opacity:1;" offset="0.183594"/><stop style="stop-color:#0a0a26;stop-opacity:1;" offset="0.1875"/><stop style="stop-color:#0a0a27;stop-opacity:1;" offset="0.191406"/><stop style="stop-color:#0a0a28;stop-opacity:1;" offset="0.195312"/><stop style="stop-color:#0b0a29;stop-opacity:1;" offset="0.199219"/><stop style="stop-color:#0b0a2a;stop-opacity:1;" offset="0.203125"/><stop style="stop-color:#0b0b2a;stop-opacity:1;" offset="0.207031"/><stop style="stop-color:#0b0b2b;stop-opacity:1;" offset="0.210938"/><stop style="stop-color:#0b0b2c;stop-opacity:1;" offset="0.214844"/><stop style="stop-color:#0c0b2d;stop-opacity:1;" offset="0.21875"/><stop style="stop-color:#0c0b2e;stop-opacity:1;" offset="0.222656"/><stop style="stop-color:#0c0c2e;stop-opacity:1;" offset="0.226562"/><stop style="stop-color:#0c0c2f;stop-opacity:1;" offset="0.230469"/><stop style="stop-color:#0c0c30;stop-opacity:1;" offset="0.234375"/><stop style="stop-color:#0d0c31;stop-opacity:1;" offset="0.238281"/><stop style="stop-color:#0d0c32;stop-opacity:1;" offset="0.242188"/><stop style="stop-color:#0d0d32;stop-opacity:1;" offset="0.246094"/><stop style="stop-color:#0d0d33;stop-opacity:1;" offset="0.25"/><stop style="stop-color:#0d0d34;stop-opacity:1;" offset="0.253906"/><stop style="stop-color:#0e0d35;stop-opacity:1;" offset="0.257812"/><stop style="stop-color:#0e0d36;stop-opacity:1;" offset="0.261719"/><stop style="stop-color:#0e0e36;stop-opacity:1;" offset="0.265625"/><stop style="stop-color:#0e0e37;stop-opacity:1;" offset="0.269531"/><stop style="stop-color:#0f0e38;stop-opacity:1;" offset="0.273437"/><stop style="stop-color:#0f0e39;stop-opacity:1;" offset="0.277344"/><stop style="stop-color:#0f0e3a;stop-opacity:1;" offset="0.28125"/><stop style="stop-color:#0f0f3a;stop-opacity:1;" offset="0.285156"/><stop style="stop-color:#0f0f3b;stop-opacity:1;" offset="0.289062"/><stop style="stop-color:#100f3c;stop-opacity:1;" offset="0.292969"/><stop style="stop-color:#100f3d;stop-opacity:1;" offset="0.296875"/><stop style="stop-color:#100f3e;stop-opacity:1;" offset="0.300781"/><stop style="stop-color:#10103e;stop-opacity:1;" offset="0.304687"/><stop style="stop-color:#10103f;stop-opacity:1;" offset="0.308594"/><stop style="stop-color:#111040;stop-opacity:1;" offset="0.3125"/><stop style="stop-color:#111041;stop-opacity:1;" offset="0.316406"/><stop style="stop-color:#111042;stop-opacity:1;" offset="0.320312"/><stop style="stop-color:#111142;stop-opacity:1;" offset="0.324219"/><stop style="stop-color:#111143;stop-opacity:1;" offset="0.328125"/><stop style="stop-color:#121144;stop-opacity:1;" offset="0.332031"/><stop style="stop-color:#121145;stop-opacity:1;" offset="0.335937"/><stop style="stop-color:#121146;stop-opacity:1;" offset="0.339844"/><stop style="stop-color:#121246;stop-opacity:1;" offset="0.34375"/><stop style="stop-color:#121247;stop-opacity:1;" offset="0.347656"/><stop style="stop-color:#131248;stop-opacity:1;" offset="0.351562"/><stop style="stop-color:#131249;stop-opacity:1;" offset="0.355469"/><stop style="stop-color:#13124a;stop-opacity:1;" offset="0.359375"/><stop style="stop-color:#13134a;stop-opacity:1;" offset="0.363281"/><stop style="stop-color:#13134b;stop-opacity:1;" offset="0.367187"/><stop style="stop-color:#14134c;stop-opacity:1;" offset="0.371094"/><stop style="stop-color:#14134d;stop-opacity:1;" offset="0.375"/><stop style="stop-color:#14134e;stop-opacity:1;" offset="0.378906"/><stop style="stop-color:#14144e;stop-opacity:1;" offset="0.382812"/><stop style="stop-color:#15144f;stop-opacity:1;" offset="0.386719"/><stop style="stop-color:#151450;stop-opacity:1;" offset="0.390625"/><stop style="stop-color:#151451;stop-opacity:1;" offset="0.394531"/><stop style="stop-color:#151452;stop-opacity:1;" offset="0.398438"/><stop style="stop-color:#151552;stop-opacity:1;" offset="0.402344"/><stop style="stop-color:#161553;stop-opacity:1;" offset="0.40625"/><stop style="stop-color:#161554;stop-opacity:1;" offset="0.410156"/><stop style="stop-color:#161555;stop-opacity:1;" offset="0.414062"/><stop style="stop-color:#161556;stop-opacity:1;" offset="0.417969"/><stop style="stop-color:#161656;stop-opacity:1;" offset="0.421875"/><stop style="stop-color:#171657;stop-opacity:1;" offset="0.425781"/><stop style="stop-color:#171658;stop-opacity:1;" offset="0.429688"/><stop style="stop-color:#171659;stop-opacity:1;" offset="0.433594"/><stop style="stop-color:#17165a;stop-opacity:1;" offset="0.4375"/><stop style="stop-color:#17175a;stop-opacity:1;" offset="0.441406"/><stop style="stop-color:#18175b;stop-opacity:1;" offset="0.445312"/><stop style="stop-color:#18175c;stop-opacity:1;" offset="0.449219"/><stop style="stop-color:#18175d;stop-opacity:1;" offset="0.453125"/><stop style="stop-color:#18175e;stop-opacity:1;" offset="0.457031"/><stop style="stop-color:#18185f;stop-opacity:1;" offset="0.460938"/><stop style="stop-color:#19185f;stop-opacity:1;" offset="0.464844"/><stop style="stop-color:#191860;stop-opacity:1;" offset="0.46875"/><stop style="stop-color:#191861;stop-opacity:1;" offset="0.472656"/><stop style="stop-color:#191862;stop-opacity:1;" offset="0.476562"/><stop style="stop-color:#191963;stop-opacity:1;" offset="0.480469"/><stop style="stop-color:#1a1963;stop-opacity:1;" offset="0.484375"/><stop style="stop-color:#1a1964;stop-opacity:1;" offset="0.488281"/><stop style="stop-color:#1a1965;stop-opacity:1;" offset="0.492188"/><stop style="stop-color:#1a1966;stop-opacity:1;" offset="0.496094"/><stop style="stop-color:#1b1967;stop-opacity:1;" offset="0.5"/><stop style="stop-color:#1b1a67;stop-opacity:1;" offset="0.503906"/><stop style="stop-color:#1b1a68;stop-opacity:1;" offset="0.507812"/><stop style="stop-color:#1b1a69;stop-opacity:1;" offset="0.511719"/><stop style="stop-color:#1b1a6a;stop-opacity:1;" offset="0.515625"/><stop style="stop-color:#1c1a6b;stop-opacity:1;" offset="0.519531"/><stop style="stop-color:#1c1b6b;stop-opacity:1;" offset="0.523437"/><stop style="stop-color:#1c1b6c;stop-opacity:1;" offset="0.527344"/><stop style="stop-color:#1c1b6d;stop-opacity:1;" offset="0.53125"/><stop style="stop-color:#1c1b6e;stop-opacity:1;" offset="0.535156"/><stop style="stop-color:#1d1b6f;stop-opacity:1;" offset="0.539062"/><stop style="stop-color:#1d1c6f;stop-opacity:1;" offset="0.542969"/><stop style="stop-color:#1d1c70;stop-opacity:1;" offset="0.546875"/><stop style="stop-color:#1d1c71;stop-opacity:1;" offset="0.550781"/><stop style="stop-color:#1d1c72;stop-opacity:1;" offset="0.554687"/><stop style="stop-color:#1e1c73;stop-opacity:1;" offset="0.558594"/><stop style="stop-color:#1e1d73;stop-opacity:1;" offset="0.5625"/><stop style="stop-color:#1e1d74;stop-opacity:1;" offset="0.566406"/><stop style="stop-color:#1e1d75;stop-opacity:1;" offset="0.570312"/><stop style="stop-color:#1e1d76;stop-opacity:1;" offset="0.574219"/><stop style="stop-color:#1f1d77;stop-opacity:1;" offset="0.578125"/><stop style="stop-color:#1f1e77;stop-opacity:1;" offset="0.582031"/><stop style="stop-color:#1f1e78;stop-opacity:1;" offset="0.585937"/><stop style="stop-color:#1f1e79;stop-opacity:1;" offset="0.589844"/><stop style="stop-color:#1f1e7a;stop-opacity:1;" offset="0.59375"/><stop style="stop-color:#201e7b;stop-opacity:1;" offset="0.597656"/><stop style="stop-color:#201f7b;stop-opacity:1;" offset="0.601562"/><stop style="stop-color:#201f7c;stop-opacity:1;" offset="0.605469"/><stop style="stop-color:#201f7d;stop-opacity:1;" offset="0.609375"/><stop style="stop-color:#211f7e;stop-opacity:1;" offset="0.613281"/><stop style="stop-color:#211f7f;stop-opacity:1;" offset="0.617187"/><stop style="stop-color:#21207f;stop-opacity:1;" offset="0.621094"/><stop style="stop-color:#212080;stop-opacity:1;" offset="0.625"/><stop style="stop-color:#212081;stop-opacity:1;" offset="0.628906"/><stop style="stop-color:#222082;stop-opacity:1;" offset="0.632812"/><stop style="stop-color:#222083;stop-opacity:1;" offset="0.636719"/><stop style="stop-color:#222183;stop-opacity:1;" offset="0.640625"/><stop style="stop-color:#222184;stop-opacity:1;" offset="0.644531"/><stop style="stop-color:#222185;stop-opacity:1;" offset="0.648437"/><stop style="stop-color:#232186;stop-opacity:1;" offset="0.652344"/><stop style="stop-color:#232187;stop-opacity:1;" offset="0.65625"/><stop style="stop-color:#232287;stop-opacity:1;" offset="0.660156"/><stop style="stop-color:#232288;stop-opacity:1;" offset="0.664062"/><stop style="stop-color:#232289;stop-opacity:1;" offset="0.667969"/><stop style="stop-color:#24228a;stop-opacity:1;" offset="0.671875"/><stop style="stop-color:#24228b;stop-opacity:1;" offset="0.675781"/><stop style="stop-color:#24238b;stop-opacity:1;" offset="0.679687"/><stop style="stop-color:#24238c;stop-opacity:1;" offset="0.683594"/><stop style="stop-color:#24238d;stop-opacity:1;" offset="0.6875"/><stop style="stop-color:#25238e;stop-opacity:1;" offset="0.691406"/><stop style="stop-color:#25238f;stop-opacity:1;" offset="0.695312"/><stop style="stop-color:#25248f;stop-opacity:1;" offset="0.699219"/><stop style="stop-color:#252490;stop-opacity:1;" offset="0.703125"/><stop style="stop-color:#252491;stop-opacity:1;" offset="0.707031"/><stop style="stop-color:#262492;stop-opacity:1;" offset="0.710937"/><stop style="stop-color:#262493;stop-opacity:1;" offset="0.714844"/><stop style="stop-color:#262593;stop-opacity:1;" offset="0.71875"/><stop style="stop-color:#262594;stop-opacity:1;" offset="0.722656"/><stop style="stop-color:#272595;stop-opacity:1;" offset="0.726562"/><stop style="stop-color:#272596;stop-opacity:1;" offset="0.730469"/><stop style="stop-color:#272597;stop-opacity:1;" offset="0.734375"/><stop style="stop-color:#272697;stop-opacity:1;" offset="0.738281"/><stop style="stop-color:#272698;stop-opacity:1;" offset="0.742187"/><stop style="stop-color:#282699;stop-opacity:1;" offset="0.746094"/><stop style="stop-color:#28269a;stop-opacity:1;" offset="0.75"/><stop style="stop-color:#28269b;stop-opacity:1;" offset="0.753906"/><stop style="stop-color:#28279b;stop-opacity:1;" offset="0.757812"/><stop style="stop-color:#28279c;stop-opacity:1;" offset="0.761719"/><stop style="stop-color:#29279d;stop-opacity:1;" offset="0.765625"/><stop style="stop-color:#29279e;stop-opacity:1;" offset="0.769531"/><stop style="stop-color:#29279f;stop-opacity:1;" offset="0.773438"/><stop style="stop-color:#29289f;stop-opacity:1;" offset="0.777344"/><stop style="stop-color:#2928a0;stop-opacity:1;" offset="0.78125"/><stop style="stop-color:#2a28a1;stop-opacity:1;" offset="0.785156"/><stop style="stop-color:#2a28a2;stop-opacity:1;" offset="0.789062"/><stop style="stop-color:#2a28a3;stop-opacity:1;" offset="0.792969"/><stop style="stop-color:#2a29a3;stop-opacity:1;" offset="0.796875"/><stop style="stop-color:#2a29a4;stop-opacity:1;" offset="0.800781"/><stop style="stop-color:#2b29a5;stop-opacity:1;" offset="0.804688"/><stop style="stop-color:#2b29a6;stop-opacity:1;" offset="0.808594"/><stop style="stop-color:#2b29a7;stop-opacity:1;" offset="0.8125"/><stop style="stop-color:#2b2aa7;stop-opacity:1;" offset="0.816406"/><stop style="stop-color:#2c2aa8;stop-opacity:1;" offset="0.820312"/><stop style="stop-color:#2c2aa9;stop-opacity:1;" offset="0.824219"/><stop style="stop-color:#2c2aaa;stop-opacity:1;" offset="0.828125"/><stop style="stop-color:#2c2aab;stop-opacity:1;" offset="0.832031"/><stop style="stop-color:#2c2bab;stop-opacity:1;" offset="0.835938"/><stop style="stop-color:#2d2bac;stop-opacity:1;" offset="0.839844"/><stop style="stop-color:#2d2bad;stop-opacity:1;" offset="0.84375"/><stop style="stop-color:#2d2bae;stop-opacity:1;" offset="0.847656"/><stop style="stop-color:#2d2baf;stop-opacity:1;" offset="0.851562"/><stop style="stop-color:#2d2caf;stop-opacity:1;" offset="0.855469"/><stop style="stop-color:#2e2cb0;stop-opacity:1;" offset="0.859375"/><stop style="stop-color:#2e2cb1;stop-opacity:1;" offset="0.863281"/><stop style="stop-color:#2e2cb2;stop-opacity:1;" offset="0.867188"/><stop style="stop-color:#2e2cb3;stop-opacity:1;" offset="0.871094"/><stop style="stop-color:#2e2db3;stop-opacity:1;" offset="0.875"/><stop style="stop-color:#2f2db4;stop-opacity:1;" offset="0.878906"/><stop style="stop-color:#2f2db5;stop-opacity:1;" offset="0.882812"/><stop style="stop-color:#2f2db6;stop-opacity:1;" offset="0.886719"/><stop style="stop-color:#2f2db7;stop-opacity:1;" offset="0.890625"/><stop style="stop-color:#2f2eb7;stop-opacity:1;" offset="0.894531"/><stop style="stop-color:#302eb8;stop-opacity:1;" offset="0.898438"/><stop style="stop-color:#302eb9;stop-opacity:1;" offset="0.902344"/><stop style="stop-color:#302eba;stop-opacity:1;" offset="0.90625"/><stop style="stop-color:#302ebb;stop-opacity:1;" offset="0.910156"/><stop style="stop-color:#302fbb;stop-opacity:1;" offset="0.914062"/><stop style="stop-color:#312fbc;stop-opacity:1;" offset="0.917969"/><stop style="stop-color:#312fbd;stop-opacity:1;" offset="0.921875"/><stop style="stop-color:#312fbe;stop-opacity:1;" offset="0.925781"/><stop style="stop-color:#312fbf;stop-opacity:1;" offset="0.929688"/><stop style="stop-color:#3230bf;stop-opacity:1;" offset="0.933594"/><stop style="stop-color:#3230c0;stop-opacity:1;" offset="0.9375"/><stop style="stop-color:#3230c1;stop-opacity:1;" offset="0.941406"/><stop style="stop-color:#3230c2;stop-opacity:1;" offset="0.945312"/><stop style="stop-color:#3230c3;stop-opacity:1;" offset="0.949219"/><stop style="stop-color:#3331c3;stop-opacity:1;" offset="0.953125"/><stop style="stop-color:#3331c4;stop-opacity:1;" offset="0.957031"/><stop style="stop-color:#3331c5;stop-opacity:1;" offset="0.960938"/><stop style="stop-color:#3331c6;stop-opacity:1;" offset="0.964844"/><stop style="stop-color:#3331c7;stop-opacity:1;" offset="0.96875"/><stop style="stop-color:#3432c7;stop-opacity:1;" offset="0.972656"/><stop style="stop-color:#3432c8;stop-opacity:1;" offset="0.976562"/><stop style="stop-color:#3432c9;stop-opacity:1;" offset="0.980469"/><stop style="stop-color:#3432ca;stop-opacity:1;" offset="0.984375"/><stop style="stop-color:#3432cb;stop-opacity:1;" offset="0.988281"/><stop style="stop-color:#3533cb;stop-opacity:1;" offset="0.992188"/><stop style="stop-color:#3533cc;stop-opacity:1;" offset="0.996094"/><stop style="stop-color:#3533cd;stop-opacity:1;" offset="1"/></linearGradient><clipPath id="93e82ff39a"><path d="M 55.492188 190.523438 L 187.492188 190.523438 L 187.492188 198 L 55.492188 198 Z M 55.492188 190.523438 "/></clipPath><clipPath id="6ef7259db7"><path d="M 55.492188 201 L 187.492188 201 L 187.492188 208 L 55.492188 208 Z M 55.492188 201 "/></clipPath><clipPath id="f42e4d5f47"><path d="M 55.492188 211 L 187.492188 211 L 187.492188 219 L 55.492188 219 Z M 55.492188 211 "/></clipPath><clipPath id="119e7a27a4"><path d="M 55.492188 222 L 187.492188 222 L 187.492188 228.773438 L 55.492188 228.773438 Z M 55.492188 222 "/></clipPath></defs><g id="63982c81ac"><rect x="0" width="375" y="0" height="374.999991" style="fill:url(#linear0);stroke:none;"/><g clip-rule="nonzero" clip-path="url(#93e82ff39a)"><path style=" stroke:none;fill-rule:nonzero;fill:#3c7f72;fill-opacity:1;" d="M 187.269531 190.523438 L 187.269531 197.121094 L 55.710938 197.121094 L 55.710938 190.523438 Z M 187.269531 190.523438 "/></g><g clip-rule="nonzero" clip-path="url(#6ef7259db7)"><path style=" stroke:none;fill-rule:nonzero;fill:#992800;fill-opacity:1;" d="M 187.269531 201.085938 L 187.269531 207.679688 L 55.710938 207.679688 L 55.710938 201.085938 Z M 187.269531 201.085938 "/></g><g clip-rule="nonzero" clip-path="url(#f42e4d5f47)"><path style=" stroke:none;fill-rule:nonzero;fill:#d34a24;fill-opacity:1;" d="M 187.269531 211.628906 L 187.269531 218.222656 L 55.710938 218.222656 L 55.710938 211.628906 Z M 187.269531 211.628906 "/></g><g clip-rule="nonzero" clip-path="url(#119e7a27a4)"><path style=" stroke:none;fill-rule:nonzero;fill:#ffaf00;fill-opacity:1;" d="M 187.269531 222.1875 L 187.269531 228.78125 L 55.710938 228.78125 L 55.710938 222.1875 Z M 187.269531 222.1875 "/></g><g style="fill:#e4e2dd;fill-opacity:1;"><g transform="translate(17.795061, 184.008572)"><path style="stroke:none" d="M 1.3125 -5.015625 C 1.207031 -5.941406 1.222656 -6.53125 1.359375 -6.78125 C 1.492188 -7.03125 1.753906 -7.140625 2.140625 -7.109375 C 2.523438 -7.078125 2.9375 -7.144531 3.375 -7.3125 C 4.46875 -7.695312 5.285156 -8.367188 5.828125 -9.328125 C 6.378906 -10.285156 6.75 -11.367188 6.9375 -12.578125 C 7.132812 -13.785156 7.234375 -14.960938 7.234375 -16.109375 C 7.234375 -17.265625 7.234375 -18.195312 7.234375 -18.90625 L 7.234375 -30.5 C 7.234375 -32.414062 7.09375 -33.863281 6.8125 -34.84375 C 6.539062 -35.832031 6.210938 -36.5625 5.828125 -37.03125 C 5.453125 -37.5 5.125 -37.882812 4.84375 -38.1875 C 4.570312 -38.488281 4.4375 -38.941406 4.4375 -39.546875 C 4.4375 -40.359375 4.75 -40.898438 5.375 -41.171875 C 6.007812 -41.453125 6.796875 -41.59375 7.734375 -41.59375 C 8.710938 -41.59375 9.765625 -41.507812 10.890625 -41.34375 C 12.015625 -41.1875 12.988281 -41.109375 13.8125 -41.109375 C 14.632812 -41.109375 15.601562 -41.1875 16.71875 -41.34375 C 17.84375 -41.507812 18.925781 -41.59375 19.96875 -41.59375 C 20.90625 -41.59375 21.6875 -41.453125 22.3125 -41.171875 C 22.945312 -40.898438 23.265625 -40.359375 23.265625 -39.546875 C 23.265625 -38.941406 23.125 -38.488281 22.84375 -38.1875 C 22.570312 -37.882812 22.242188 -37.5 21.859375 -37.03125 C 21.484375 -36.5625 21.15625 -35.832031 20.875 -34.84375 C 20.601562 -33.863281 20.46875 -32.414062 20.46875 -30.5 L 20.46875 -12.25 C 20.46875 -10.113281 20.125 -8.070312 19.4375 -6.125 C 18.75 -4.175781 17.625 -2.582031 16.0625 -1.34375 C 14.507812 -0.113281 12.390625 0.5 9.703125 0.5 C 7.566406 0.5 5.703125 -0.0195312 4.109375 -1.0625 C 2.515625 -2.101562 1.582031 -3.421875 1.3125 -5.015625 Z M 1.3125 -5.015625 "/></g></g><g style="fill:#e4e2dd;fill-opacity:1;"><g transform="translate(39.246526, 184.008572)"><path style="stroke:none" d="M 19.484375 0.5 C 14.003906 0.5 9.660156 -0.992188 6.453125 -3.984375 C 3.242188 -6.972656 1.640625 -11.125 1.640625 -16.4375 C 1.640625 -21.8125 3.242188 -25.976562 6.453125 -28.9375 C 9.660156 -31.894531 14.003906 -33.375 19.484375 -33.375 C 24.960938 -33.375 29.300781 -31.894531 32.5 -28.9375 C 35.707031 -25.976562 37.3125 -21.8125 37.3125 -16.4375 C 37.3125 -11.125 35.707031 -6.972656 32.5 -3.984375 C 29.300781 -0.992188 24.960938 0.5 19.484375 0.5 Z M 15.203125 -16.4375 C 15.203125 -14.1875 15.328125 -12.113281 15.578125 -10.21875 C 15.828125 -8.332031 16.265625 -6.84375 16.890625 -5.75 C 17.523438 -4.65625 18.390625 -4.109375 19.484375 -4.109375 C 20.628906 -4.109375 21.515625 -4.65625 22.140625 -5.75 C 22.773438 -6.84375 23.203125 -8.332031 23.421875 -10.21875 C 23.640625 -12.113281 23.75 -14.1875 23.75 -16.4375 C 23.75 -18.738281 23.640625 -20.820312 23.421875 -22.6875 C 23.203125 -24.550781 22.773438 -26.03125 22.140625 -27.125 C 21.515625 -28.21875 20.628906 -28.765625 19.484375 -28.765625 C 18.390625 -28.765625 17.523438 -28.21875 16.890625 -27.125 C 16.265625 -26.03125 15.828125 -24.550781 15.578125 -22.6875 C 15.328125 -20.820312 15.203125 -18.738281 15.203125 -16.4375 Z M 15.203125 -16.4375 "/></g></g><g style="fill:#e4e2dd;fill-opacity:1;"><g transform="translate(75.5745, 184.008572)"><path style="stroke:none" d="M 0.828125 -1.5625 C 0.828125 -2.164062 0.960938 -2.617188 1.234375 -2.921875 C 1.503906 -3.222656 1.832031 -3.601562 2.21875 -4.0625 C 2.601562 -4.53125 2.929688 -5.257812 3.203125 -6.25 C 3.472656 -7.238281 3.609375 -8.691406 3.609375 -10.609375 C 3.609375 -13.128906 3.625 -14.945312 3.65625 -16.0625 C 3.6875 -17.1875 3.703125 -18.007812 3.703125 -18.53125 C 3.703125 -19.050781 3.703125 -19.640625 3.703125 -20.296875 C 3.703125 -21.785156 3.46875 -22.816406 3 -23.390625 C 2.53125 -23.960938 2.0625 -24.410156 1.59375 -24.734375 C 1.132812 -25.066406 0.90625 -25.59375 0.90625 -26.3125 C 0.90625 -27.125 1.175781 -27.679688 1.71875 -27.984375 C 2.269531 -28.285156 3.050781 -28.546875 4.0625 -28.765625 C 5.082031 -28.984375 6.304688 -29.34375 7.734375 -29.84375 C 9.484375 -30.5 10.6875 -31.085938 11.34375 -31.609375 C 12 -32.128906 12.488281 -32.550781 12.8125 -32.875 C 13.144531 -33.207031 13.671875 -33.375 14.390625 -33.375 C 15.367188 -33.375 16.023438 -32.9375 16.359375 -32.0625 C 16.691406 -31.1875 16.859375 -30.144531 16.859375 -28.9375 L 16.859375 -28.609375 C 16.859375 -27.234375 16.882812 -26.5625 16.9375 -26.59375 C 16.988281 -26.625 17.367188 -27.238281 18.078125 -28.4375 C 19.015625 -30.03125 20.316406 -31.25 21.984375 -32.09375 C 23.660156 -32.945312 25.265625 -33.375 26.796875 -33.375 C 29.804688 -33.375 31.75 -32.726562 32.625 -31.4375 C 33.507812 -30.15625 33.539062 -28.28125 32.71875 -25.8125 C 32.0625 -23.84375 31.472656 -22.488281 30.953125 -21.75 C 30.429688 -21.007812 29.921875 -20.640625 29.421875 -20.640625 C 28.878906 -20.640625 28.28125 -20.96875 27.625 -21.625 C 26.96875 -22.28125 26.238281 -22.921875 25.4375 -23.546875 C 24.644531 -24.179688 23.675781 -24.5 22.53125 -24.5 C 21.863281 -24.5 21.078125 -24.28125 20.171875 -23.84375 C 19.273438 -23.40625 18.5 -22.609375 17.84375 -21.453125 C 17.1875 -20.304688 16.859375 -18.691406 16.859375 -16.609375 L 16.859375 -10.609375 C 16.859375 -8.691406 16.992188 -7.238281 17.265625 -6.25 C 17.535156 -5.257812 17.863281 -4.53125 18.25 -4.0625 C 18.632812 -3.601562 18.960938 -3.222656 19.234375 -2.921875 C 19.503906 -2.617188 19.640625 -2.164062 19.640625 -1.5625 C 19.640625 -0.738281 19.320312 -0.191406 18.6875 0.078125 C 18.0625 0.359375 17.285156 0.5 16.359375 0.5 C 15.316406 0.5 14.234375 0.414062 13.109375 0.25 C 11.984375 0.0820312 11.007812 0 10.1875 0 C 9.363281 0 8.390625 0.0820312 7.265625 0.25 C 6.148438 0.414062 5.097656 0.5 4.109375 0.5 C 3.179688 0.5 2.398438 0.359375 1.765625 0.078125 C 1.140625 -0.191406 0.828125 -0.738281 0.828125 -1.5625 Z M 0.828125 -1.5625 "/></g></g><g style="fill:#e4e2dd;fill-opacity:1;"><g transform="translate(107.464184, 184.008572)"><path style="stroke:none" d="M 1.640625 -13.8125 C 1.640625 -19.726562 3.023438 -24.46875 5.796875 -28.03125 C 8.566406 -31.59375 12.472656 -33.375 17.515625 -33.375 C 18.773438 -33.375 19.84375 -33.332031 20.71875 -33.25 C 21.59375 -33.164062 22.382812 -33.070312 23.09375 -32.96875 L 23.09375 -34.203125 C 23.09375 -35.679688 22.859375 -36.707031 22.390625 -37.28125 C 21.929688 -37.851562 21.46875 -38.300781 21 -38.625 C 20.53125 -38.957031 20.296875 -39.484375 20.296875 -40.203125 C 20.296875 -41.023438 20.609375 -41.582031 21.234375 -41.875 C 21.867188 -42.175781 22.75 -42.4375 23.875 -42.65625 C 25 -42.882812 26.273438 -43.242188 27.703125 -43.734375 C 29.453125 -44.390625 30.640625 -44.976562 31.265625 -45.5 C 31.898438 -46.019531 32.351562 -46.441406 32.625 -46.765625 C 32.90625 -47.097656 33.398438 -47.265625 34.109375 -47.265625 C 35.097656 -47.265625 35.753906 -46.828125 36.078125 -45.953125 C 36.410156 -45.078125 36.578125 -44.035156 36.578125 -42.828125 L 36.578125 -10.609375 C 36.578125 -8.691406 36.710938 -7.238281 36.984375 -6.25 C 37.265625 -5.257812 37.59375 -4.53125 37.96875 -4.0625 C 38.351562 -3.601562 38.679688 -3.222656 38.953125 -2.921875 C 39.234375 -2.617188 39.375 -2.164062 39.375 -1.5625 C 39.375 -0.738281 39.097656 -0.191406 38.546875 0.078125 C 38.003906 0.359375 37.320312 0.5 36.5 0.5 C 35.625 0.5 34.675781 0.414062 33.65625 0.25 C 32.644531 0.0820312 31.726562 0 30.90625 0 C 30.03125 0 29.316406 0.0507812 28.765625 0.15625 C 28.222656 0.269531 27.59375 0.382812 26.875 0.5 C 25.832031 0.601562 24.96875 0.367188 24.28125 -0.203125 C 23.601562 -0.773438 23.238281 -1.582031 23.1875 -2.625 C 23.125 -4 22.929688 -4.6875 22.609375 -4.6875 C 22.273438 -4.6875 21.726562 -4.191406 20.96875 -3.203125 C 20.195312 -2.210938 19.164062 -1.347656 17.875 -0.609375 C 16.59375 0.128906 14.828125 0.5 12.578125 0.5 C 9.015625 0.5 6.300781 -0.800781 4.4375 -3.40625 C 2.570312 -6.007812 1.640625 -9.476562 1.640625 -13.8125 Z M 15.375 -18.828125 C 15.375 -15.804688 15.675781 -13.347656 16.28125 -11.453125 C 16.882812 -9.566406 17.867188 -8.625 19.234375 -8.625 C 20.660156 -8.625 21.660156 -9.566406 22.234375 -11.453125 C 22.804688 -13.347656 23.09375 -15.804688 23.09375 -18.828125 C 23.09375 -21.890625 22.804688 -24.351562 22.234375 -26.21875 C 21.660156 -28.082031 20.660156 -29.015625 19.234375 -29.015625 C 17.867188 -29.015625 16.882812 -28.082031 16.28125 -26.21875 C 15.675781 -24.351562 15.375 -21.890625 15.375 -18.828125 Z M 15.375 -18.828125 "/></g></g><g style="fill:#e4e2dd;fill-opacity:1;"><g transform="translate(145.025016, 184.008572)"><path style="stroke:none" d="M 10.6875 0.5 C 7.613281 0.5 5.335938 -0.40625 3.859375 -2.21875 C 2.378906 -4.03125 1.640625 -6.195312 1.640625 -8.71875 C 1.640625 -12.382812 3.007812 -15.269531 5.75 -17.375 C 8.488281 -19.488281 12.050781 -21.015625 16.4375 -21.953125 C 20.601562 -22.828125 22.6875 -24.195312 22.6875 -26.0625 C 22.6875 -26.769531 22.382812 -27.46875 21.78125 -28.15625 C 21.175781 -28.84375 20.132812 -29.1875 18.65625 -29.1875 C 17.175781 -29.1875 15.96875 -28.785156 15.03125 -27.984375 C 14.101562 -27.191406 13.285156 -26.285156 12.578125 -25.265625 C 11.867188 -24.253906 11.085938 -23.351562 10.234375 -22.5625 C 9.378906 -21.769531 8.242188 -21.375 6.828125 -21.375 C 5.890625 -21.375 5.078125 -21.703125 4.390625 -22.359375 C 3.710938 -23.015625 3.375 -23.8125 3.375 -24.75 C 3.375 -26.601562 4.113281 -28.175781 5.59375 -29.46875 C 7.070312 -30.757812 9.003906 -31.734375 11.390625 -32.390625 C 13.773438 -33.046875 16.363281 -33.375 19.15625 -33.375 C 22.164062 -33.375 24.90625 -32.894531 27.375 -31.9375 C 29.84375 -30.976562 31.816406 -29.375 33.296875 -27.125 C 34.773438 -24.875 35.515625 -21.804688 35.515625 -17.921875 L 35.515625 -10.609375 C 35.515625 -8.691406 35.648438 -7.238281 35.921875 -6.25 C 36.191406 -5.257812 36.519531 -4.53125 36.90625 -4.0625 C 37.289062 -3.601562 37.617188 -3.222656 37.890625 -2.921875 C 38.171875 -2.617188 38.3125 -2.164062 38.3125 -1.5625 C 38.3125 -0.738281 38.0625 -0.191406 37.5625 0.078125 C 37.070312 0.359375 36.441406 0.5 35.671875 0.5 C 34.847656 0.5 33.941406 0.414062 32.953125 0.25 C 31.972656 0.0820312 31.070312 0 30.25 0 C 29.375 0 28.609375 0.0390625 27.953125 0.125 C 27.296875 0.207031 26.609375 0.300781 25.890625 0.40625 C 25.015625 0.519531 24.234375 0.410156 23.546875 0.078125 C 22.867188 -0.242188 22.472656 -0.84375 22.359375 -1.71875 C 22.304688 -2.601562 22.171875 -3.195312 21.953125 -3.5 C 21.734375 -3.800781 21.457031 -3.953125 21.125 -3.953125 C 20.519531 -3.953125 19.738281 -3.578125 18.78125 -2.828125 C 17.820312 -2.085938 16.671875 -1.347656 15.328125 -0.609375 C 13.984375 0.128906 12.4375 0.5 10.6875 0.5 Z M 14.390625 -12.078125 C 14.390625 -10.492188 14.785156 -9.359375 15.578125 -8.671875 C 16.367188 -7.984375 17.3125 -7.640625 18.40625 -7.640625 C 19.78125 -7.640625 20.820312 -8.226562 21.53125 -9.40625 C 22.25 -10.582031 22.609375 -11.96875 22.609375 -13.5625 L 22.609375 -17.515625 C 22.609375 -18.992188 21.921875 -19.375 20.546875 -18.65625 C 19.671875 -18.21875 18.753906 -17.738281 17.796875 -17.21875 C 16.835938 -16.695312 16.03125 -16.050781 15.375 -15.28125 C 14.71875 -14.519531 14.390625 -13.453125 14.390625 -12.078125 Z M 14.390625 -12.078125 "/></g></g><g style="fill:#e4e2dd;fill-opacity:1;"><g transform="translate(181.51737, 184.008572)"><path style="stroke:none" d="M 0.828125 -1.5625 C 0.828125 -2.164062 0.960938 -2.617188 1.234375 -2.921875 C 1.503906 -3.222656 1.832031 -3.601562 2.21875 -4.0625 C 2.601562 -4.53125 2.929688 -5.257812 3.203125 -6.25 C 3.472656 -7.238281 3.609375 -8.691406 3.609375 -10.609375 C 3.609375 -13.128906 3.625 -14.945312 3.65625 -16.0625 C 3.6875 -17.1875 3.703125 -18.007812 3.703125 -18.53125 C 3.703125 -19.050781 3.703125 -19.640625 3.703125 -20.296875 C 3.703125 -21.785156 3.46875 -22.816406 3 -23.390625 C 2.53125 -23.960938 2.0625 -24.410156 1.59375 -24.734375 C 1.132812 -25.066406 0.90625 -25.59375 0.90625 -26.3125 C 0.90625 -27.125 1.175781 -27.679688 1.71875 -27.984375 C 2.269531 -28.285156 3.050781 -28.546875 4.0625 -28.765625 C 5.082031 -28.984375 6.304688 -29.34375 7.734375 -29.84375 C 9.484375 -30.5 10.6875 -31.085938 11.34375 -31.609375 C 12 -32.128906 12.488281 -32.550781 12.8125 -32.875 C 13.144531 -33.207031 13.671875 -33.375 14.390625 -33.375 C 15.367188 -33.375 16.023438 -32.9375 16.359375 -32.0625 C 16.691406 -31.1875 16.859375 -30.144531 16.859375 -28.9375 L 16.859375 -28.28125 C 16.859375 -27.507812 16.992188 -27.125 17.265625 -27.125 C 17.535156 -27.125 17.972656 -27.4375 18.578125 -28.0625 C 19.179688 -28.695312 19.960938 -29.425781 20.921875 -30.25 C 21.878906 -31.070312 23.03125 -31.796875 24.375 -32.421875 C 25.71875 -33.054688 27.238281 -33.375 28.9375 -33.375 C 31.507812 -33.375 33.453125 -32.828125 34.765625 -31.734375 C 36.085938 -30.640625 36.976562 -29.269531 37.4375 -27.625 C 37.90625 -25.976562 38.140625 -24.304688 38.140625 -22.609375 L 38.140625 -10.609375 C 38.140625 -8.691406 38.273438 -7.238281 38.546875 -6.25 C 38.828125 -5.257812 39.15625 -4.53125 39.53125 -4.0625 C 39.914062 -3.601562 40.242188 -3.222656 40.515625 -2.921875 C 40.796875 -2.617188 40.9375 -2.164062 40.9375 -1.5625 C 40.9375 -0.738281 40.703125 -0.191406 40.234375 0.078125 C 39.773438 0.359375 39.160156 0.5 38.390625 0.5 C 37.617188 0.5 36.726562 0.414062 35.71875 0.25 C 34.707031 0.0820312 33.734375 0 32.796875 0 C 31.921875 0 31.164062 0.0390625 30.53125 0.125 C 29.90625 0.207031 29.238281 0.300781 28.53125 0.40625 C 27.425781 0.519531 26.53125 0.273438 25.84375 -0.328125 C 25.164062 -0.929688 24.828125 -1.78125 24.828125 -2.875 L 24.828125 -16.359375 C 24.828125 -18.984375 24.550781 -20.984375 24 -22.359375 C 23.457031 -23.734375 22.472656 -24.421875 21.046875 -24.421875 C 19.785156 -24.421875 18.769531 -23.773438 18 -22.484375 C 17.238281 -21.191406 16.859375 -18.546875 16.859375 -14.546875 L 16.859375 -10.609375 C 16.859375 -8.691406 16.992188 -7.238281 17.265625 -6.25 C 17.535156 -5.257812 17.863281 -4.53125 18.25 -4.0625 C 18.632812 -3.601562 18.960938 -3.222656 19.234375 -2.921875 C 19.503906 -2.617188 19.640625 -2.164062 19.640625 -1.5625 C 19.640625 -0.738281 19.320312 -0.191406 18.6875 0.078125 C 18.0625 0.359375 17.285156 0.5 16.359375 0.5 C 15.316406 0.5 14.234375 0.414062 13.109375 0.25 C 11.984375 0.0820312 11.007812 0 10.1875 0 C 9.363281 0 8.390625 0.0820312 7.265625 0.25 C 6.148438 0.414062 5.097656 0.5 4.109375 0.5 C 3.179688 0.5 2.398438 0.359375 1.765625 0.078125 C 1.140625 -0.191406 0.828125 -0.738281 0.828125 -1.5625 Z M 0.828125 -1.5625 "/></g></g><g style="fill:#e4e2dd;fill-opacity:1;"><g transform="translate(170.737253, 227.753487)"><path style="stroke:none" d="M 4.9375 -39.578125 C 4.0625 -40.453125 3.097656 -41.164062 2.046875 -41.71875 C 0.992188 -42.28125 0.46875 -43.179688 0.46875 -44.421875 C 0.46875 -45.484375 0.992188 -46.195312 2.046875 -46.5625 C 3.097656 -46.9375 4.375 -47.125 5.875 -47.125 C 7.300781 -47.125 8.742188 -47.046875 10.203125 -46.890625 C 11.660156 -46.734375 12.945312 -46.65625 14.0625 -46.65625 C 15.488281 -46.65625 16.976562 -46.75 18.53125 -46.9375 C 20.082031 -47.125 21.476562 -47.21875 22.71875 -47.21875 C 23.84375 -47.21875 24.773438 -47.0625 25.515625 -46.75 C 26.265625 -46.445312 26.640625 -45.859375 26.640625 -44.984375 C 26.640625 -44.117188 26.3125 -43.40625 25.65625 -42.84375 C 25.007812 -42.28125 24.40625 -41.671875 23.84375 -41.015625 C 23.28125 -40.367188 23.1875 -39.457031 23.5625 -38.28125 C 23.75 -37.65625 24.085938 -36.660156 24.578125 -35.296875 C 25.078125 -33.929688 25.640625 -32.441406 26.265625 -30.828125 C 26.890625 -29.210938 27.492188 -27.644531 28.078125 -26.125 C 28.671875 -24.601562 29.1875 -23.316406 29.625 -22.265625 C 30.175781 -20.953125 30.734375 -20.953125 31.296875 -22.265625 C 31.796875 -23.378906 32.445312 -24.972656 33.25 -27.046875 C 34.0625 -29.128906 34.914062 -31.316406 35.8125 -33.609375 C 36.707031 -35.910156 37.5 -37.992188 38.1875 -39.859375 C 38.875 -41.722656 39.335938 -42.96875 39.578125 -43.59375 C 40.078125 -44.957031 40.5625 -45.882812 41.03125 -46.375 C 41.5 -46.875 42.101562 -47.125 42.84375 -47.125 C 43.59375 -47.125 44.148438 -46.890625 44.515625 -46.421875 C 44.890625 -45.960938 45.328125 -45.082031 45.828125 -43.78125 C 46.140625 -42.96875 46.679688 -41.582031 47.453125 -39.625 C 48.234375 -37.675781 49.085938 -35.503906 50.015625 -33.109375 C 50.941406 -30.722656 51.804688 -28.503906 52.609375 -26.453125 C 53.421875 -24.398438 54.015625 -22.878906 54.390625 -21.890625 C 54.890625 -20.460938 55.453125 -20.460938 56.078125 -21.890625 C 56.691406 -23.378906 57.429688 -25.191406 58.296875 -27.328125 C 59.171875 -29.472656 59.976562 -31.539062 60.71875 -33.53125 C 61.46875 -35.519531 61.96875 -36.945312 62.21875 -37.8125 C 62.59375 -38.988281 62.5 -39.90625 61.9375 -40.5625 C 61.375 -41.21875 60.765625 -41.820312 60.109375 -42.375 C 59.460938 -42.9375 59.140625 -43.648438 59.140625 -44.515625 C 59.140625 -45.390625 59.375 -45.976562 59.84375 -46.28125 C 60.3125 -46.59375 60.914062 -46.75 61.65625 -46.75 C 62.53125 -46.75 63.460938 -46.65625 64.453125 -46.46875 C 65.441406 -46.289062 66.4375 -46.203125 67.4375 -46.203125 C 68.175781 -46.203125 69.007812 -46.289062 69.9375 -46.46875 C 70.875 -46.65625 71.75 -46.75 72.5625 -46.75 C 73.363281 -46.75 74.023438 -46.59375 74.546875 -46.28125 C 75.078125 -45.976562 75.34375 -45.359375 75.34375 -44.421875 C 75.34375 -43.304688 74.816406 -42.375 73.765625 -41.625 C 72.710938 -40.882812 71.75 -40.082031 70.875 -39.21875 C 70.070312 -38.40625 69.21875 -37.191406 68.3125 -35.578125 C 67.414062 -33.960938 66.546875 -32.222656 65.703125 -30.359375 C 64.867188 -28.492188 64.109375 -26.691406 63.421875 -24.953125 C 62.742188 -23.222656 62.1875 -21.828125 61.75 -20.765625 C 60.882812 -18.597656 59.921875 -16.316406 58.859375 -13.921875 C 57.804688 -11.535156 56.796875 -9.238281 55.828125 -7.03125 C 54.867188 -4.820312 54.050781 -2.910156 53.375 -1.296875 C 52.75 0.191406 51.722656 0.9375 50.296875 0.9375 C 48.867188 0.9375 47.84375 0.191406 47.21875 -1.296875 C 46.539062 -2.910156 45.71875 -4.820312 44.75 -7.03125 C 43.789062 -9.238281 42.796875 -11.535156 41.765625 -13.921875 C 40.742188 -16.316406 39.769531 -18.597656 38.84375 -20.765625 C 38.59375 -21.578125 38.25 -21.984375 37.8125 -21.984375 C 37.3125 -21.984375 36.941406 -21.578125 36.703125 -20.765625 C 35.828125 -18.660156 34.863281 -16.394531 33.8125 -13.96875 C 32.757812 -11.550781 31.765625 -9.253906 30.828125 -7.078125 C 29.898438 -4.898438 29.15625 -3.097656 28.59375 -1.671875 C 27.96875 -0.179688 26.941406 0.5625 25.515625 0.5625 C 24.085938 0.5625 23.066406 -0.179688 22.453125 -1.671875 C 21.828125 -3.285156 21.015625 -5.195312 20.015625 -7.40625 C 19.023438 -9.613281 18.019531 -11.910156 17 -14.296875 C 15.976562 -16.691406 15 -18.972656 14.0625 -21.140625 C 13.625 -22.191406 13.0625 -23.585938 12.375 -25.328125 C 11.695312 -27.066406 10.9375 -28.867188 10.09375 -30.734375 C 9.257812 -32.597656 8.40625 -34.335938 7.53125 -35.953125 C 6.664062 -37.566406 5.800781 -38.773438 4.9375 -39.578125 Z M 4.9375 -39.578125 "/></g></g><g style="fill:#e4e2dd;fill-opacity:1;"><g transform="translate(243.57394, 227.753487)"><path style="stroke:none" d="M 22.078125 0.5625 C 15.867188 0.5625 10.945312 -1.128906 7.3125 -4.515625 C 3.675781 -7.898438 1.859375 -12.601562 1.859375 -18.625 C 1.859375 -24.707031 3.675781 -29.425781 7.3125 -32.78125 C 10.945312 -36.132812 15.867188 -37.8125 22.078125 -37.8125 C 28.285156 -37.8125 33.203125 -36.132812 36.828125 -32.78125 C 40.460938 -29.425781 42.28125 -24.707031 42.28125 -18.625 C 42.28125 -12.601562 40.460938 -7.898438 36.828125 -4.515625 C 33.203125 -1.128906 28.285156 0.5625 22.078125 0.5625 Z M 17.234375 -18.625 C 17.234375 -16.082031 17.367188 -13.738281 17.640625 -11.59375 C 17.921875 -9.445312 18.421875 -7.753906 19.140625 -6.515625 C 19.859375 -5.273438 20.835938 -4.65625 22.078125 -4.65625 C 23.378906 -4.65625 24.382812 -5.273438 25.09375 -6.515625 C 25.8125 -7.753906 26.296875 -9.445312 26.546875 -11.59375 C 26.796875 -13.738281 26.921875 -16.082031 26.921875 -18.625 C 26.921875 -21.238281 26.796875 -23.597656 26.546875 -25.703125 C 26.296875 -27.816406 25.8125 -29.492188 25.09375 -30.734375 C 24.382812 -31.972656 23.378906 -32.59375 22.078125 -32.59375 C 20.835938 -32.59375 19.859375 -31.972656 19.140625 -30.734375 C 18.421875 -29.492188 17.921875 -27.816406 17.640625 -25.703125 C 17.367188 -23.597656 17.234375 -21.238281 17.234375 -18.625 Z M 17.234375 -18.625 "/></g></g><g style="fill:#e4e2dd;fill-opacity:1;"><g transform="translate(284.742367, 227.753487)"><path style="stroke:none" d="M 22.078125 0.5625 C 15.867188 0.5625 10.945312 -1.128906 7.3125 -4.515625 C 3.675781 -7.898438 1.859375 -12.601562 1.859375 -18.625 C 1.859375 -24.707031 3.675781 -29.425781 7.3125 -32.78125 C 10.945312 -36.132812 15.867188 -37.8125 22.078125 -37.8125 C 28.285156 -37.8125 33.203125 -36.132812 36.828125 -32.78125 C 40.460938 -29.425781 42.28125 -24.707031 42.28125 -18.625 C 42.28125 -12.601562 40.460938 -7.898438 36.828125 -4.515625 C 33.203125 -1.128906 28.285156 0.5625 22.078125 0.5625 Z M 17.234375 -18.625 C 17.234375 -16.082031 17.367188 -13.738281 17.640625 -11.59375 C 17.921875 -9.445312 18.421875 -7.753906 19.140625 -6.515625 C 19.859375 -5.273438 20.835938 -4.65625 22.078125 -4.65625 C 23.378906 -4.65625 24.382812 -5.273438 25.09375 -6.515625 C 25.8125 -7.753906 26.296875 -9.445312 26.546875 -11.59375 C 26.796875 -13.738281 26.921875 -16.082031 26.921875 -18.625 C 26.921875 -21.238281 26.796875 -23.597656 26.546875 -25.703125 C 26.296875 -27.816406 25.8125 -29.492188 25.09375 -30.734375 C 24.382812 -31.972656 23.378906 -32.59375 22.078125 -32.59375 C 20.835938 -32.59375 19.859375 -31.972656 19.140625 -30.734375 C 18.421875 -29.492188 17.921875 -27.816406 17.640625 -25.703125 C 17.367188 -23.597656 17.234375 -21.238281 17.234375 -18.625 Z M 17.234375 -18.625 "/></g></g><g style="fill:#e4e2dd;fill-opacity:1;"><g transform="translate(325.910795, 227.753487)"><path style="stroke:none" d="M 1.859375 -15.640625 C 1.859375 -22.347656 3.425781 -27.71875 6.5625 -31.75 C 9.695312 -35.789062 14.125 -37.8125 19.84375 -37.8125 C 21.269531 -37.8125 22.476562 -37.765625 23.46875 -37.671875 C 24.46875 -37.578125 25.367188 -37.46875 26.171875 -37.34375 L 26.171875 -38.75 C 26.171875 -40.425781 25.90625 -41.585938 25.375 -42.234375 C 24.851562 -42.890625 24.328125 -43.398438 23.796875 -43.765625 C 23.265625 -44.140625 23 -44.734375 23 -45.546875 C 23 -46.472656 23.351562 -47.109375 24.0625 -47.453125 C 24.78125 -47.796875 25.773438 -48.09375 27.046875 -48.34375 C 28.328125 -48.59375 29.773438 -48.992188 31.390625 -49.546875 C 33.378906 -50.296875 34.726562 -50.960938 35.4375 -51.546875 C 36.15625 -52.140625 36.664062 -52.625 36.96875 -53 C 37.28125 -53.375 37.84375 -53.5625 38.65625 -53.5625 C 39.769531 -53.5625 40.515625 -53.0625 40.890625 -52.0625 C 41.265625 -51.070312 41.453125 -49.894531 41.453125 -48.53125 L 41.453125 -12.015625 C 41.453125 -9.835938 41.601562 -8.191406 41.90625 -7.078125 C 42.21875 -5.960938 42.59375 -5.140625 43.03125 -4.609375 C 43.46875 -4.078125 43.835938 -3.640625 44.140625 -3.296875 C 44.453125 -2.960938 44.609375 -2.453125 44.609375 -1.765625 C 44.609375 -0.835938 44.296875 -0.21875 43.671875 0.09375 C 43.054688 0.40625 42.285156 0.5625 41.359375 0.5625 C 40.359375 0.5625 39.285156 0.46875 38.140625 0.28125 C 36.992188 0.09375 35.953125 0 35.015625 0 C 34.023438 0 33.21875 0.0625 32.59375 0.1875 C 31.976562 0.3125 31.265625 0.4375 30.453125 0.5625 C 29.273438 0.6875 28.296875 0.425781 27.515625 -0.21875 C 26.742188 -0.875 26.328125 -1.796875 26.265625 -2.984375 C 26.203125 -4.535156 25.984375 -5.3125 25.609375 -5.3125 C 25.242188 -5.3125 24.625 -4.75 23.75 -3.625 C 22.882812 -2.507812 21.71875 -1.53125 20.25 -0.6875 C 18.789062 0.144531 16.789062 0.5625 14.25 0.5625 C 10.21875 0.5625 7.144531 -0.910156 5.03125 -3.859375 C 2.914062 -6.816406 1.859375 -10.742188 1.859375 -15.640625 Z M 17.421875 -21.328125 C 17.421875 -17.910156 17.757812 -15.128906 18.4375 -12.984375 C 19.125 -10.847656 20.242188 -9.78125 21.796875 -9.78125 C 23.410156 -9.78125 24.539062 -10.847656 25.1875 -12.984375 C 25.84375 -15.128906 26.171875 -17.910156 26.171875 -21.328125 C 26.171875 -24.804688 25.84375 -27.597656 25.1875 -29.703125 C 24.539062 -31.816406 23.410156 -32.875 21.796875 -32.875 C 20.242188 -32.875 19.125 -31.816406 18.4375 -29.703125 C 17.757812 -27.597656 17.421875 -24.804688 17.421875 -21.328125 Z M 17.421875 -21.328125 "/></g></g><g style="fill:#e4e2dd;fill-opacity:1;"><g transform="translate(247.318152, 181.244906)"><path style="stroke:none" d="M 3.859375 0.140625 C 3.171875 0.140625 2.507812 0.0507812 1.875 -0.125 C 1.238281 -0.3125 0.726562 -0.550781 0.34375 -0.84375 L 1.015625 -2.359375 C 1.390625 -2.085938 1.832031 -1.867188 2.34375 -1.703125 C 2.851562 -1.535156 3.359375 -1.453125 3.859375 -1.453125 C 4.429688 -1.453125 4.851562 -1.535156 5.125 -1.703125 C 5.394531 -1.867188 5.53125 -2.09375 5.53125 -2.375 C 5.53125 -2.582031 5.445312 -2.753906 5.28125 -2.890625 C 5.125 -3.023438 4.921875 -3.132812 4.671875 -3.21875 C 4.421875 -3.300781 4.082031 -3.390625 3.65625 -3.484375 C 3 -3.640625 2.460938 -3.796875 2.046875 -3.953125 C 1.628906 -4.109375 1.269531 -4.359375 0.96875 -4.703125 C 0.664062 -5.046875 0.515625 -5.503906 0.515625 -6.078125 C 0.515625 -6.578125 0.648438 -7.03125 0.921875 -7.4375 C 1.191406 -7.84375 1.597656 -8.164062 2.140625 -8.40625 C 2.691406 -8.644531 3.363281 -8.765625 4.15625 -8.765625 C 4.695312 -8.765625 5.226562 -8.695312 5.75 -8.5625 C 6.28125 -8.4375 6.742188 -8.25 7.140625 -8 L 6.53125 -6.484375 C 5.726562 -6.941406 4.929688 -7.171875 4.140625 -7.171875 C 3.578125 -7.171875 3.160156 -7.078125 2.890625 -6.890625 C 2.628906 -6.710938 2.5 -6.476562 2.5 -6.1875 C 2.5 -5.882812 2.648438 -5.660156 2.953125 -5.515625 C 3.265625 -5.378906 3.738281 -5.238281 4.375 -5.09375 C 5.03125 -4.9375 5.566406 -4.78125 5.984375 -4.625 C 6.398438 -4.46875 6.757812 -4.222656 7.0625 -3.890625 C 7.363281 -3.554688 7.515625 -3.101562 7.515625 -2.53125 C 7.515625 -2.03125 7.375 -1.578125 7.09375 -1.171875 C 6.820312 -0.765625 6.410156 -0.441406 5.859375 -0.203125 C 5.304688 0.0234375 4.640625 0.140625 3.859375 0.140625 Z M 3.859375 0.140625 "/></g></g><g style="fill:#e4e2dd;fill-opacity:1;"><g transform="translate(257.783599, 181.244906)"><path style="stroke:none" d="M 1.015625 -8.625 L 3.015625 -8.625 L 3.015625 0 L 1.015625 0 Z M 1.015625 -8.625 "/></g></g><g style="fill:#e4e2dd;fill-opacity:1;"><g transform="translate(264.432609, 181.244906)"><path style="stroke:none" d="M 8.921875 -8.625 L 8.921875 0 L 7.28125 0 L 2.984375 -5.234375 L 2.984375 0 L 1.015625 0 L 1.015625 -8.625 L 2.671875 -8.625 L 6.953125 -3.390625 L 6.953125 -8.625 Z M 8.921875 -8.625 "/></g></g><g style="fill:#e4e2dd;fill-opacity:1;"><g transform="translate(276.990949, 181.244906)"><path style="stroke:none" d="M 5.140625 0.140625 C 4.265625 0.140625 3.472656 -0.046875 2.765625 -0.421875 C 2.054688 -0.804688 1.5 -1.335938 1.09375 -2.015625 C 0.6875 -2.691406 0.484375 -3.457031 0.484375 -4.3125 C 0.484375 -5.164062 0.6875 -5.929688 1.09375 -6.609375 C 1.5 -7.285156 2.054688 -7.8125 2.765625 -8.1875 C 3.472656 -8.570312 4.269531 -8.765625 5.15625 -8.765625 C 5.90625 -8.765625 6.582031 -8.632812 7.1875 -8.375 C 7.789062 -8.113281 8.296875 -7.734375 8.703125 -7.234375 L 7.421875 -6.0625 C 6.835938 -6.726562 6.113281 -7.0625 5.25 -7.0625 C 4.71875 -7.0625 4.242188 -6.941406 3.828125 -6.703125 C 3.410156 -6.472656 3.082031 -6.148438 2.84375 -5.734375 C 2.613281 -5.316406 2.5 -4.84375 2.5 -4.3125 C 2.5 -3.78125 2.613281 -3.300781 2.84375 -2.875 C 3.082031 -2.457031 3.410156 -2.128906 3.828125 -1.890625 C 4.242188 -1.660156 4.71875 -1.546875 5.25 -1.546875 C 6.113281 -1.546875 6.835938 -1.890625 7.421875 -2.578125 L 8.703125 -1.390625 C 8.296875 -0.890625 7.785156 -0.507812 7.171875 -0.25 C 6.566406 0.0078125 5.890625 0.140625 5.140625 0.140625 Z M 5.140625 0.140625 "/></g></g><g style="fill:#e4e2dd;fill-opacity:1;"><g transform="translate(288.625958, 181.244906)"><path style="stroke:none" d="M 7.6875 -1.59375 L 7.6875 0 L 1.015625 0 L 1.015625 -8.625 L 7.53125 -8.625 L 7.53125 -7.015625 L 3 -7.015625 L 3 -5.140625 L 7 -5.140625 L 7 -3.59375 L 3 -3.59375 L 3 -1.59375 Z M 7.6875 -1.59375 "/></g></g><g style="fill:#e4e2dd;fill-opacity:1;"><g transform="translate(299.497679, 181.244906)"><path style="stroke:none" d=""/></g></g><g style="fill:#e4e2dd;fill-opacity:1;"><g transform="translate(305.592691, 181.244906)"><path style="stroke:none" d="M 6.921875 -1.625 L 6.921875 0 L 0.40625 0 L 0.40625 -1.296875 L 3.734375 -4.4375 C 4.085938 -4.769531 4.320312 -5.054688 4.4375 -5.296875 C 4.5625 -5.535156 4.625 -5.773438 4.625 -6.015625 C 4.625 -6.359375 4.503906 -6.625 4.265625 -6.8125 C 4.035156 -7 3.695312 -7.09375 3.25 -7.09375 C 2.875 -7.09375 2.53125 -7.019531 2.21875 -6.875 C 1.914062 -6.726562 1.664062 -6.515625 1.46875 -6.234375 L 0.015625 -7.171875 C 0.347656 -7.671875 0.8125 -8.0625 1.40625 -8.34375 C 2 -8.625 2.675781 -8.765625 3.4375 -8.765625 C 4.070312 -8.765625 4.628906 -8.660156 5.109375 -8.453125 C 5.597656 -8.242188 5.972656 -7.945312 6.234375 -7.5625 C 6.503906 -7.1875 6.640625 -6.738281 6.640625 -6.21875 C 6.640625 -5.75 6.539062 -5.304688 6.34375 -4.890625 C 6.144531 -4.484375 5.765625 -4.019531 5.203125 -3.5 L 3.21875 -1.625 Z M 6.921875 -1.625 "/></g></g><g style="fill:#e4e2dd;fill-opacity:1;"><g transform="translate(315.467212, 181.244906)"><path style="stroke:none" d="M 4.171875 0.140625 C 3.460938 0.140625 2.828125 -0.03125 2.265625 -0.375 C 1.703125 -0.726562 1.265625 -1.238281 0.953125 -1.90625 C 0.640625 -2.582031 0.484375 -3.382812 0.484375 -4.3125 C 0.484375 -5.238281 0.640625 -6.035156 0.953125 -6.703125 C 1.265625 -7.367188 1.703125 -7.878906 2.265625 -8.234375 C 2.828125 -8.585938 3.460938 -8.765625 4.171875 -8.765625 C 4.890625 -8.765625 5.523438 -8.585938 6.078125 -8.234375 C 6.640625 -7.878906 7.078125 -7.367188 7.390625 -6.703125 C 7.710938 -6.035156 7.875 -5.238281 7.875 -4.3125 C 7.875 -3.382812 7.710938 -2.582031 7.390625 -1.90625 C 7.078125 -1.238281 6.640625 -0.726562 6.078125 -0.375 C 5.523438 -0.03125 4.890625 0.140625 4.171875 0.140625 Z M 4.171875 -1.53125 C 4.703125 -1.53125 5.113281 -1.753906 5.40625 -2.203125 C 5.707031 -2.660156 5.859375 -3.363281 5.859375 -4.3125 C 5.859375 -5.25 5.707031 -5.941406 5.40625 -6.390625 C 5.113281 -6.847656 4.703125 -7.078125 4.171875 -7.078125 C 3.648438 -7.078125 3.238281 -6.847656 2.9375 -6.390625 C 2.644531 -5.941406 2.5 -5.25 2.5 -4.3125 C 2.5 -3.363281 2.644531 -2.660156 2.9375 -2.203125 C 3.238281 -1.753906 3.648438 -1.53125 4.171875 -1.53125 Z M 4.171875 -1.53125 "/></g></g><g style="fill:#e4e2dd;fill-opacity:1;"><g transform="translate(326.437412, 181.244906)"><path style="stroke:none" d="M 4.171875 0.140625 C 3.460938 0.140625 2.828125 -0.03125 2.265625 -0.375 C 1.703125 -0.726562 1.265625 -1.238281 0.953125 -1.90625 C 0.640625 -2.582031 0.484375 -3.382812 0.484375 -4.3125 C 0.484375 -5.238281 0.640625 -6.035156 0.953125 -6.703125 C 1.265625 -7.367188 1.703125 -7.878906 2.265625 -8.234375 C 2.828125 -8.585938 3.460938 -8.765625 4.171875 -8.765625 C 4.890625 -8.765625 5.523438 -8.585938 6.078125 -8.234375 C 6.640625 -7.878906 7.078125 -7.367188 7.390625 -6.703125 C 7.710938 -6.035156 7.875 -5.238281 7.875 -4.3125 C 7.875 -3.382812 7.710938 -2.582031 7.390625 -1.90625 C 7.078125 -1.238281 6.640625 -0.726562 6.078125 -0.375 C 5.523438 -0.03125 4.890625 0.140625 4.171875 0.140625 Z M 4.171875 -1.53125 C 4.703125 -1.53125 5.113281 -1.753906 5.40625 -2.203125 C 5.707031 -2.660156 5.859375 -3.363281 5.859375 -4.3125 C 5.859375 -5.25 5.707031 -5.941406 5.40625 -6.390625 C 5.113281 -6.847656 4.703125 -7.078125 4.171875 -7.078125 C 3.648438 -7.078125 3.238281 -6.847656 2.9375 -6.390625 C 2.644531 -5.941406 2.5 -5.25 2.5 -4.3125 C 2.5 -3.363281 2.644531 -2.660156 2.9375 -2.203125 C 3.238281 -1.753906 3.648438 -1.53125 4.171875 -1.53125 Z M 4.171875 -1.53125 "/></g></g><g style="fill:#e4e2dd;fill-opacity:1;"><g transform="translate(337.407612, 181.244906)"><path style="stroke:none" d="M 6.921875 -1.625 L 6.921875 0 L 0.40625 0 L 0.40625 -1.296875 L 3.734375 -4.4375 C 4.085938 -4.769531 4.320312 -5.054688 4.4375 -5.296875 C 4.5625 -5.535156 4.625 -5.773438 4.625 -6.015625 C 4.625 -6.359375 4.503906 -6.625 4.265625 -6.8125 C 4.035156 -7 3.695312 -7.09375 3.25 -7.09375 C 2.875 -7.09375 2.53125 -7.019531 2.21875 -6.875 C 1.914062 -6.726562 1.664062 -6.515625 1.46875 -6.234375 L 0.015625 -7.171875 C 0.347656 -7.671875 0.8125 -8.0625 1.40625 -8.34375 C 2 -8.625 2.675781 -8.765625 3.4375 -8.765625 C 4.070312 -8.765625 4.628906 -8.660156 5.109375 -8.453125 C 5.597656 -8.242188 5.972656 -7.945312 6.234375 -7.5625 C 6.503906 -7.1875 6.640625 -6.738281 6.640625 -6.21875 C 6.640625 -5.75 6.539062 -5.304688 6.34375 -4.890625 C 6.144531 -4.484375 5.765625 -4.019531 5.203125 -3.5 L 3.21875 -1.625 Z M 6.921875 -1.625 "/></g></g></g></svg>