<?xml version="1.0" encoding="UTF-8"?>
<svg version="1.1" xmlns="http://www.w3.org/2000/svg" width="225" height="225">
<path d="M0 0 C74.25 0 148.5 0 225 0 C225 74.25 225 148.5 225 225 C150.75 225 76.5 225 0 225 C0 150.75 0 76.5 0 0 Z " fill="#73000B" transform="translate(0,0)"/>
<path d="M0 0 C0 60.06 0 120.12 0 182 C-23.76 182 -47.52 182 -72 182 C-70.35 178.7 -68.7 175.4 -67 172 C-70.96 172 -74.92 172 -79 172 C-79 171.01 -79 170.02 -79 169 C-74.71 169 -70.42 169 -66 169 C-66.06919089 163.44943804 -66.15730848 157.89960694 -66.26245117 152.34960938 C-66.29556404 150.46427565 -66.32363782 148.57884604 -66.34643555 146.69335938 C-66.38023376 143.97224328 -66.4325603 141.25199512 -66.48828125 138.53125 C-66.49467117 137.69758911 -66.5010611 136.86392822 -66.50764465 136.00500488 C-66.64711774 130.36647452 -67.86856282 126.21498484 -70 121 C-70 120.01 -70 119.02 -70 118 C-68.68 118 -67.36 118 -66 118 C-66.54140625 116.84371094 -66.54140625 116.84371094 -67.09375 115.6640625 C-67.5578125 114.66117187 -68.021875 113.65828125 -68.5 112.625 C-69.19609375 111.12839844 -69.19609375 111.12839844 -69.90625 109.6015625 C-71 107 -71 107 -71 105 C-69.68 105 -68.36 105 -67 105 C-67.0721875 104.44054687 -67.144375 103.88109375 -67.21875 103.3046875 C-67.96179957 96.88556479 -67.98802982 90.65619505 -67.7421875 84.19921875 C-68.03013337 80.62607232 -68.85812351 78.84031448 -71 76 C-76.41829933 73.29085033 -85.26374136 74.72527586 -91 76 C-91 75.34 -91 74.68 -91 74 C-93.31 74 -95.62 74 -98 74 C-97.96072388 75.21731812 -97.96072388 75.21731812 -97.9206543 76.45922852 C-97.81628848 80.16011965 -97.75154497 83.86070054 -97.6875 87.5625 C-97.64560547 88.83931641 -97.60371094 90.11613281 -97.56054688 91.43164062 C-97.42240895 102.06826102 -97.42240895 102.06826102 -100.45703125 106.40234375 C-101.29621094 107.25957031 -102.13539062 108.11679688 -103 109 C-103.33 109 -103.66 109 -104 109 C-105.37792563 101.73457395 -105.37792563 101.73457395 -103.54296875 98.16796875 C-101.75521489 94.49741588 -101.59848647 91.99848946 -101.625 87.9375 C-101.61726563 86.75027344 -101.60953125 85.56304687 -101.6015625 84.33984375 C-102.02863054 80.76000875 -102.95056217 78.91810818 -105 76 C-105.33 75.34 -105.66 74.68 -106 74 C-103.91780951 73.18457569 -101.83420239 72.37276811 -99.75 71.5625 C-98.58984375 71.11003906 -97.4296875 70.65757813 -96.234375 70.19140625 C-87.04356366 66.80590207 -76.29708764 66.71442728 -67 70 C-64.53436964 71.19850678 -62.31753276 72.52072377 -60 74 C-60.61277612 76.96175123 -61.25372522 78.38058783 -63 81 C-63.35709396 84.26052786 -63.35709396 84.26052786 -63.3125 87.875 C-63.32925781 89.08929688 -63.34601563 90.30359375 -63.36328125 91.5546875 C-62.94695626 95.50306003 -61.82745295 98.17254705 -59 101 C-55.3308423 101.14310287 -51.67284559 101.04221662 -48 101 C-47.67 96.38 -47.34 91.76 -47 87 C-49.97 87.495 -49.97 87.495 -53 88 C-53 90.97 -53 93.94 -53 97 C-57 95 -57 95 -58 93 C-58.203125 90.7578125 -58.203125 90.7578125 -58.25 88.125 C-58.27578125 87.26132813 -58.3015625 86.39765625 -58.328125 85.5078125 C-57.94108924 82.54975351 -56.95124005 81.20798216 -55 79 C-52.69 79.33 -50.38 79.66 -48 80 C-47.34 78.68 -46.68 77.36 -46 76 C-42.67247603 84.8060545 -40.1042079 92.42497773 -41 102 C-39.02 102 -37.04 102 -35 102 C-35.06960937 101.319375 -35.13921875 100.63875 -35.2109375 99.9375 C-35.75240418 90.24266803 -32.7300776 82.74792008 -29 74 C-30.98 74.33 -32.96 74.66 -35 75 C-35.66 77.64 -36.32 80.28 -37 83 C-37.66 83 -38.32 83 -39 83 C-39.495 78.545 -39.495 78.545 -40 74 C-41.340625 74.185625 -42.68125 74.37125 -44.0625 74.5625 C-48.29122548 75.04425354 -51.83244517 74.79804241 -56 74 C-56 73.67 -56 73.34 -56 73 C-55.3709375 72.96261719 -54.741875 72.92523438 -54.09375 72.88671875 C-48.99761651 72.49529886 -44.78010136 71.70823874 -40.06640625 69.765625 C-33.73823833 67.42097299 -27.72761983 67 -21 67 C-21 57.76 -21 48.52 -21 39 C-22.65 39 -24.3 39 -26 39 C-26 44.28 -26 49.56 -26 55 C-28.11044382 51.83433427 -28.75552077 49.48802585 -29.625 45.8125 C-29.88539063 44.72582031 -30.14578125 43.63914063 -30.4140625 42.51953125 C-30.60742188 41.68808594 -30.80078125 40.85664062 -31 40 C-33.31 39.67 -35.62 39.34 -38 39 C-38 46.26 -38 53.52 -38 61 C-38.99 61 -39.98 61 -41 61 C-40.96519531 60.13117188 -40.93039063 59.26234375 -40.89453125 58.3671875 C-40.4960137 49.69860794 -40.4960137 49.69860794 -44 42 C-46.37482847 39.8478117 -47.93511719 39.0216276 -51 38 C-46.25329641 24.59056236 -32.39914762 12.33049649 -20 6 C-6.42562674 0 -6.42562674 0 0 0 Z " fill="#70000A" transform="translate(225,43)"/>
<path d="M0 0 C7.83888024 0.56173794 15.66131889 0.49617749 23.515625 0.40869141 C23.515625 2.05869141 23.515625 3.70869141 23.515625 5.40869141 C21.865625 5.40869141 20.215625 5.40869141 18.515625 5.40869141 C18.515625 10.68869141 18.515625 15.96869141 18.515625 21.40869141 C20.495625 21.73869141 22.475625 22.06869141 24.515625 22.40869141 C24.515625 15.14869141 24.515625 7.88869141 24.515625 0.40869141 C26.825625 0.40869141 29.135625 0.40869141 31.515625 0.40869141 C31.515625 9.64869141 31.515625 18.88869141 31.515625 28.40869141 C32.835625 29.06869141 34.155625 29.72869141 35.515625 30.40869141 C36.505625 31.06869141 37.495625 31.72869141 38.515625 32.40869141 C39.505625 31.08869141 40.495625 29.76869141 41.515625 28.40869141 C40.938125 28.36744141 40.360625 28.32619141 39.765625 28.28369141 C37.13875914 27.26213246 35.75631205 26.02147862 34.28125 23.61572266 C32.35132816 18.05242755 32.21625656 10.70081325 34.38671875 5.20166016 C35.57965895 3.40569524 36.99343538 1.93088102 38.515625 0.40869141 C45.46163407 -0.40167632 45.46163407 -0.40167632 48.12109375 1.64306641 C51.61628893 5.78400146 52.65635909 9.12203672 52.640625 14.40869141 C52.64449219 15.70806641 52.64449219 15.70806641 52.6484375 17.03369141 C52.515625 19.40869141 52.515625 19.40869141 51.515625 22.40869141 C52.505625 22.40869141 53.495625 22.40869141 54.515625 22.40869141 C54.515625 15.14869141 54.515625 7.88869141 54.515625 0.40869141 C56.825625 0.40869141 59.135625 0.40869141 61.515625 0.40869141 C63.25126161 4.86097663 64.57172647 8.68919874 65.515625 13.40869141 C66.010625 6.97369141 66.010625 6.97369141 66.515625 0.40869141 C68.165625 0.40869141 69.815625 0.40869141 71.515625 0.40869141 C71.515625 9.64869141 71.515625 18.88869141 71.515625 28.40869141 C68.9375 28.82119141 66.359375 29.23369141 63.703125 29.65869141 C56.64886278 30.84637117 50.12131348 32.5980637 43.515625 35.40869141 C46.485625 35.40869141 49.455625 35.40869141 52.515625 35.40869141 C53.010625 39.86369141 53.010625 39.86369141 53.515625 44.40869141 C54.175625 44.40869141 54.835625 44.40869141 55.515625 44.40869141 C55.7321875 42.45962891 55.7321875 42.45962891 55.953125 40.47119141 C56.390625 36.53369141 56.390625 36.53369141 57.515625 35.40869141 C59.51520864 35.36788358 61.51607754 35.36614784 63.515625 35.40869141 C63.05850262 36.95071757 62.59986153 38.49229355 62.140625 40.03369141 C61.86734375 40.95666016 61.5940625 41.87962891 61.3125 42.83056641 C60.515625 45.40869141 60.515625 45.40869141 59.390625 48.28369141 C58.00498744 53.23239698 57.83010578 58.2942408 57.515625 63.40869141 C55.535625 63.40869141 53.555625 63.40869141 51.515625 63.40869141 C51.41765625 62.43029297 51.3196875 61.45189453 51.21875 60.44384766 C50.34503563 52.78378286 49.33379299 46.24803115 45.515625 39.40869141 C45.020625 40.39869141 45.020625 40.39869141 44.515625 41.40869141 C43.401875 41.34681641 42.288125 41.28494141 41.140625 41.22119141 C39.34625 41.31400391 39.34625 41.31400391 37.515625 41.40869141 C34.70654113 45.62231721 34.81854551 49.45618482 35.515625 54.40869141 C37.30753958 57.04385183 37.30753958 57.04385183 39.515625 58.40869141 C39.515625 55.43869141 39.515625 52.46869141 39.515625 49.40869141 C41.495625 49.07869141 43.475625 48.74869141 45.515625 48.40869141 C45.54247912 50.72112933 45.56195341 53.03365411 45.578125 55.34619141 C45.58972656 56.63396484 45.60132813 57.92173828 45.61328125 59.24853516 C45.515625 62.40869141 45.515625 62.40869141 44.515625 63.40869141 C34.91722643 64.37646382 34.91722643 64.37646382 30.890625 61.59619141 C28.36174066 57.57296632 28.32433037 54.133376 28.265625 49.47119141 C28.23984375 48.24529297 28.2140625 47.01939453 28.1875 45.75634766 C28.53971401 42.16292617 29.24538428 41.07921141 31.515625 38.40869141 C31.515625 37.41869141 31.515625 36.42869141 31.515625 35.40869141 C30.14491719 34.75379768 28.76879056 34.11024177 27.390625 33.47119141 C26.62492187 33.11154297 25.85921875 32.75189453 25.0703125 32.38134766 C13.78775504 28.08569505 1.42083248 30.05296714 -9.484375 34.40869141 C-10.474375 35.06869141 -11.464375 35.72869141 -12.484375 36.40869141 C-12.01 36.84181641 -11.535625 37.27494141 -11.046875 37.72119141 C-7.92995903 41.08746066 -8.29019809 44.85303458 -8.234375 49.22119141 C-8.20859375 50.42388672 -8.1828125 51.62658203 -8.15625 52.86572266 C-8.51449245 56.73388816 -9.45736312 59.11725707 -11.484375 62.40869141 C-14.65375045 63.99337913 -18.03167464 63.83407543 -21.484375 63.40869141 C-23.359375 61.90869141 -23.359375 61.90869141 -24.484375 60.40869141 C-25.144375 60.40869141 -25.804375 60.40869141 -26.484375 60.40869141 C-27.144375 61.39869141 -27.804375 62.38869141 -28.484375 63.40869141 C-30.4296875 63.70166016 -30.4296875 63.70166016 -32.609375 63.59619141 C-33.888125 63.53431641 -35.166875 63.47244141 -36.484375 63.40869141 C-37.474375 60.10869141 -38.464375 56.80869141 -39.484375 53.40869141 C-39.814375 56.70869141 -40.144375 60.00869141 -40.484375 63.40869141 C-42.464375 63.40869141 -44.444375 63.40869141 -46.484375 63.40869141 C-46.51354737 58.88787175 -46.5312318 54.36707653 -46.546875 49.84619141 C-46.55525391 48.569375 -46.56363281 47.29255859 -46.57226562 45.97705078 C-46.57548828 44.73632812 -46.57871094 43.49560547 -46.58203125 42.21728516 C-46.58726807 41.080896 -46.59250488 39.94450684 -46.59790039 38.77368164 C-46.47924405 35.25660573 -46.04218011 31.88097996 -45.484375 28.40869141 C-46.474375 28.40869141 -47.464375 28.40869141 -48.484375 28.40869141 C-48.484375 19.16869141 -48.484375 9.92869141 -48.484375 0.40869141 C-37.484375 0.40869141 -37.484375 0.40869141 -33.484375 3.40869141 C-32.164375 3.40869141 -30.844375 3.40869141 -29.484375 3.40869141 C-29.484375 2.41869141 -29.484375 1.42869141 -29.484375 0.40869141 C-26.844375 0.40869141 -24.204375 0.40869141 -21.484375 0.40869141 C-21.154375 4.69869141 -20.824375 8.98869141 -20.484375 13.40869141 C-19.824375 13.40869141 -19.164375 13.40869141 -18.484375 13.40869141 C-18.154375 9.11869141 -17.824375 4.82869141 -17.484375 0.40869141 C-11.53587418 -0.7066525 -6.02551705 -0.45277621 0 0 Z " fill="#6E060C" transform="translate(132.484375,81.59130859375)"/>
<path d="M0 0 C9.24 0 18.48 0 28 0 C28 18.15 28 36.3 28 55 C1.93 55 -24.14 55 -51 55 C-51 44.77 -51 34.54 -51 24 C-49.35 24 -47.7 24 -46 24 C-46 25.65 -46 27.3 -46 29 C-42.04 29 -38.08 29 -34 29 C-34 24.71 -34 20.42 -34 16 C-32.35 16 -30.7 16 -29 16 C-29 20.29 -29 24.58 -29 29 C-25.04 29 -21.08 29 -17 29 C-17 22.4 -17 15.8 -17 9 C-15.35 9 -13.7 9 -12 9 C-12 15.6 -12 22.2 -12 29 C-8.04 29 -4.08 29 0 29 C0 19.43 0 9.86 0 0 Z " fill="#570008" transform="translate(111,170)"/>
<path d="M0 0 C5.28 0 10.56 0 16 0 C16 1.65 16 3.3 16 5 C14.35 5 12.7 5 11 5 C11 10.28 11 15.56 11 21 C12.98 21.33 14.96 21.66 17 22 C17 14.74 17 7.48 17 0 C19.31 0 21.62 0 24 0 C24 9.24 24 18.48 24 28 C25.32 28.66 26.64 29.32 28 30 C28.99 30.66 29.98 31.32 31 32 C31.99 30.68 32.98 29.36 34 28 C33.4225 27.95875 32.845 27.9175 32.25 27.875 C29.62313414 26.85344106 28.24068705 25.61278721 26.765625 23.20703125 C24.83570316 17.64373615 24.70063156 10.29212184 26.87109375 4.79296875 C28.06403395 2.99700384 29.47781038 1.52218962 31 0 C37.94600907 -0.81036772 37.94600907 -0.81036772 40.60546875 1.234375 C44.10066393 5.37531006 45.14073409 8.71334532 45.125 14 C45.12886719 15.299375 45.12886719 15.299375 45.1328125 16.625 C45 19 45 19 44 22 C44.99 22 45.98 22 47 22 C47 14.74 47 7.48 47 0 C49.31 0 51.62 0 54 0 C55.73563661 4.45228522 57.05610147 8.28050734 58 13 C58.495 6.565 58.495 6.565 59 0 C60.65 0 62.3 0 64 0 C64 9.24 64 18.48 64 28 C61.421875 28.4125 58.84375 28.825 56.1875 29.25 C49.13323778 30.43767976 42.60568848 32.18937229 36 35 C38.97 35 41.94 35 45 35 C45.495 39.455 45.495 39.455 46 44 C46.66 44 47.32 44 48 44 C48.144375 42.700625 48.28875 41.40125 48.4375 40.0625 C48.875 36.125 48.875 36.125 50 35 C51.99958364 34.95919217 54.00045254 34.95745644 56 35 C55.54287762 36.54202616 55.08423653 38.08360214 54.625 39.625 C54.35171875 40.54796875 54.0784375 41.4709375 53.796875 42.421875 C53 45 53 45 51.875 47.875 C50.48936244 52.82370558 50.31448078 57.8855494 50 63 C48.02 63 46.04 63 44 63 C43.90203125 62.02160156 43.8040625 61.04320312 43.703125 60.03515625 C42.82941063 52.37509145 41.81816799 45.83933975 38 39 C37.505 39.99 37.505 39.99 37 41 C35.88625 40.938125 34.7725 40.87625 33.625 40.8125 C31.830625 40.9053125 31.830625 40.9053125 30 41 C27.19091613 45.2136258 27.30292051 49.04749342 28 54 C29.79191458 56.63516042 29.79191458 56.63516042 32 58 C32 55.03 32 52.06 32 49 C34.97 48.505 34.97 48.505 38 48 C38.02685412 50.31243792 38.04632841 52.6249627 38.0625 54.9375 C38.07410156 56.22527344 38.08570313 57.51304687 38.09765625 58.83984375 C38 62 38 62 37 63 C27.40160143 63.96777242 27.40160143 63.96777242 23.375 61.1875 C20.84611566 57.16427491 20.80870537 53.72468459 20.75 49.0625 C20.72421875 47.83660156 20.6984375 46.61070312 20.671875 45.34765625 C21.02408901 41.75423477 21.72975928 40.67052 24 38 C24 37.01 24 36.02 24 35 C19.03715966 32.62886517 14.54050113 30.56825653 9 30 C9 29.67 9 29.34 9 29 C7.35 28.67 5.7 28.34 4 28 C4 20.41 4 12.82 4 5 C2.68 5 1.36 5 0 5 C0 3.35 0 1.7 0 0 Z " fill="#70080F" transform="translate(140,82)"/>
<path d="M0 0 C-0.61277612 2.96175123 -1.25372522 4.38058783 -3 7 C-3.72119099 15.1558216 -3.04177864 23.08810776 -1 31 C-2.32 31 -3.64 31 -5 31 C-4.45859375 32.15628906 -4.45859375 32.15628906 -3.90625 33.3359375 C-3.4421875 34.33882812 -2.978125 35.34171875 -2.5 36.375 C-2.0359375 37.37273437 -1.571875 38.37046875 -1.09375 39.3984375 C0 42 0 42 0 44 C-1.98 44.495 -1.98 44.495 -4 45 C-3.71822906 45.60255112 -3.43645813 46.20510223 -3.14614868 46.82591248 C-0.37744839 53.14796234 0.61574494 58.41807256 0.6015625 65.28515625 C0.61013275 66.22628769 0.618703 67.16741913 0.62753296 68.1370697 C0.6389338 70.11095992 0.64008389 72.08493408 0.63134766 74.05883789 C0.62500619 77.05957097 0.67210816 80.05639055 0.72265625 83.05664062 C0.72720158 84.98697425 0.72860953 86.91731835 0.7265625 88.84765625 C0.74498199 89.73228043 0.76340149 90.6169046 0.78237915 91.52833557 C0.6846875 98.17796229 -1.31220912 103.1665868 -6 108 C-9.375 108.5625 -9.375 108.5625 -12 108 C-10.35 104.7 -8.7 101.4 -7 98 C-10.96 98 -14.92 98 -19 98 C-19 97.01 -19 96.02 -19 95 C-14.71 95 -10.42 95 -6 95 C-6.06919089 89.44943804 -6.15730848 83.89960694 -6.26245117 78.34960938 C-6.29556404 76.46427565 -6.32363782 74.57884604 -6.34643555 72.69335938 C-6.38023376 69.97224328 -6.4325603 67.25199512 -6.48828125 64.53125 C-6.49467117 63.69758911 -6.5010611 62.86392822 -6.50764465 62.00500488 C-6.64711774 56.36647452 -7.86856282 52.21498484 -10 47 C-10 46.01 -10 45.02 -10 44 C-8.68 44 -7.36 44 -6 44 C-6.54140625 42.84371094 -6.54140625 42.84371094 -7.09375 41.6640625 C-7.5578125 40.66117188 -8.021875 39.65828125 -8.5 38.625 C-8.9640625 37.62726563 -9.428125 36.62953125 -9.90625 35.6015625 C-11 33 -11 33 -11 31 C-9.68 31 -8.36 31 -7 31 C-7.10828125 30.16082031 -7.10828125 30.16082031 -7.21875 29.3046875 C-7.96179957 22.88556479 -7.98802982 16.65619505 -7.7421875 10.19921875 C-8.03013337 6.62607232 -8.85812351 4.84031448 -11 2 C-16.41829933 -0.70914967 -25.26374136 0.72527586 -31 2 C-31 1.34 -31 0.68 -31 0 C-33.31 0 -35.62 0 -38 0 C-37.97381592 0.81154541 -37.94763184 1.62309082 -37.9206543 2.45922852 C-37.81628848 6.16011965 -37.75154497 9.86070054 -37.6875 13.5625 C-37.6246582 15.47772461 -37.6246582 15.47772461 -37.56054688 17.43164062 C-37.42240895 28.06826102 -37.42240895 28.06826102 -40.45703125 32.40234375 C-41.29621094 33.25957031 -42.13539062 34.11679688 -43 35 C-43.33 35 -43.66 35 -44 35 C-45.37792563 27.73457395 -45.37792563 27.73457395 -43.54296875 24.16796875 C-41.75521489 20.49741588 -41.59848647 17.99848946 -41.625 13.9375 C-41.61726563 12.75027344 -41.60953125 11.56304687 -41.6015625 10.33984375 C-42.02863054 6.76000875 -42.95056217 4.91810818 -45 2 C-45.33 1.34 -45.66 0.68 -46 0 C-43.91780951 -0.81542431 -41.83420239 -1.62723189 -39.75 -2.4375 C-38.58984375 -2.88996094 -37.4296875 -3.34242187 -36.234375 -3.80859375 C-24.09332993 -8.28083861 -10.84978002 -6.9253915 0 0 Z " fill="#580008" transform="translate(165,117)"/>
<path d="M0 0 C13.53970754 2.70794151 23.49519855 15.5069293 30.84765625 26.42578125 C34.51649525 32.29890241 37.26906803 38.65124176 40 45 C40.20753906 44.41734375 40.41507813 43.8346875 40.62890625 43.234375 C47.29972391 25.48274308 58.48165758 10.23150057 75.12890625 0.79296875 C77 0 77 0 80 0 C80 4.29 80 8.58 80 13 C79.05640625 13.44988281 78.1128125 13.89976563 77.140625 14.36328125 C59.84090548 22.90783443 48.01155602 35.24361863 40 53 C38.14959152 50.22438728 36.55887118 47.41310188 34.9375 44.5 C26.3439267 29.84141508 15.46698348 20.05112482 0 13 C0 8.71 0 4.42 0 0 Z " fill="#570008" transform="translate(131,23)"/>
<path d="M0 0 C19.91893102 1.06234299 36.10963249 9.31565669 49.6875 23.8125 C53.9582801 28.7455936 58.36078709 33.99256083 61 40 C60.73992616 42.7228943 60.2175157 44.56496859 59 47 C58.03424524 56.25261807 58.03424524 56.25261807 60.8125 64.8125 C62.88353813 67.20963137 62.88353813 67.20963137 66 68 C65.01 69.98 65.01 69.98 64 72 C61 72 61 72 58.33911133 70.40332031 C56 68 56 68 55.4675293 65.01074219 C55.50273682 63.86766602 55.53794434 62.72458984 55.57421875 61.546875 C55.58130859 60.28746094 55.58839844 59.02804688 55.59570312 57.73046875 C55.65654776 55.09214188 55.72932523 52.45406127 55.81445312 49.81640625 C55.88543776 41.27665668 55.88543776 41.27665668 51.3671875 34.37109375 C49.94744225 33.20226193 48.49266304 32.07415151 47 31 C46.14450562 30.32396729 46.14450562 30.32396729 45.27172852 29.63427734 C31.65149103 19.26991523 16.66206745 16.27876119 0 15 C0 10.05 0 5.1 0 0 Z " fill="#580007" transform="translate(108,42)"/>
<path d="M0 0 C5.28 0 10.56 0 16 0 C16 16.17 16 32.34 16 49 C10.72 49 5.44 49 0 49 C0 32.83 0 16.66 0 0 Z " fill="#73000B" transform="translate(117,176)"/>
<path d="M0 0 C0.99 0.99 1.98 1.98 3 3 C-1.95 3 -6.9 3 -12 3 C-12.33 3.99 -12.66 4.98 -13 6 C-13 5.01 -13 4.02 -13 3 C-20.59 3 -28.18 3 -36 3 C-36 5.97 -36 8.94 -36 12 C-36.33 13.32 -36.66 14.64 -37 16 C-37.66 16 -38.32 16 -39 16 C-40.00496852 12.98509443 -40.10335303 10.95818308 -40.0625 7.8125 C-40.05347656 6.91144531 -40.04445313 6.01039062 -40.03515625 5.08203125 C-40.02355469 4.39496094 -40.01195313 3.70789063 -40 3 C-42.64 3 -45.28 3 -48 3 C-48 3.99 -48 4.98 -48 6 C-49.75 6.6875 -49.75 6.6875 -52 7 C-54.125 5.875 -54.125 5.875 -56 4 C-56.390625 1.30078125 -56.390625 1.30078125 -56.25 -1.6875 C-56.21390625 -2.68136719 -56.1778125 -3.67523438 -56.140625 -4.69921875 C-56.09421875 -5.45847656 -56.0478125 -6.21773438 -56 -7 C-35.86856265 -12.97540896 -18.06643279 -10.45951372 0 0 Z " fill="#570007" transform="translate(151,79)"/>
<path d="M0 0 C0.80179688 0.00451172 1.60359375 0.00902344 2.4296875 0.01367188 C4.41149006 0.02546832 6.39325433 0.04340395 8.375 0.0625 C8.705 3.0325 9.035 6.0025 9.375 9.0625 C10.035 9.0625 10.695 9.0625 11.375 9.0625 C11.519375 7.763125 11.66375 6.46375 11.8125 5.125 C12.25 1.1875 12.25 1.1875 13.375 0.0625 C15.37458364 0.02169217 17.37545254 0.01995644 19.375 0.0625 C18.91787762 1.60452616 18.45923653 3.14610214 18 4.6875 C17.72671875 5.61046875 17.4534375 6.5334375 17.171875 7.484375 C16.375 10.0625 16.375 10.0625 15.25 12.9375 C13.86436244 17.88620558 13.68948078 22.9480494 13.375 28.0625 C11.395 28.0625 9.415 28.0625 7.375 28.0625 C7.27703125 27.08410156 7.1790625 26.10570312 7.078125 25.09765625 C6.20441063 17.43759145 5.19316799 10.90183975 1.375 4.0625 C1.045 4.7225 0.715 5.3825 0.375 6.0625 C-0.73875 6.000625 -1.8525 5.93875 -3 5.875 C-4.794375 5.9678125 -4.794375 5.9678125 -6.625 6.0625 C-9.43408387 10.2761258 -9.32207949 14.10999342 -8.625 19.0625 C-6.83308542 21.69766042 -6.83308542 21.69766042 -4.625 23.0625 C-4.625 20.0925 -4.625 17.1225 -4.625 14.0625 C-2.645 13.7325 -0.665 13.4025 1.375 13.0625 C1.40185412 15.37493792 1.42132841 17.6874627 1.4375 20 C1.44910156 21.28777344 1.46070313 22.57554687 1.47265625 23.90234375 C1.375 27.0625 1.375 27.0625 0.375 28.0625 C-9.22339857 29.03027242 -9.22339857 29.03027242 -13.25 26.25 C-16.84012848 20.53843197 -16.31087792 13.56342988 -15.625 7.0625 C-12.25848776 -0.07249608 -7.08619447 -0.07477316 0 0 Z " fill="#F9F5F5" transform="translate(176.625,116.9375)"/>
<path d="M0 0 C0 4.62 0 9.24 0 14 C-1.11117187 14.24234375 -2.22234375 14.4846875 -3.3671875 14.734375 C-21.47449873 18.76908986 -34.81937842 25.62323822 -48 39 C-48.99 38.67 -49.98 38.34 -51 38 C-46.25329641 24.59056236 -32.39914762 12.33049649 -20 6 C-6.42562674 0 -6.42562674 0 0 0 Z " fill="#570008" transform="translate(225,43)"/>
<path d="M0 0 C2.64 0 5.28 0 8 0 C8.33 4.29 8.66 8.58 9 13 C9.66 13 10.32 13 11 13 C11.33 8.71 11.66 4.42 12 0 C14.64 0 17.28 0 20 0 C20.72492332 9.35927791 21.14256667 18.60644064 21 28 C19.02 28 17.04 28 15 28 C14.67 25.36 14.34 22.72 14 20 C13.67 22.64 13.34 25.28 13 28 C11.02 28 9.04 28 7 28 C6.67 26.35 6.34 24.7 6 23 C5.01 25.475 5.01 25.475 4 28 C2.35 28 0.7 28 -1 28 C-1.1170409 18.59771406 -0.88495497 9.37104106 0 0 Z " fill="#F2EDEE" transform="translate(103,82)"/>
<path d="M0 0 C2.5500198 0.01831253 3.81638449 0.10411192 5.85546875 1.671875 C9.95660332 6.53069719 10.58777507 10.67748019 10.54296875 16.7890625 C10.09760163 20.81518125 8.60091462 24.15136752 6.25 27.4375 C3.04512031 29.03993984 -0.28309837 29.06909396 -3.75 28.4375 C-8.24809528 24.05474049 -8.9396402 20.81755729 -9.0625 14.6875 C-9.03322453 7.55160348 -8.07494444 0.94207685 0 0 Z " fill="#F7F3F3" transform="translate(174.75,81.5625)"/>
<path d="M0 0 C4.31902671 0.35991889 5.77034973 1.24521296 8.75 4.3125 C9.89330513 7.74241538 9.95381651 10.5111416 10 14.125 C10.02578125 15.32769531 10.0515625 16.53039062 10.078125 17.76953125 C9.71988255 21.63769675 8.77701188 24.02106566 6.75 27.3125 C3.48474833 28.94512584 0.26700235 28.95806831 -3.25 28.3125 C-6.32192025 26.20055483 -7.0197156 25.66318241 -8.25 22.3125 C-9.06785013 15.7769366 -9.65029054 9.73042742 -6.27734375 3.90625 C-3.48611937 0.33520379 -3.48611937 0.33520379 0 0 Z " fill="#FAF8F8" transform="translate(114.25,116.6875)"/>
<path d="M0 0 C3.24695848 2.33114968 4.29057472 4.16114733 5 8 C5.14230141 10.14273084 5.22021164 12.29025577 5.25 14.4375 C5.27578125 15.54996094 5.3015625 16.66242188 5.328125 17.80859375 C4.86609395 22.30239572 3.14801322 24.85198678 0 28 C-7.07874016 28.68503937 -7.07874016 28.68503937 -10.4375 26.1875 C-14.52474508 20.46535689 -13.62102584 12.71574453 -13 6 C-10.70304749 -0.37565323 -6.0479819 -0.95999713 0 0 Z " fill="#FAF8F8" transform="translate(76,82)"/>
<path d="M0 0 C3.33761045 2.15090451 4.73470933 3.20412799 6 7 C6.14648082 9.26763574 6.2209626 11.54032366 6.25 13.8125 C6.27578125 15.01519531 6.3015625 16.21789062 6.328125 17.45703125 C5.96988255 21.32519675 5.02701188 23.70856566 3 27 C-0.19491759 28.59745879 -3.53209389 28.50816842 -7 28 C-9.96858157 25.79259319 -10.82865791 24.51402627 -12 21 C-13.01734358 7.5744003 -13.01734358 7.5744003 -10.125 3.1875 C-6.82233621 -0.21230096 -4.68601439 -0.45941318 0 0 Z " fill="#FAF8F8" transform="translate(152,117)"/>
<path d="M0 0 C-0.61277612 2.96175123 -1.25372522 4.38058783 -3 7 C-3.45915507 9.96842658 -3.45915507 9.96842658 -3.625 13.1875 C-3.69976562 14.27417969 -3.77453125 15.36085937 -3.8515625 16.48046875 C-3.90054688 17.31191406 -3.94953125 18.14335937 -4 19 C-4.66 19 -5.32 19 -6 19 C-6 20.32 -6 21.64 -6 23 C-6.66 23 -7.32 23 -8 23 C-7.96519531 21.90300781 -7.93039063 20.80601562 -7.89453125 19.67578125 C-7.86638135 18.22136955 -7.83908248 16.7669412 -7.8125 15.3125 C-7.78736328 14.59126953 -7.76222656 13.87003906 -7.73632812 13.12695312 C-7.67347303 8.53853126 -8.13296248 5.63065526 -11 2 C-16.41829933 -0.70914967 -25.26374136 0.72527586 -31 2 C-31 1.34 -31 0.68 -31 0 C-33.31 0 -35.62 0 -38 0 C-37.97381592 0.81154541 -37.94763184 1.62309082 -37.9206543 2.45922852 C-37.81628848 6.16011965 -37.75154497 9.86070054 -37.6875 13.5625 C-37.6246582 15.47772461 -37.6246582 15.47772461 -37.56054688 17.43164062 C-37.42240895 28.06826102 -37.42240895 28.06826102 -40.45703125 32.40234375 C-41.29621094 33.25957031 -42.13539062 34.11679688 -43 35 C-43.33 35 -43.66 35 -44 35 C-45.37792563 27.73457395 -45.37792563 27.73457395 -43.54296875 24.16796875 C-41.75521489 20.49741588 -41.59848647 17.99848946 -41.625 13.9375 C-41.61726563 12.75027344 -41.60953125 11.56304687 -41.6015625 10.33984375 C-42.02863054 6.76000875 -42.95056217 4.91810818 -45 2 C-45.33 1.34 -45.66 0.68 -46 0 C-43.91780951 -0.81542431 -41.83420239 -1.62723189 -39.75 -2.4375 C-38.58984375 -2.88996094 -37.4296875 -3.34242187 -36.234375 -3.80859375 C-24.09332993 -8.28083861 -10.84978002 -6.9253915 0 0 Z " fill="#5B040B" transform="translate(165,117)"/>
<path d="M0 0 C7.26 0 14.52 0 22 0 C22 1.98 22 3.96 22 6 C16.72 6 11.44 6 6 6 C6 22.17 6 38.34 6 55 C4.02 55 2.04 55 0 55 C0 36.85 0 18.7 0 0 Z " fill="#580008" transform="translate(203,170)"/>
<path d="M0 0 C6.68351179 1.46642453 10.00337125 5.87005232 13.57421875 11.40625 C15.95149012 15.73092996 17.50902903 20.30782665 19 25 C19.21914062 24.2265625 19.43828125 23.453125 19.6640625 22.65625 C22.64201319 12.87501359 26.69037441 6.04336406 35 0 C35.66 0 36.32 0 37 0 C37.34423164 4.05428379 37.5210769 7.95622617 37 12 C34.375 14.3125 34.375 14.3125 31 16 C24.18365121 22.39868036 20.92678272 30.00834731 19 39 C18.67 39 18.34 39 18 39 C17.86464844 38.24976563 17.72929687 37.49953125 17.58984375 36.7265625 C15.95813601 28.96862272 13.52055283 22.81396804 8 17 C5.80205995 15.67327008 5.80205995 15.67327008 3.5625 14.625 C1.53515625 13.55859375 1.53515625 13.55859375 0 12 C-0.69293294 7.92297594 -0.47019027 4.09457363 0 0 Z " fill="#580008" transform="translate(152,16)"/>
<path d="M0 0 C2.31 0 4.62 0 7 0 C7.99 2.97 8.98 5.94 10 9 C10.33 6.03 10.66 3.06 11 0 C12.98 0 14.96 0 17 0 C17 9.24 17 18.48 17 28 C14.69 28 12.38 28 10 28 C9.01 24.7 8.02 21.4 7 18 C6.67 21.3 6.34 24.6 6 28 C4.02 28 2.04 28 0 28 C0 18.76 0 9.52 0 0 Z " fill="#F4EFF0" transform="translate(86,117)"/>
<path d="M0 0 C2.31 0 4.62 0 7 0 C8.73563661 4.45228522 10.05610147 8.28050734 11 13 C11.33 8.71 11.66 4.42 12 0 C13.65 0 15.3 0 17 0 C17 9.24 17 18.48 17 28 C14.69 28 12.38 28 10 28 C9.01 24.37 8.02 20.74 7 17 C6.67 20.63 6.34 24.26 6 28 C4.02 28 2.04 28 0 28 C0 18.76 0 9.52 0 0 Z " fill="#F5F1F2" transform="translate(187,82)"/>
<path d="M0 0 C2.31 0 4.62 0 7 0 C7.99 3.63 8.98 7.26 10 11 C10.33 7.37 10.66 3.74 11 0 C12.98 0 14.96 0 17 0 C17 9.24 17 18.48 17 28 C14.69 28 12.38 28 10 28 C8.68 23.38 7.36 18.76 6 14 C5.67 18.62 5.34 23.24 5 28 C3.35 28 1.7 28 0 28 C0 18.76 0 9.52 0 0 Z " fill="#F7F4F4" transform="translate(29,82)"/>
<path d="M0 0 C11 0 11 0 14.1875 1.5 C16.8812413 5.21550524 16.5041968 7.4622288 16 12 C15.01 13.485 15.01 13.485 14 15 C14.27954633 17.84881675 14.27954633 17.84881675 15 21 C15.33859959 23.33257494 15.6732039 25.66574212 16 28 C14.02 28 12.04 28 10 28 C9.01 24.7 8.02 21.4 7 18 C6.67 21.3 6.34 24.6 6 28 C4.02 28 2.04 28 0 28 C0 18.76 0 9.52 0 0 Z " fill="#F9F6F6" transform="translate(84,82)"/>
<path d="M0 0 C0 3.96 0 7.92 0 12 C-1.41152344 12.09087891 -1.41152344 12.09087891 -2.8515625 12.18359375 C-4.09679687 12.26738281 -5.34203125 12.35117188 -6.625 12.4375 C-7.85476562 12.51871094 -9.08453125 12.59992188 -10.3515625 12.68359375 C-13.9227 12.92921131 -13.9227 12.92921131 -17.0859375 13.59765625 C-20 14 -20 14 -26 13 C-26 18.28 -26 23.56 -26 29 C-28.11044382 25.83433427 -28.75552077 23.48802585 -29.625 19.8125 C-29.88539063 18.72582031 -30.14578125 17.63914062 -30.4140625 16.51953125 C-30.60742188 15.68808594 -30.80078125 14.85664062 -31 14 C-33.97 13.505 -33.97 13.505 -37 13 C-27.65638621 2.74859434 -13.29411505 -0.51131212 0 0 Z " fill="#5A040B" transform="translate(225,69)"/>
<path d="M0 0 C1.98 0 3.96 0 6 0 C6 3.3 6 6.6 6 10 C7.65 10 9.3 10 11 10 C11 6.7 11 3.4 11 0 C12.98 0 14.96 0 17 0 C17 8.91 17 17.82 17 27 C15.02 27 13.04 27 11 27 C11 23.04 11 19.08 11 15 C9.35 15 7.7 15 6 15 C6 18.96 6 22.92 6 27 C4.02 27 2.04 27 0 27 C0 18.09 0 9.18 0 0 Z " fill="#FDFCFC" transform="translate(66,118)"/>
<path d="M0 0 C2.64 0 5.28 0 8 0 C8.83802913 4.1032224 9.66961878 8.20772362 10.5 12.3125 C10.73847656 13.47974609 10.97695312 14.64699219 11.22265625 15.84960938 C11.44824219 16.96787109 11.67382812 18.08613281 11.90625 19.23828125 C12.11572266 20.26993408 12.32519531 21.30158691 12.54101562 22.36450195 C13 25 13 25 13 28 C10.69 28 8.38 28 6 28 C6 26.02 6 24.04 6 22 C4.35 22 2.7 22 1 22 C1 23.98 1 25.96 1 28 C-0.98 28 -2.96 28 -5 28 C-4.56468553 21.75548891 -3.64775058 15.64713373 -2.5 9.5 C-2.36940186 8.79359375 -2.23880371 8.0871875 -2.10424805 7.359375 C-1.12832851 2.25665702 -1.12832851 2.25665702 0 0 Z " fill="#ECE4E4" transform="translate(130,82)"/>
<path d="M0 0 C0 3.63 0 7.26 0 11 C-0.93005859 10.34644531 -0.93005859 10.34644531 -1.87890625 9.6796875 C-16.74255648 -0.31595501 -28.92169763 -3.25553557 -46.765625 -1.15625 C-49.98813469 -0.93089967 -52.83784719 -1.38131793 -56 -2 C-56 -2.33 -56 -2.66 -56 -3 C-55.3709375 -3.03738281 -54.741875 -3.07476562 -54.09375 -3.11328125 C-48.16199809 -3.56888268 -43.48835972 -4.7289546 -38 -7 C-25.21888715 -10.91636584 -10.92149346 -6.84907217 0 0 Z " fill="#580007" transform="translate(225,119)"/>
<path d="M0 0 C3.96 0 7.92 0 12 0 C12 7.59 12 15.18 12 23 C8.04 23 4.08 23 0 23 C0 15.41 0 7.82 0 0 Z " fill="#72000A" transform="translate(99,202)"/>
<path d="M0 0 C3.96 0 7.92 0 12 0 C12 7.59 12 15.18 12 23 C8.04 23 4.08 23 0 23 C0 15.41 0 7.82 0 0 Z " fill="#71000A" transform="translate(82,202)"/>
<path d="M0 0 C3.96 0 7.92 0 12 0 C12 7.59 12 15.18 12 23 C8.04 23 4.08 23 0 23 C0 15.41 0 7.82 0 0 Z " fill="#71000A" transform="translate(65,202)"/>
<path d="M0 0 C0 4.62 0 9.24 0 14 C-6.6 13.34 -13.2 12.68 -20 12 C-20 17.61 -20 23.22 -20 29 C-20.33 29 -20.66 29 -21 29 C-21 19.76 -21 10.52 -21 1 C-13.80277143 -0.02817551 -7.25373883 -0.06908323 0 0 Z " fill="#740711" transform="translate(225,81)"/>
<path d="M0 0 C1.134375 0.020625 2.26875 0.04125 3.4375 0.0625 C3.7675 3.0325 4.0975 6.0025 4.4375 9.0625 C5.0975 9.0625 5.7575 9.0625 6.4375 9.0625 C6.581875 7.763125 6.72625 6.46375 6.875 5.125 C7.3125 1.1875 7.3125 1.1875 8.4375 0.0625 C10.43708364 0.02169217 12.43795254 0.01995644 14.4375 0.0625 C13.98037762 1.60452616 13.52173653 3.14610214 13.0625 4.6875 C12.78921875 5.61046875 12.5159375 6.5334375 12.234375 7.484375 C11.4375 10.0625 11.4375 10.0625 10.3125 12.9375 C8.92686244 17.88620558 8.75198078 22.9480494 8.4375 28.0625 C6.4575 28.0625 4.4775 28.0625 2.4375 28.0625 C2.29054687 26.59490234 2.29054687 26.59490234 2.140625 25.09765625 C1.26658664 17.43475101 0.02429001 10.95658989 -3.5625 4.0625 C-3.8925 3.0725 -4.2225 2.0825 -4.5625 1.0625 C-3.5625 0.0625 -3.5625 0.0625 0 0 Z " fill="#F3EEEE" transform="translate(181.5625,116.9375)"/>
<path d="M0 0 C0.66 0 1.32 0 2 0 C1.67 8.25 1.34 16.5 1 25 C2.65 25 4.3 25 6 25 C1.11971831 28.93133803 1.11971831 28.93133803 -1.125 30.21875 C-3.86804476 32.82464252 -3.60322232 34.98136363 -3.75 38.6875 C-3.80671875 39.86699219 -3.8634375 41.04648438 -3.921875 42.26171875 C-3.94765625 43.16535156 -3.9734375 44.06898438 -4 45 C-5.57554035 42.11371599 -6.46276373 39.46657616 -7.125 36.25 C-7.29257813 35.45078125 -7.46015625 34.6515625 -7.6328125 33.828125 C-7.81457031 32.92320313 -7.81457031 32.92320313 -8 32 C-9.98 32 -11.96 32 -14 32 C-14 29.69 -14 27.38 -14 25 C-13.01 25 -12.02 25 -11 25 C-11 21.37 -11 17.74 -11 14 C-10.34 14.33 -9.68 14.66 -9 15 C-8.3671875 17.28515625 -8.3671875 17.28515625 -7.875 20.0625 C-7.70742187 20.98160156 -7.53984375 21.90070313 -7.3671875 22.84765625 C-7.24601562 23.55792969 -7.12484375 24.26820312 -7 25 C-5.02 25 -3.04 25 -1 25 C-1.22816406 24.32453125 -1.45632812 23.6490625 -1.69140625 22.953125 C-1.97886719 22.06109375 -2.26632813 21.1690625 -2.5625 20.25 C-2.99755859 18.92742187 -2.99755859 18.92742187 -3.44140625 17.578125 C-4.03927012 14.81875329 -3.8612955 13.63546107 -3 11 C-2.48565183 8.38405733 -1.99108567 5.76493368 -1.5 3.14453125 C-1 1 -1 1 0 0 Z " fill="#5A070C" transform="translate(101,85)"/>
<path d="M0 0 C3.96 0 7.92 0 12 0 C12 1.32 12 2.64 12 4 C10.02 4 8.04 4 6 4 C6 6.31 6 8.62 6 11 C7.65 11 9.3 11 11 11 C11 12.32 11 13.64 11 15 C9.35 15 7.7 15 6 15 C6 17.31 6 19.62 6 22 C8.31 22 10.62 22 13 22 C13 23.65 13 25.3 13 27 C8.71 27 4.42 27 0 27 C0 18.09 0 9.18 0 0 Z " fill="#FAF8F8" transform="translate(36,118)"/>
<path d="M0 0 C5.28 0 10.56 0 16 0 C16 1.65 16 3.3 16 5 C14.35 5 12.7 5 11 5 C11 12.59 11 20.18 11 28 C8.69 28 6.38 28 4 28 C4 20.41 4 12.82 4 5 C2.68 5 1.36 5 0 5 C0 3.35 0 1.7 0 0 Z " fill="#EEE7E8" transform="translate(140,82)"/>
<path d="M0 0 C4.29 0 8.58 0 13 0 C13 1.65 13 3.3 13 5 C10.69 5 8.38 5 6 5 C6 7.31 6 9.62 6 12 C7.98 12 9.96 12 12 12 C12 13.65 12 15.3 12 17 C10.02 17 8.04 17 6 17 C6 20.63 6 24.26 6 28 C4.02 28 2.04 28 0 28 C0 18.76 0 9.52 0 0 Z " fill="#F8F5F5" transform="translate(49,82)"/>
<path d="M0 0 C8.89845694 -1.02674503 15.24747574 2.91669055 22.546875 7.65234375 C26.42756908 10.79680686 27.84933524 12.80318721 28.484375 17.84765625 C28.5781569 21.59229692 28.34944655 25.27257014 28 29 C25.9471309 26.33487169 24.13629236 23.61338758 22.375 20.75 C16.6395855 12.17513152 9.80005505 7.10982958 0 4 C0 2.68 0 1.36 0 0 Z " fill="#580007" transform="translate(193,125)"/>
<path d="M0 0 C0.66 0.66 1.32 1.32 2 2 C1.67 2.99 1.34 3.98 1 5 C-0.98723268 5.70381157 -2.98777953 6.3711811 -5 7 C-6.29376578 9.58753156 -6.16832397 11.54958985 -6.1875 14.4375 C-6.20167969 15.40558594 -6.21585938 16.37367188 -6.23046875 17.37109375 C-6.19149451 20.23266727 -6.19149451 20.23266727 -4 23 C-1.41619823 23.25030977 -1.41619823 23.25030977 1 23 C1.33 24.65 1.66 26.3 2 28 C-3.101589 28.53492389 -6.74396356 28.82898405 -11.125 25.9375 C-14.61543259 20.78849306 -13.77306385 12.8688431 -13 7 C-10.0245396 0.71174503 -6.82385972 -0.49628071 0 0 Z " fill="#F9F6F6" transform="translate(63,117)"/>
<path d="M0 0 C5.28 0 10.56 0 16 0 C16 1.65 16 3.3 16 5 C14.35 5 12.7 5 11 5 C11 12.59 11 20.18 11 28 C9.02 28 7.04 28 5 28 C5 20.41 5 12.82 5 5 C3.35 5 1.7 5 0 5 C0 3.35 0 1.7 0 0 Z " fill="#F8F5F5" transform="translate(18,117)"/>
<path d="M0 0 C1.98 0 3.96 0 6 0 C6 7.26 6 14.52 6 22 C8.31 22 10.62 22 13 22 C13 23.65 13 25.3 13 27 C8.71 27 4.42 27 0 27 C0 18.09 0 9.18 0 0 Z " fill="#FAF8F8" transform="translate(127,118)"/>
<path d="M0 0 C2.31 0 4.62 0 7 0 C7 9.24 7 18.48 7 28 C4.69 28 2.38 28 0 28 C0 18.76 0 9.52 0 0 Z " fill="#EBE3E3" transform="translate(19,82)"/>
<path d="M0 0 C2.08737558 3.13106337 3.1348597 5.87220411 4.3125 9.4375 C4.70050781 10.57058594 5.08851563 11.70367187 5.48828125 12.87109375 C6 16 6 16 4.73046875 18.22265625 C4.15941406 18.80917969 3.58835938 19.39570313 3 20 C2.34 20.99 1.68 21.98 1 23 C1 19.04 1 15.08 1 11 C-1.31 11.33 -3.62 11.66 -6 12 C-6 14.97 -6 17.94 -6 21 C-10 19 -10 19 -11 17 C-11.203125 14.7578125 -11.203125 14.7578125 -11.25 12.125 C-11.27578125 11.26132813 -11.3015625 10.39765625 -11.328125 9.5078125 C-10.94108924 6.54975351 -9.95124005 5.20798216 -8 3 C-5.69 3.33 -3.38 3.66 -1 4 C-0.67 2.68 -0.34 1.36 0 0 Z " fill="#70050C" transform="translate(178,119)"/>
<path d="M0 0 C2.20805524 -0.0544452 4.41650554 -0.09299283 6.625 -0.125 C7.85476562 -0.14820312 9.08453125 -0.17140625 10.3515625 -0.1953125 C13.94316041 -0.0030428 16.66661175 0.69741444 20 2 C20 5.3 20 8.6 20 12 C19.31035156 11.79503906 18.62070313 11.59007813 17.91015625 11.37890625 C11.9050281 9.65727143 6.22590949 8.51032045 0 8 C0 5.36 0 2.72 0 0 Z " fill="#570007" transform="translate(205,93)"/>
<path d="M0 0 C1.98 0 3.96 0 6 0 C6 9.24 6 18.48 6 28 C4.02 28 2.04 28 0 28 C0 18.76 0 9.52 0 0 Z " fill="#FBFAFA" transform="translate(157,82)"/>
<path d="M0 0 C10.23 0 20.46 0 31 0 C30.67 1.65 30.34 3.3 30 5 C20.76 5 11.52 5 2 5 C1.34 3.35 0.68 1.7 0 0 Z " fill="#560008" transform="translate(109,161)"/>
<path d="M0 0 C7.92 0 15.84 0 24 0 C24 1.65 24 3.3 24 5 C16.74 5 9.48 5 2 5 C1.34 3.35 0.68 1.7 0 0 Z " fill="#560008" transform="translate(201,161)"/>
<path d="M0 0 C2.84614024 2.84614024 2.45579076 5.80369142 2.625 9.625 C2.66367187 10.33140625 2.70234375 11.0378125 2.7421875 11.765625 C2.83647724 13.50998524 2.91932891 15.25495691 3 17 C-0.06890187 18.53445094 -2.70094266 17.54984289 -6 17 C-6 14.69 -6 12.38 -6 10 C-4.35 10 -2.7 10 -1 10 C-1 8.68 -1 7.36 -1 6 C-2.65 6 -4.3 6 -6 6 C-5.67 4.35 -5.34 2.7 -5 1 C-2.625 0.375 -2.625 0.375 0 0 Z " fill="#71080D" transform="translate(48,123)"/>
<path d="M0 0 C1.79646436 0.92827339 3.58703557 1.86795838 5.375 2.8125 C6.37273437 3.33457031 7.37046875 3.85664063 8.3984375 4.39453125 C11 6 11 6 13 9 C13.1953125 11.69921875 13.1953125 11.69921875 13.125 14.6875 C13.10695312 15.68136719 13.08890625 16.67523438 13.0703125 17.69921875 C13.03550781 18.83810547 13.03550781 18.83810547 13 20 C12.46375 19.319375 11.9275 18.63875 11.375 17.9375 C10.199375 16.4834375 10.199375 16.4834375 9 15 C8.50628906 14.37609375 8.01257813 13.7521875 7.50390625 13.109375 C6.98699219 12.47515625 6.47007812 11.8409375 5.9375 11.1875 C5.45152344 10.58292969 4.96554688 9.97835937 4.46484375 9.35546875 C2.96563813 7.66041309 2.96563813 7.66041309 0 8 C0 5.36 0 2.72 0 0 Z " fill="#580006" transform="translate(190,135)"/>
<path d="M0 0 C0.33 0 0.66 0 1 0 C1 6.6 1 13.2 1 20 C-0.98 19.67 -2.96 19.34 -5 19 C-5 13.72 -5 8.44 -5 3 C-3.35 3 -1.7 3 0 3 C0 2.01 0 1.02 0 0 Z " fill="#700006" transform="translate(156,84)"/>
<path d="M0 0 C1.32 0.66 2.64 1.32 4 2 C4.05398987 4.27057377 4.09278742 6.54151288 4.125 8.8125 C4.14820312 10.07707031 4.17140625 11.34164062 4.1953125 12.64453125 C4 16 4 16 2 19 C1.01 18.67 0.02 18.34 -1 18 C-2.48520725 15.02958551 -2.1705822 12.30235553 -2.1875 9 C-2.20167969 7.741875 -2.21585937 6.48375 -2.23046875 5.1875 C-2 2 -2 2 0 0 Z " fill="#5A0C10" transform="translate(114,122)"/>
<path d="M0 0 C1.32 0 2.64 0 4 0 C5.41880263 2.83760526 5.1320472 5.27682975 5.125 8.4375 C5.12757812 9.59121094 5.13015625 10.74492188 5.1328125 11.93359375 C5 15 5 15 4 18 C2.68 18 1.36 18 0 18 C-1.48619895 15.02760209 -1.13177009 12.30380422 -1.125 9 C-1.12757812 7.741875 -1.13015625 6.48375 -1.1328125 5.1875 C-1 2 -1 2 0 0 Z " fill="#750F15" transform="translate(70,87)"/>
<path d="M0 0 C1.32 0.66 2.64 1.32 4 2 C4.05418326 4.08304538 4.09287551 6.16649768 4.125 8.25 C4.14820313 9.41015625 4.17140625 10.5703125 4.1953125 11.765625 C4.0103949 14.82786046 3.60823023 16.44202751 2 19 C1.01 18.67 0.02 18.34 -1 18 C-2.34832104 15.30335792 -2.16910682 13.13412479 -2.1875 10.125 C-2.20167969 9.07570312 -2.21585938 8.02640625 -2.23046875 6.9453125 C-2.00504937 4.06452929 -1.48964317 2.43759792 0 0 Z " fill="#69080E" transform="translate(148,122)"/>
<path d="M0 0 C0.99 0 1.98 0 3 0 C4.48619895 2.97239791 4.13177009 5.69619578 4.125 9 C4.12757813 10.258125 4.13015625 11.51625 4.1328125 12.8125 C4 16 4 16 3 18 C1.0625 17.625 1.0625 17.625 -1 17 C-2.35550385 14.2889923 -2.16917207 12.08660831 -2.1875 9.0625 C-2.20167969 8.00160156 -2.21585938 6.94070312 -2.23046875 5.84765625 C-2 3 -2 3 0 0 Z " fill="#630F12" transform="translate(174,87)"/>
<path d="M0 0 C0.99 0.33 1.98 0.66 3 1 C3 9.91 3 18.82 3 28 C4.98 28 6.96 28 9 28 C9 28.33 9 28.66 9 29 C2.25 29.125 2.25 29.125 0 28 C0 18.76 0 9.52 0 0 Z " fill="#6A0003" transform="translate(46,82)"/>
<path d="M0 0 C5.3592233 0.46601942 5.3592233 0.46601942 7.875 2.5625 C8.431875 3.2740625 8.431875 3.2740625 9 4 C8.01 5.485 8.01 5.485 7 7 C6.54084493 9.96842658 6.54084493 9.96842658 6.375 13.1875 C6.30023438 14.27417969 6.22546875 15.36085937 6.1484375 16.48046875 C6.09945312 17.31191406 6.05046875 18.14335937 6 19 C5.34 19 4.68 19 4 19 C4 20.32 4 21.64 4 23 C3.34 23 2.68 23 2 23 C2.03480469 21.91460937 2.06960937 20.82921875 2.10546875 19.7109375 C2.13362388 18.26564058 2.16092219 16.82032679 2.1875 15.375 C2.21263672 14.66214844 2.23777344 13.94929687 2.26367188 13.21484375 C2.33024446 8.37723584 1.55559453 5.25261662 -1 1 C-0.67 0.67 -0.34 0.34 0 0 Z " fill="#781A1E" transform="translate(155,117)"/>
<path d="M0 0 C0.66 0 1.32 0 2 0 C1.67 8.25 1.34 16.5 1 25 C0.34 25 -0.32 25 -1 25 C-1.53341184 23.42085985 -2.05125763 21.83645613 -2.5625 20.25 C-2.99755859 18.92742187 -2.99755859 18.92742187 -3.44140625 17.578125 C-4.03927012 14.81875329 -3.8612955 13.63546107 -3 11 C-2.48565183 8.38405733 -1.99108567 5.76493368 -1.5 3.14453125 C-1 1 -1 1 0 0 Z " fill="#6E0508" transform="translate(101,85)"/>
<path d="M0 0 C2.31 0 4.62 0 7 0 C7.33 5.94 7.66 11.88 8 18 C9.32 17.34 10.64 16.68 12 16 C12 14.35 12 12.7 12 11 C12.33 11 12.66 11 13 11 C13.13277344 11.91523438 13.26554688 12.83046875 13.40234375 13.7734375 C13.57894531 14.96195313 13.75554687 16.15046875 13.9375 17.375 C14.11152344 18.55835938 14.28554687 19.74171875 14.46484375 20.9609375 C14.83462786 23.90702381 14.83462786 23.90702381 16 26 C15.01 25.67 14.02 25.34 13 25 C13 24.34 13 23.68 13 23 C10.69 23 8.38 23 6 23 C6 15.74 6 8.48 6 1 C4.02 1 2.04 1 0 1 C0 0.67 0 0.34 0 0 Z " fill="#782529" transform="translate(127,117)"/>
<path d="M0 0 C2.31 0 4.62 0 7 0 C6.34 3.96 5.68 7.92 5 12 C3.68 12 2.36 12 1 12 C0.67 13.32 0.34 14.64 0 16 C0 10.72 0 5.44 0 0 Z " fill="#750E14" transform="translate(123,81)"/>
<path d="M0 0 C2.475 0.99 2.475 0.99 5 2 C5 5.61137513 4.07469918 6.74732191 2.0625 9.6875 C1.51722656 10.49574219 0.97195312 11.30398437 0.41015625 12.13671875 C-0.05519531 12.75160156 -0.52054688 13.36648437 -1 14 C-1.33 14 -1.66 14 -2 14 C-2 10.7 -2 7.4 -2 4 C-5.63 4 -9.26 4 -13 4 C-13 3.67 -13 3.34 -13 3 C-8.71 3 -4.42 3 0 3 C0 2.01 0 1.02 0 0 Z " fill="#590208" transform="translate(140,142)"/>
<path d="M0 0 C0 7.26 0 14.52 0 22 C-0.99 22 -1.98 22 -3 22 C-2.98839844 21.13117188 -2.97679687 20.26234375 -2.96484375 19.3671875 C-2.95582031 18.21476562 -2.94679687 17.06234375 -2.9375 15.875 C-2.92009766 14.16957031 -2.92009766 14.16957031 -2.90234375 12.4296875 C-2.91571125 9.00244995 -2.91571125 9.00244995 -3.58984375 5.6875 C-4 3 -4 3 -2.625 1.125 C-1 0 -1 0 0 0 Z " fill="#580002" transform="translate(187,82)"/>
<path d="M0 0 C2 2 2 2 2.1953125 4.6015625 C2.17210937 5.59929687 2.14890625 6.59703125 2.125 7.625 C2.10695313 8.62789062 2.08890625 9.63078125 2.0703125 10.6640625 C2.03550781 11.82035156 2.03550781 11.82035156 2 13 C0.5 11.75 0.5 11.75 -1 10 C-1 8.68 -1 7.36 -1 6 C-2.65 6 -4.3 6 -6 6 C-5.67 4.35 -5.34 2.7 -5 1 C-2.625 0.375 -2.625 0.375 0 0 Z " fill="#842B31" transform="translate(48,123)"/>
<path d="M0 0 C1.25 6.625 1.25 6.625 -1 10 C-1.99 9.67 -2.98 9.34 -4 9 C-4.6875 6.1875 -4.6875 6.1875 -5 3 C-3.41464922 0.73521317 -2.79754986 0 0 0 Z " fill="#771319" transform="translate(117,131)"/>
<path d="M0 0 C3.3 1.65 6.6 3.3 10 5 C9.34 6.32 8.68 7.64 8 9 C5 9 5 9 2.3125 7.3125 C1.549375 6.549375 0.78625 5.78625 0 5 C0 3.35 0 1.7 0 0 Z " fill="#5A0207" transform="translate(164,105)"/>
<path d="M0 0 C1.65 0 3.3 0 5 0 C5 2.64 5 5.28 5 8 C3.02 8.33 1.04 8.66 -1 9 C-0.67 6.03 -0.34 3.06 0 0 Z " fill="#740A10" transform="translate(131,104)"/>
<path d="M0 0 C0.66 0 1.32 0 2 0 C2.44455628 1.91039052 2.85473053 3.82880655 3.25 5.75 C3.59804687 7.35101563 3.59804687 7.35101563 3.953125 8.984375 C3.96859375 9.97953125 3.9840625 10.9746875 4 12 C2.68 13.32 1.36 14.64 0 16 C0 10.72 0 5.44 0 0 Z " fill="#4D0103" transform="translate(103,129)"/>
<path d="M0 0 C-0.1875 3.3125 -0.1875 3.3125 -1 7 C-3.5625 8.9375 -3.5625 8.9375 -6 10 C-6.29296875 3.9453125 -6.29296875 3.9453125 -6 2 C-3 0 -3 0 0 0 Z " fill="#570005" transform="translate(140,126)"/>
<path d="M0 0 C2.42130331 2.42130331 2.52840504 3.80111377 3.125 7.125 C3.29257812 8.03507812 3.46015625 8.94515625 3.6328125 9.8828125 C3.81457031 10.93082031 3.81457031 10.93082031 4 12 C3.34 12 2.68 12 2 12 C2 13.32 2 14.64 2 16 C1.34 16 0.68 16 0 16 C0 10.72 0 5.44 0 0 Z " fill="#8C4445" transform="translate(34,94)"/>
<path d="M0 0 C0.33 0 0.66 0 1 0 C1 1.65 1 3.3 1 5 C2.32 5 3.64 5 5 5 C5 7.31 5 9.62 5 12 C3.68 12 2.36 12 1 12 C0.63597631 10.56496445 0.28413409 9.12683494 -0.0625 7.6875 C-0.25972656 6.88699219 -0.45695313 6.08648437 -0.66015625 5.26171875 C-1 3 -1 3 0 0 Z " fill="#720B0F" transform="translate(139,82)"/>
<path d="M0 0 C0.33 0 0.66 0 1 0 C1 6.6 1 13.2 1 20 C-2.29442319 15.60743575 -2.33694049 15.10383034 -1.75 10 C-1.64171875 8.96875 -1.5334375 7.9375 -1.421875 6.875 C-1.07607569 4.51844173 -0.63880395 2.29088315 0 0 Z " fill="#580000" transform="translate(126,124)"/>
<path d="M0 0 C0.66 0 1.32 0 2 0 C2.19658808 1.41543415 2.38187546 2.83244031 2.5625 4.25 C2.66691406 5.03890625 2.77132812 5.8278125 2.87890625 6.640625 C3.00027349 9.00532874 2.69633257 10.7511037 2 13 C1.34 13 0.68 13 0 13 C-1.28571429 4.57142857 -1.28571429 4.57142857 0 0 Z " fill="#7E1F23" transform="translate(112,82)"/>
<path d="M0 0 C1.98 0.66 3.96 1.32 6 2 C6 3.65 6 5.3 6 7 C3.03 6.505 3.03 6.505 0 6 C0 4.02 0 2.04 0 0 Z " fill="#540004" transform="translate(151,97)"/>
<path d="M0 0 C1.65 0 3.3 0 5 0 C6.1577506 3.47325181 6.06866652 6.36067448 6 10 C5.67 10 5.34 10 5 10 C5 8.35 5 6.7 5 5 C2.69 5 0.38 5 -2 5 C-1.34 3.35 -0.68 1.7 0 0 Z " fill="#7D1E26" transform="translate(57,89)"/>
<path d="M0 0 C1.32 0.33 2.64 0.66 4 1 C3.67 3.31 3.34 5.62 3 8 C2.01 8 1.02 8 0 8 C0 5.36 0 2.72 0 0 Z " fill="#822D2F" transform="translate(90,87)"/>
<path d="M0 0 C0 3.63 0 7.26 0 11 C-0.66 11 -1.32 11 -2 11 C-2.66 8.03 -3.32 5.06 -4 2 C-1 0 -1 0 0 0 Z " fill="#5F1D1F" transform="translate(102,99)"/>
<path d="M0 0 C1.32 0 2.64 0 4 0 C3.34 2.97 2.68 5.94 2 9 C1.34 9 0.68 9 0 9 C0 6.03 0 3.06 0 0 Z " fill="#530406" transform="translate(124,93)"/>
<path d="M0 0 C0.33 0 0.66 0 1 0 C1 2.64 1 5.28 1 8 C-1.4375 7.1875 -1.4375 7.1875 -4 6 C-4.33 5.01 -4.66 4.02 -5 3 C-3.35 3 -1.7 3 0 3 C0 2.01 0 1.02 0 0 Z " fill="#530205" transform="translate(156,84)"/>
<path d="M0 0 C0.33 0 0.66 0 1 0 C1 3.96 1 7.92 1 12 C-0.81374398 8.37251204 -1.65409139 5.97794897 -2 2 C-1.34 1.34 -0.68 0.68 0 0 Z " fill="#710B0E" transform="translate(96,118)"/>
<path d="M0 0 C1.32 0 2.64 0 4 0 C4 2.31 4 4.62 4 7 C3.01 7 2.02 7 1 7 C0.67 4.69 0.34 2.38 0 0 Z " fill="#530002" transform="translate(140,94)"/>
<path d="M0 0 C2.61047801 1.305239 2.68066423 2.35826574 3.625 5.0625 C3.88539063 5.79597656 4.14578125 6.52945313 4.4140625 7.28515625 C4.60742188 7.85105469 4.80078125 8.41695312 5 9 C1.125 7.125 1.125 7.125 0 6 C-0.04080783 4.00041636 -0.04254356 1.99954746 0 0 Z " fill="#71090B" transform="translate(164,99)"/>
<path d="M0 0 C1.32 0.66 2.64 1.32 4 2 C3.67 3.32 3.34 4.64 3 6 C3 5.01 3 4.02 3 3 C2.01 3 1.02 3 0 3 C0 3.99 0 4.98 0 6 C-0.66 6 -1.32 6 -2 6 C-1.34 4.02 -0.68 2.04 0 0 Z " fill="#6C171A" transform="translate(148,122)"/>
<path d="M0 0 C0.66 1.32 1.32 2.64 2 4 C0.68 5.32 -0.64 6.64 -2 8 C-2.125 5.125 -2.125 5.125 -2 2 C-1.34 1.34 -0.68 0.68 0 0 Z " fill="#760C13" transform="translate(176,87)"/>
<path d="M0 0 C0.66 0 1.32 0 2 0 C2 3.3 2 6.6 2 10 C-0.13262124 6.80106814 -0.59021548 4.77001757 -1 1 C-0.67 0.67 -0.34 0.34 0 0 Z " fill="#8A3B3D" transform="translate(101,85)"/>
<path d="M0 0 C1.0625 1.875 1.0625 1.875 2 4 C1.67 4.66 1.34 5.32 1 6 C0.01 6 -0.98 6 -2 6 C-1.125 1.125 -1.125 1.125 0 0 Z " fill="#73080F" transform="translate(176,99)"/>
</svg>
