<?xml version="1.0" encoding="UTF-8"?>
<svg version="1.1" xmlns="http://www.w3.org/2000/svg" width="225" height="225">
<path d="M0 0 C74.25 0 148.5 0 225 0 C225 74.25 225 148.5 225 225 C150.75 225 76.5 225 0 225 C0 150.75 0 76.5 0 0 Z " fill="#FDFDFD" transform="translate(0,0)"/>
<path d="M0 0 C5.51622393 0.23820407 11.03495274 0.34092977 16.55487061 0.45623779 C27.32502801 0.70062144 38.08419597 1.09139162 48.84588623 1.57928467 C48.84588623 2.23928467 48.84588623 2.89928467 48.84588623 3.57928467 C49.44103027 3.84878433 50.03617432 4.118284 50.64935303 4.39595032 C52.84317243 5.57782267 54.24984364 6.74670845 55.99041748 8.51263428 C56.57782715 9.1034227 57.16523682 9.69421112 57.77044678 10.30290222 C58.3934668 10.93938187 59.01648682 11.57586151 59.65838623 12.23162842 C60.30912109 12.88756485 60.95985596 13.54350128 61.63031006 14.21931458 C63.7069796 16.31377427 65.77684129 18.41479469 67.84588623 20.51678467 C69.9157735 22.61433779 71.98711553 24.71039986 74.0614624 26.80354309 C75.35088402 28.10516728 76.63762302 29.40945584 77.92132568 30.71672058 C78.50873535 31.31066116 79.09614502 31.90460175 79.70135498 32.51654053 C80.21335449 33.03679306 80.725354 33.55704559 81.25286865 34.09306335 C83.00040151 35.72344121 84.93390246 37.14529684 86.84588623 38.57928467 C86.84588623 44.84928467 86.84588623 51.11928467 86.84588623 57.57928467 C73.64588623 57.57928467 60.44588623 57.57928467 46.84588623 57.57928467 C46.84588623 52.29928467 46.84588623 47.01928467 46.84588623 41.57928467 C15.82588623 41.57928467 -15.19411377 41.57928467 -47.15411377 41.57928467 C-47.15411377 42.89928467 -47.15411377 44.21928467 -47.15411377 45.57928467 C-50.99717288 49.21338312 -55.92731161 51.57509789 -60.77911377 53.57928467 C-63.85293991 54.85740481 -65.99467384 56.16353636 -68.40411377 58.45428467 C-73.15960734 62.88220267 -79.24205279 65.0722152 -85.15411377 67.57928467 C-81.26296726 70.98516117 -78.5691208 70.95780776 -73.57208252 70.81756592 C-70.81677133 70.54604091 -68.59909286 69.88327352 -66.15411377 68.57928467 C-67.35792825 71.07290038 -68.60840099 73.2607155 -70.15411377 75.57928467 C-61.65677116 75.0590392 -56.81792133 70.5863533 -51.15411377 64.57928467 C-49.15411377 65.95428467 -49.15411377 65.95428467 -47.15411377 68.57928467 C-46.68689686 71.94759262 -46.64993134 75.21416006 -47.15411377 78.57928467 C-47.81411377 79.23928467 -48.47411377 79.89928467 -49.15411377 80.57928467 C-49.66973877 80.24928467 -50.18536377 79.91928467 -50.71661377 79.57928467 C-54.2422088 78.13288671 -56.35439549 78.00932693 -60.15411377 78.57928467 C-67.03372186 82.57845871 -69.88908966 88.1732519 -72.15411377 95.57928467 C-75.115865 94.96650855 -76.5347016 94.32555945 -79.15411377 92.57928467 C-79.03036377 93.85803467 -78.90661377 95.13678467 -78.77911377 96.45428467 C-78.70950439 97.17358154 -78.63989502 97.89287842 -78.56817627 98.63397217 C-78.29036628 100.80596712 -78.29036628 100.80596712 -76.15411377 102.57928467 C-72.55732311 102.25601914 -72.55732311 102.25601914 -69.15411377 101.57928467 C-68.98395752 100.97600342 -68.81380127 100.37272217 -68.63848877 99.75115967 C-65.98012151 90.98420382 -65.98012151 90.98420382 -62.15411377 88.57928467 C-58.32541299 88.57928467 -56.67905884 89.12341132 -53.77911377 91.64178467 C-53.24286377 92.28115967 -52.70661377 92.92053467 -52.15411377 93.57928467 C-53.32973877 93.95053467 -54.50536377 94.32178467 -55.71661377 94.70428467 C-61.17202802 96.75854368 -65.4929825 99.90703002 -68.59161377 104.89178467 C-69.40855264 108.79493706 -69.30986063 112.60773961 -69.15411377 116.57928467 C-68.71712158 115.78264404 -68.71712158 115.78264404 -68.27130127 114.96990967 C-65.53495802 110.25445024 -63.19676116 107.04915278 -58.15411377 104.57928467 C-54.90411377 104.20428467 -54.90411377 104.20428467 -52.15411377 104.57928467 C-51.16411377 105.56928467 -51.16411377 105.56928467 -50.15411377 106.57928467 C-50.93786377 106.80615967 -51.72161377 107.03303467 -52.52911377 107.26678467 C-55.30103215 108.3319963 -55.30103215 108.3319963 -56.31036377 110.79803467 C-57.22755454 113.82136719 -57.35502718 116.24137826 -57.27911377 119.39178467 C-57.26106689 120.36760498 -57.24302002 121.34342529 -57.22442627 122.34881592 C-57.20122314 123.08487061 -57.17802002 123.82092529 -57.15411377 124.57928467 C-54.84411377 124.90928467 -52.53411377 125.23928467 -50.15411377 125.57928467 C-52.46661377 128.07928467 -52.46661377 128.07928467 -55.15411377 130.57928467 C-56.14411377 130.57928467 -57.13411377 130.57928467 -58.15411377 130.57928467 C-58.15411377 131.23928467 -58.15411377 131.89928467 -58.15411377 132.57928467 C-54.52411377 132.57928467 -50.89411377 132.57928467 -47.15411377 132.57928467 C-47.15411377 139.83928467 -47.15411377 147.09928467 -47.15411377 154.57928467 C-16.46411377 154.57928467 14.22588623 154.57928467 45.84588623 154.57928467 C45.84588623 149.29928467 45.84588623 144.01928467 45.84588623 138.57928467 C59.37588623 138.57928467 72.90588623 138.57928467 86.84588623 138.57928467 C86.84588623 158.57928467 86.84588623 158.57928467 83.67401123 162.50506592 C82.57669678 163.19463379 82.57669678 163.19463379 81.45721436 163.89813232 C78.00748613 166.11904001 75.37241065 168.88313849 72.51776123 171.80975342 C71.37793743 172.95443198 70.23730106 174.09830197 69.09588623 175.24139404 C67.9291568 176.41646193 66.76249069 177.5915927 65.59588623 178.76678467 C64.41383037 179.95386848 63.23154032 181.14071914 62.04901123 182.32733154 C59.88447722 184.4999695 57.72127613 186.67391457 55.55975342 188.84954834 C54.21638916 190.20076782 54.21638916 190.20076782 52.84588623 191.57928467 C52.30677612 192.275746 51.76766602 192.97220734 51.21221924 193.68977356 C47.81685723 196.4009618 44.45318846 196.35684793 40.27069092 196.54119873 C38.97166336 196.61917694 38.97166336 196.61917694 37.64639282 196.69873047 C28.48657375 197.21074932 19.31174296 197.43373497 10.14080811 197.63885498 C5.81900599 197.74471605 1.51559214 197.9374681 -2.79864502 198.21307373 C-40.99015657 200.59507323 -40.99015657 200.59507323 -55.05841064 188.54217529 C-62.18523855 182.03233183 -68.34647415 174.69224831 -74.29119873 167.10894775 C-77.5000852 163.05376812 -81.12174507 159.79304631 -85.15411377 156.57928467 C-87.1343854 154.94049852 -88.05525122 154.0834719 -88.556777 151.52575016 C-88.56959744 150.73292354 -88.58241789 149.94009691 -88.59562683 149.12324524 C-88.61709274 148.21090622 -88.63855865 147.2985672 -88.66067505 146.35858154 C-88.67277512 144.86016724 -88.67277512 144.86016724 -88.68511963 143.33148193 C-88.70483322 142.27742661 -88.72454681 141.22337128 -88.74485779 140.13737488 C-88.80410443 136.64014047 -88.83906177 133.14329365 -88.86895752 129.64569092 C-88.8811841 128.44983809 -88.89341068 127.25398525 -88.90600777 126.02189445 C-88.96862507 119.68630398 -89.01150576 113.3509088 -89.03961182 107.01507568 C-89.07272794 100.48735113 -89.17581221 93.96271721 -89.29512691 87.43608189 C-89.37381182 82.40433806 -89.39870345 77.37332161 -89.40945625 72.34101677 C-89.42401899 69.93643369 -89.45876434 67.53188061 -89.51457024 65.12790108 C-89.96667786 44.35241447 -89.96667786 44.35241447 -84.17707253 37.94271851 C-81.64063396 35.57450454 -78.99120144 33.58412484 -76.15411377 31.57928467 C-74.74225887 30.42814009 -73.34337119 29.26068655 -71.96490479 28.06976318 C-71.33448273 27.53827667 -70.70406067 27.00679016 -70.05453491 26.459198 C-67.71351395 24.14343945 -65.94454962 21.60341624 -64.04449463 18.91497803 C-47.12198505 -3.55725489 -26.20656178 -1.25344909 0 0 Z " fill="#720F16" transform="translate(113.15411376953125,7.42071533203125)"/>
<path d="M0 0 C3.41076462 2.11868673 5.69840373 4.09521119 7 8 C8.093125 8.721875 9.18625 9.44375 10.3125 10.1875 C15.51395843 13.71210222 17.77466657 18.95425111 19 25 C19.71224291 32.80727808 18.81372734 40.74829898 14.41015625 47.40234375 C12.69159082 50.56812217 12.6618797 52.67231592 12.75 56.25 C12.76546875 57.30703125 12.7809375 58.3640625 12.796875 59.453125 C12.71763365 61.933851 12.71763365 61.933851 14 63 C16.39397179 63.44876382 16.39397179 63.44876382 19 63 C20.94450751 61.11198419 20.94450751 61.11198419 22.5 58.625 C24.99202927 54.92222066 26.70274382 53.3392134 31 52 C31 51.34 31 50.68 31 50 C29.515 49.505 29.515 49.505 28 49 C28.99 48.01 28.99 48.01 30 47 C28.35 46.34 26.7 45.68 25 45 C26.32 44.34 27.64 43.68 29 43 C27.35 41.35 25.7 39.7 24 38 C24.99 37.67 25.98 37.34 27 37 C26.6390625 36.51789063 26.278125 36.03578125 25.90625 35.5390625 C25.4421875 34.90742187 24.978125 34.27578125 24.5 33.625 C23.80390625 32.68527344 23.80390625 32.68527344 23.09375 31.7265625 C22 30 22 30 22 28 C22.763125 28.309375 23.52625 28.61875 24.3125 28.9375 C26.18789677 29.67893593 28.08684652 30.36228217 30 31 C29.484375 30.21625 28.96875 29.4325 28.4375 28.625 C27.963125 27.75875 27.48875 26.8925 27 26 C27.33 25.34 27.66 24.68 28 24 C29.98 25.65 31.96 27.3 34 29 C34.495 28.505 34.495 28.505 35 28 C34.66226563 27.45859375 34.32453125 26.9171875 33.9765625 26.359375 C32.74727187 23.38940883 32.99718192 21.42367191 33.375 18.25 C33.48585938 17.26515625 33.59671875 16.2803125 33.7109375 15.265625 C33.80632812 14.51796875 33.90171875 13.7703125 34 13 C34.99 13.66 35.98 14.32 37 15 C37 15.66 37 16.32 37 17 C37.66 17 38.32 17 39 17 C39 14.36 39 11.72 39 9 C40.32 10.32 41.64 11.64 43 13 C43.33 10.69 43.66 8.38 44 6 C46 7.625 46 7.625 48 10 C48.25 13.25 48.25 13.25 48 16 C48.33 13.03 48.66 10.06 49 7 C50.7074998 8.28062485 52.37373596 9.61767557 54 11 C54 11.66 54 12.32 54 13 C56.61527381 10.63379989 58.26440562 8.057952 60 5 C60.103125 5.639375 60.20625 6.27875 60.3125 6.9375 C60.539375 7.618125 60.76625 8.29875 61 9 C61.99 9.33 62.98 9.66 64 10 C63.34 10.66 62.68 11.32 62 12 C62.16141654 14.19896211 62.16141654 14.19896211 62.8125 16.5625 C63.00457031 17.36816406 63.19664062 18.17382812 63.39453125 19.00390625 C63.82259087 20.97972846 63.82259087 20.97972846 65 22 C65.66 21.34 66.32 20.68 67 20 C67.99 21.98 67.99 21.98 69 24 C69.66 23.34 70.32 22.68 71 22 C72.875 22 72.875 22 75 23 C77.1875 26 77.1875 26 79 29 C80.96822886 30.96822886 84.34808709 30.66248381 87 31 C87.33 30.01 87.66 29.02 88 28 C93.48780488 28.48780488 93.48780488 28.48780488 95.8125 30.8125 C96.96605122 32.93746278 97.68091136 34.60683517 98 37 C97.67 37.66 97.34 38.32 97 39 C99.475 38.505 99.475 38.505 102 38 C102.33 38.66 102.66 39.32 103 40 C101.68 40 100.36 40 99 40 C99.33 40.99 99.66 41.98 100 43 C95.32790951 44.43023178 90.86896303 45.40380045 86 46 C85.67 44.35 85.34 42.7 85 41 C83.41531323 41.45363171 81.83230076 41.91311452 80.25 42.375 C79.36828125 42.63023438 78.4865625 42.88546875 77.578125 43.1484375 C75.23919428 43.9209934 73.16557438 44.83625676 71 46 C71 45.34 71 44.68 71 44 C70.34 44 69.68 44 69 44 C69 45.32 69 46.64 69 48 C79.94254429 50.94606962 92.00605833 51.27635153 102.984375 48.33984375 C105.28248087 47.95237241 106.7999365 48.29142099 109 49 C105.17819158 53.4008703 102.52628901 54.80805531 97 56 C97 56.66 97 57.32 97 58 C95.9275 58.0825 94.855 58.165 93.75 58.25 C89.67542358 59.06491528 88.43567909 59.72120123 86 63 C85.2127322 65.1381966 85.2127322 65.1381966 85 67 C85.66 67.33 86.32 67.66 87 68 C86.67 69.32 86.34 70.64 86 72 C86.54785156 72.10957031 87.09570312 72.21914062 87.66015625 72.33203125 C91.08870443 73.01774089 94.5172526 73.70345052 97.94580078 74.38916016 C98.62497559 74.52499512 99.30415039 74.66083008 100.00390625 74.80078125 C103.66927083 75.53385417 107.33463542 76.26692708 111 77 C110 79 110 79 107.5 79.9375 C106.675 80.288125 105.85 80.63875 105 81 C104.67 81.99 104.34 82.98 104 84 C100.78548731 85.60725635 97.56387464 85.05748185 94 85 C94 85.66 94 86.32 94 87 C88.71024759 88.55888761 83.28152019 88.22478262 77.8125 88.25 C76.71357422 88.270625 75.61464844 88.29125 74.48242188 88.3125 C67.69023333 88.34490162 62.28802325 87.52753876 56 85 C52.55160612 84.0804283 50.40025216 83.86658261 47 85 C47.061875 85.928125 47.12375 86.85625 47.1875 87.8125 C47 91 47 91 45.9375 92.9375 C42.73887696 94.6915836 40.43919826 93.88944782 37 93 C36.21625 92.34 35.4325 91.68 34.625 91 C30.95543959 88.20414445 27.50785619 88.19642075 23 88 C22.67 88.66 22.34 89.32 22 90 C21.67 89.34 21.34 88.68 21 88 C20.01 88.99 19.02 89.98 18 91 C17.34 89.68 16.68 88.36 16 87 C15.38125 87.969375 14.7625 88.93875 14.125 89.9375 C12 93 12 93 10 94 C10 92.02 10 90.04 10 88 C9.01 88.495 9.01 88.495 8 89 C8 87.68 8 86.36 8 85 C7.01 85.33 6.02 85.66 5 86 C5.33 84.35 5.66 82.7 6 81 C1.88436032 82.8598032 1.88436032 82.8598032 -1.625 85.625 C-3.3168346 87.3168346 -4.67661054 87.59941561 -7 88 C-6.01 86.35 -5.02 84.7 -4 83 C-4.886875 83.495 -5.77375 83.99 -6.6875 84.5 C-9.87586238 85.94378674 -11.58187546 86.30159922 -15 86 C-14.06725891 84.87105124 -13.12859878 83.74699124 -12.1875 82.625 C-11.66542969 81.99851562 -11.14335938 81.37203125 -10.60546875 80.7265625 C-8.38963231 78.34359485 -6.58561721 77.11154613 -3.375 76.5 C-2.59125 76.335 -1.8075 76.17 -1 76 C-0.67 75.34 -0.34 74.68 0 74 C-1.010625 74.474375 -2.02125 74.94875 -3.0625 75.4375 C-6.65922205 76.9936328 -10.09268709 77.6012946 -14 78 C-9.85714286 70.42857143 -9.85714286 70.42857143 -7 68 C-11.86115742 68.41667064 -13.76394421 70.50156131 -17 74 C-17.99 74.495 -17.99 74.495 -19 75 C-17.83042394 66.83042394 -17.83042394 66.83042394 -14.5625 63.5625 C-13.716875 63.046875 -12.87125 62.53125 -12 62 C-11.01 61.34 -10.02 60.68 -9 60 C-13.17054391 57.91472804 -18.45756685 58.54515022 -23 59 C-26.12815187 60.66256423 -26.12815187 60.66256423 -28 63 C-28.99 63.99 -28.99 63.99 -30 65 C-29.54572404 60.11653339 -28.42657167 57.52175421 -25 54 C-20.77591683 50.74142155 -16.13665998 49.95123333 -11 49 C-14.29298755 45.54236307 -17.16518528 42.58594986 -22.125 42.3125 C-26.67528118 43.11980795 -28.15643973 44.44554967 -31 48 C-30.54572404 43.11653339 -29.42657167 40.52175421 -26 37 C-22.90431048 34.48998147 -21.5251038 33.99062315 -17.5 34.0625 C-13.75516718 35.06558022 -11.80067774 36.3690603 -9 39 C-8.66104344 37.27192682 -8.32908475 35.54248026 -8 33.8125 C-7.7215625 32.36810547 -7.7215625 32.36810547 -7.4375 30.89453125 C-7.02435404 28.16112806 -6.73604831 25.75263908 -7 23 C-9.39859044 20.66369252 -9.39859044 20.66369252 -12 19 C-11.67 17.68 -11.34 16.36 -11 15 C-10.01 15.66 -9.02 16.32 -8 17 C-5.37468476 17.16713569 -5.37468476 17.16713569 -3 17 C-2.34 15.68 -1.68 14.36 -1 13 C-2.85625 12.9690625 -2.85625 12.9690625 -4.75 12.9375 C-5.44609375 12.92589844 -6.1421875 12.91429688 -6.859375 12.90234375 C-9.17130798 13.00781515 -10.84850203 13.12042969 -13 14 C-14.83172588 16.16353016 -14.83172588 16.16353016 -16.4375 18.8125 C-20.00612948 24.15019366 -22.60266345 27.40066586 -29 29 C-27.68 26.36 -26.36 23.72 -25 21 C-28.7520344 21.75801375 -28.7520344 21.75801375 -30.921875 23.0546875 C-33.50194539 24.22832854 -35.4297347 24.19921751 -38.25 24.125 C-39.14203125 24.10695313 -40.0340625 24.08890625 -40.953125 24.0703125 C-41.62859375 24.04710938 -42.3040625 24.02390625 -43 24 C-43 23.34 -43 22.68 -43 22 C-42.31035156 21.64808594 -41.62070312 21.29617187 -40.91015625 20.93359375 C-36.03889341 18.37434318 -31.52974946 15.7865626 -27.25 12.3125 C-23.66794031 9.40881267 -20.29635486 7.73361687 -16 6 C-14.30261254 4.95336811 -12.61573429 3.88957574 -10.9375 2.8125 C-4.45101725 -1.11275431 -4.45101725 -1.11275431 0 0 Z " fill="#3D0308" transform="translate(75,53)"/>
<path d="M0 0 C2.5 1.375 2.5 1.375 5 4 C5.56163633 7.38072353 5.55966495 10.61844546 5 14 C4.34 14.66 3.68 15.32 3 16 C2.484375 15.67 1.96875 15.34 1.4375 15 C-2.08809503 13.55360204 -4.20028172 13.43004226 -8 14 C-14.87960809 17.99917405 -17.73497589 23.59396723 -20 31 C-22.96175123 30.38722388 -24.38058783 29.74627478 -27 28 C-26.87625 29.27875 -26.7525 30.5575 -26.625 31.875 C-26.55539063 32.59429687 -26.48578125 33.31359375 -26.4140625 34.0546875 C-26.13625251 36.22668245 -26.13625251 36.22668245 -24 38 C-20.40320934 37.67673447 -20.40320934 37.67673447 -17 37 C-16.82984375 36.39671875 -16.6596875 35.7934375 -16.484375 35.171875 C-13.82600774 26.40491915 -13.82600774 26.40491915 -10 24 C-6.17129922 24 -4.52494507 24.54412665 -1.625 27.0625 C-1.08875 27.701875 -0.5525 28.34125 0 29 C-1.175625 29.37125 -2.35125 29.7425 -3.5625 30.125 C-9.01791425 32.17925901 -13.33886873 35.32774535 -16.4375 40.3125 C-17.25443887 44.21565239 -17.15574686 48.02845495 -17 52 C-16.70867188 51.46890625 -16.41734375 50.9378125 -16.1171875 50.390625 C-13.38084425 45.67516557 -11.04264739 42.46986811 -6 40 C-2.75 39.625 -2.75 39.625 0 40 C0.66 40.66 1.32 41.32 2 42 C1.21625 42.226875 0.4325 42.45375 -0.375 42.6875 C-3.14691838 43.75271164 -3.14691838 43.75271164 -4.15625 46.21875 C-5.07344077 49.24208252 -5.20091341 51.66209359 -5.125 54.8125 C-5.09792969 56.27623047 -5.09792969 56.27623047 -5.0703125 57.76953125 C-5.04710938 58.50558594 -5.02390625 59.24164063 -5 60 C-1.535 60.495 -1.535 60.495 2 61 C-0.3125 63.5 -0.3125 63.5 -3 66 C-3.99 66 -4.98 66 -6 66 C-6 66.66 -6 67.32 -6 68 C-4.02 68.33 -2.04 68.66 0 69 C0 77.91 0 86.82 0 96 C34.32 96 68.64 96 104 96 C104 90.39 104 84.78 104 79 C113.9 79 123.8 79 134 79 C134 91 134 91 132.28759766 94.10644531 C131.11269775 95.20617676 131.11269775 95.20617676 129.9140625 96.328125 C128.64175781 97.55595703 128.64175781 97.55595703 127.34375 98.80859375 C125.99796875 100.01708984 125.99796875 100.01708984 124.625 101.25 C123.73554688 102.10207031 122.84609375 102.95414062 121.9296875 103.83203125 C115.39540279 110 115.39540279 110 113 110 C112.67 110.99 112.34 111.98 112 113 C110.328125 114.6484375 110.328125 114.6484375 108.25 116.375 C105.8789947 118.35687084 103.86312882 120.16731913 101.89826965 122.5692749 C98.15325065 125.710153 95.10843521 125.77287623 90.42456055 125.80566406 C89.57170975 125.83048859 88.71885895 125.85531311 87.84016418 125.88088989 C85.02214159 125.95381697 82.2055295 125.98798458 79.38671875 126.015625 C78.41834391 126.02976189 77.44996906 126.04389877 76.45224953 126.05846405 C71.31795083 126.13339071 66.1843518 126.1795429 61.04956055 126.20117188 C55.78306241 126.22845681 50.52312342 126.34824527 45.25866985 126.49103165 C41.17884346 126.58495672 37.10053922 126.61023209 33.01972389 126.61785126 C31.08161721 126.6328361 29.14351804 126.67247955 27.20648766 126.73877716 C17.42835365 127.04929709 10.00760925 126.77570973 2.47852707 120.01684093 C-0.18186904 117.37511521 -2.71611628 114.63528506 -5.22801399 111.85273361 C-7.77950817 109.18497044 -10.55841021 107.1517076 -13.54321289 104.97827148 C-22.23664345 98.13637795 -29.78270786 91.42889818 -31.56244469 80.07018471 C-32.73008786 69.36358704 -32.17927585 58.59870926 -31.57928467 47.87219238 C-31.34051253 43.14053649 -31.23824329 38.40591166 -31.12304688 33.66992188 C-30.87908472 24.43900011 -30.48869282 15.22098738 -30 6 C-29.26394531 6.02320312 -28.52789062 6.04640625 -27.76953125 6.0703125 C-26.30580078 6.09738281 -26.30580078 6.09738281 -24.8125 6.125 C-23.36810547 6.15980469 -23.36810547 6.15980469 -21.89453125 6.1953125 C-18.87187222 5.9913544 -16.73230015 5.26874632 -14 4 C-15.20381448 6.49361571 -16.45428722 8.68143083 -18 11 C-12.02807646 10.63437203 -8.46309193 8.98805987 -4 5 C-1.6296054 2.35367738 -1.6296054 2.35367738 0 0 Z " fill="#010000" transform="translate(61,72)"/>
<path d="M0 0 C1.98723115 -0.00726301 3.97445609 -0.01645426 5.96166992 -0.02748108 C10.11772796 -0.04227867 14.27273313 -0.03138091 18.42871094 -0.00268555 C23.7423065 0.03160425 29.05296497 -0.00176087 34.36631775 -0.05489254 C38.46728899 -0.08777032 42.56756403 -0.08279528 46.66860962 -0.06674385 C48.62694317 -0.06393269 50.58533408 -0.07317868 52.54354858 -0.09495354 C67.80836379 -0.23508453 67.80836379 -0.23508453 72.70117188 2.69436646 C74.69653602 4.68032875 76.21440597 6.65782066 77.8125 8.96484375 C79.07327919 10.13951987 80.36233048 11.2851953 81.6875 12.38671875 C86.50652547 16.55031903 91.19721082 20.82641979 95.8125 25.21484375 C96.68261719 25.99730469 97.55273438 26.77976562 98.44921875 27.5859375 C99.68091797 28.77123047 99.68091797 28.77123047 100.9375 29.98046875 C101.68257812 30.67430664 102.42765625 31.36814453 103.1953125 32.08300781 C104.8125 34.96484375 104.8125 34.96484375 104.8125 45.96484375 C94.9125 45.96484375 85.0125 45.96484375 74.8125 45.96484375 C74.8125 40.68484375 74.8125 35.40484375 74.8125 29.96484375 C40.1625 29.96484375 5.5125 29.96484375 -30.1875 29.96484375 C-30.1875 33.92484375 -30.1875 37.88484375 -30.1875 41.96484375 C-32.93998617 44.71732992 -34.01499572 45.46697935 -37.4375 46.77734375 C-41.47385561 48.47926429 -44.22385638 50.55993584 -47.421875 53.50390625 C-50.62923815 56.15778638 -54.92622858 58.96484375 -59.1875 58.96484375 C-59.42181575 55.61187549 -59.56252583 52.26102458 -59.6875 48.90234375 C-59.75453125 47.95939453 -59.8215625 47.01644531 -59.890625 46.04492188 C-60.08329439 39.13290759 -60.08329439 39.13290759 -57.77539062 36.12353516 C-56.44584268 34.98768035 -55.07235697 33.90219446 -53.66992188 32.85766602 C-50.75018976 30.63139899 -48.21848355 28.11260777 -45.65625 25.49609375 C-44.67071832 24.50245993 -43.68503923 23.50897229 -42.69921875 22.515625 C-41.69500103 21.4990055 -40.69109628 20.48207674 -39.6875 19.46484375 C-37.70099704 17.45134852 -35.710924 15.44147653 -33.71875 13.43359375 C-32.84798828 12.55123047 -31.97722656 11.66886719 -31.08007812 10.75976562 C-30.37794189 10.10229088 -30.37794189 10.10229088 -29.66162109 9.43153381 C-28.12052598 7.96570587 -28.12052598 7.96570587 -26.77197266 6.10057068 C-19.95096526 -1.73743705 -9.52544652 -0.06458573 0 0 Z " fill="#000000" transform="translate(90.1875,14.03515625)"/>
<path d="M0 0 C0.99 0.33 1.98 0.66 3 1 C-1.21684143 4.49395433 -5.51631204 7.18817074 -10.3125 9.8125 C-13.07153687 11.37195562 -15.55309916 13.1277711 -18.0625 15.0625 C-25.80379747 21 -25.80379747 21 -30 21 C-30 21.66 -30 22.32 -30 23 C-22.87391001 22.70245971 -17.3327492 21.28874656 -11 18 C-12.875 24.75 -12.875 24.75 -14 27 C-8.27185121 23.99272189 -5.45917828 19.71421606 -1.9296875 14.36328125 C0 12 0 12 1.9453125 11.171875 C4.22755408 10.98096506 6.45945842 10.90381556 8.75 10.9375 C9.54921875 10.94652344 10.3484375 10.95554687 11.171875 10.96484375 C11.77515625 10.97644531 12.3784375 10.98804687 13 11 C12.01 12.98 11.02 14.96 10 17 C3.125 16.125 3.125 16.125 2 15 C2.20376178 16.90584196 2.20376178 16.90584196 3 19 C3.67804688 19.44085938 4.35609375 19.88171875 5.0546875 20.3359375 C7 22 7 22 7.2421875 24.26953125 C7.06042969 25.52830078 7.06042969 25.52830078 6.875 26.8125 C6.68744141 28.13314453 6.68744141 28.13314453 6.49609375 29.48046875 C5.91509192 32.43122606 5.10424419 35.20258139 4 38 C-0 36 -0 36 -1.875 34.8125 C-4.99582368 33.61924389 -6.82458915 34.02793545 -10 35 C-13.2331694 37.65838373 -15.52470993 39.72238937 -16 44 C-15.505 43.2575 -15.505 43.2575 -15 42.5 C-12.4747443 40.60605823 -10.33295681 40.34660139 -7.20703125 40.43359375 C-2.92183262 41.53333499 0.10019991 44.7839983 3 48 C3 48.33 3 48.66 3 49 C2.19175781 49.15855469 1.38351563 49.31710938 0.55078125 49.48046875 C-7.9614403 51.24050211 -7.9614403 51.24050211 -14 57 C-14.86119134 59.17346568 -14.86119134 59.17346568 -15 61 C-14.4225 60.34 -13.845 59.68 -13.25 59 C-8.44377707 56.04232435 -3.52006978 56.15718329 2 57 C4.37109375 58.52734375 4.37109375 58.52734375 6 60 C5.45730469 60.20753906 4.91460937 60.41507813 4.35546875 60.62890625 C0.40627311 62.32955086 -2.25509268 63.54787508 -4 67.625 C-5.09469611 70.73292738 -5.09469611 70.73292738 -5 73 C-4.13375 71.824375 -4.13375 71.824375 -3.25 70.625 C-1.12027523 68.14032111 -0.04289863 67.01429954 3 66 C5.75 65.875 5.75 65.875 8 66 C7.38511719 66.70576172 7.38511719 66.70576172 6.7578125 67.42578125 C6.21898437 68.04839844 5.68015625 68.67101562 5.125 69.3125 C4.59132812 69.92738281 4.05765625 70.54226562 3.5078125 71.17578125 C1.8359553 73.13498212 1.8359553 73.13498212 0 76 C3.73487777 75.5020163 5.81237635 75.12508244 9 73 C10.32 73 11.64 73 13 73 C12.505 74.485 12.505 74.485 12 76 C10.39125 76.4021875 10.39125 76.4021875 8.75 76.8125 C3.98512434 78.32137729 2.85322715 80.02277428 0 84 C3.02419525 83.41196203 6.01758453 82.77321882 9 82 C8.505 83.98 8.505 83.98 8 86 C9.94999129 85.80528889 9.94999129 85.80528889 12 85 C12.309375 84.34 12.61875 83.68 12.9375 83 C13.4634375 82.01 13.4634375 82.01 14 81 C16.625 80.25 16.625 80.25 19 80 C19 81.32 19 82.64 19 84 C19.66 84 20.32 84 21 84 C21.33 84.99 21.66 85.98 22 87 C22.66 86.67 23.32 86.34 24 86 C24 87.98 24 89.96 24 92 C25.65 89.69 27.3 87.38 29 85 C29.99 85.99 30.98 86.98 32 88 C32.66 87.34 33.32 86.68 34 86 C34.66 86.33 35.32 86.66 36 87 C37.39716008 86.9430892 38.79317401 86.8555944 40.1875 86.75 C44.80249154 86.6685154 46.93834175 87.94256522 50.42578125 90.8203125 C52.50573611 92.37898835 54.4387815 92.76716195 57 93 C57.495 91.515 57.495 91.515 58 90 C58.89203125 90.02320313 59.7840625 90.04640625 60.703125 90.0703125 C61.87359375 90.08835937 63.0440625 90.10640625 64.25 90.125 C65.41015625 90.14820313 66.5703125 90.17140625 67.765625 90.1953125 C70.88646719 90.00685585 72.34737514 89.49956946 75 88 C78.78263306 88.28369748 81.39458845 89.20848762 84 92 C84.75 95.6875 84.75 95.6875 85 99 C83.515 99.495 83.515 99.495 82 100 C81.01 97.69 80.02 95.38 79 93 C78.113125 93.020625 77.22625 93.04125 76.3125 93.0625 C73.37830369 93.00713781 70.84506304 92.6694266 68 92 C68 93.32 68 94.64 68 96 C69.32 96 70.64 96 72 96 C72.33 96 72.66 96 73 96 C73 97.65 73 99.3 73 101 C74.98 101.33 76.96 101.66 79 102 C78.67 102.66 78.34 103.32 78 104 C75.1875 104.3125 75.1875 104.3125 72 104 C70.11400657 101.61107499 69 100.08148442 69 97 C68.01 97 67.02 97 66 97 C65.9071875 98.051875 65.9071875 98.051875 65.8125 99.125 C64.71783143 102.99844263 63.33210805 105.72856053 60 108 C55.7539448 108.85175551 51.57705335 108.69738211 47.26171875 108.5859375 C46.02581497 108.57744781 44.78991119 108.56895813 43.51655579 108.56021118 C40.24264089 108.5323505 36.97051847 108.47852254 33.69720459 108.4119873 C30.35234082 108.35042726 27.00739876 108.32368014 23.66210938 108.29296875 C17.1072837 108.22684666 10.55398949 108.12329631 4 108 C3.505 97.605 3.505 97.605 3 87 C0.36 87 -2.28 87 -5 87 C-5.66 86.67 -6.32 86.34 -7 86 C-7 85.34 -7 84.68 -7 84 C-6.030625 83.525625 -5.06125 83.05125 -4.0625 82.5625 C-1.19522563 81.29806053 -1.19522563 81.29806053 0 80 C-2.31 79.34 -4.62 78.68 -7 78 C-7.55721393 66.21595725 -7.55721393 66.21595725 -4 62 C-2.3125 60.1875 -2.3125 60.1875 -1 59 C-4.67803287 58.64971115 -6.7635939 58.88652507 -10.125 60.5 C-13.67015485 63.58274335 -15.23135091 66.7136269 -17 71 C-17.66 70.67 -18.32 70.34 -19 70 C-19.34549588 64.24173534 -19.41066128 59.90282559 -16 55 C-11.84071051 50.64789577 -8.00745251 47.35167681 -2 46 C-4.96164999 43.82231618 -6.45663808 42.97869169 -10.1875 43.125 C-13.30148891 43.77005187 -13.30148891 43.77005187 -15 47 C-15.54585626 49.04190673 -15.94179262 51.08487996 -16.33984375 53.16015625 C-17 55 -17 55 -20 57 C-22.76059793 57.34507474 -24.36202878 57.35198412 -26.8125 56 C-28.73618446 52.76011038 -28.18282384 49.7174181 -28 46 C-27.401875 46.33 -26.80375 46.66 -26.1875 47 C-23.94613529 48.20787988 -23.94613529 48.20787988 -21 48 C-20.86464844 47.43152344 -20.72929688 46.86304688 -20.58984375 46.27734375 C-18.82496104 39.94701595 -16.10172737 36.13055518 -11 32 C-7.97562661 30.4878133 -5.33758466 30.82736631 -2 31 C0.4375 32 0.4375 32 2 33 C3.65892472 31.34107528 3.24986813 29.39952582 3.3125 27.125 C3.34988281 26.24070312 3.38726562 25.35640625 3.42578125 24.4453125 C3.22955042 21.83054812 3.22955042 21.83054812 0.98046875 20.1796875 C0.32691406 19.79039063 -0.32664063 19.40109375 -1 19 C-1.70125 19.9075 -2.4025 20.815 -3.125 21.75 C-6.86615567 26.1827979 -10.52761947 28.99716265 -16.375 29.75 C-18.169375 29.87375 -18.169375 29.87375 -20 30 C-19.525625 29.21625 -19.05125 28.4325 -18.5625 27.625 C-17.66101977 26.11051322 -16.78820515 24.5764103 -16 23 C-16.55816406 23.32097656 -17.11632812 23.64195313 -17.69140625 23.97265625 C-21.67861737 25.74699893 -25.73146439 25.71027329 -30 25 C-32.28473292 23.54607905 -33.34671154 22.20438462 -35 20 C-34.2265625 19.70867187 -33.453125 19.41734375 -32.65625 19.1171875 C-26.74406405 16.79036184 -21.7406168 14.40396419 -16.796875 10.41015625 C-14.03690626 8.24418078 -11.08035888 6.68019575 -8 5 C-3.74611436 2.83829207 -3.74611436 2.83829207 0 0 Z " fill="#FAFAFA" transform="translate(62,54)"/>
<path d="M0 0 C5.51622393 0.23820407 11.03495274 0.34092977 16.55487061 0.45623779 C27.32502801 0.70062144 38.08419597 1.09139162 48.84588623 1.57928467 C48.84588623 2.23928467 48.84588623 2.89928467 48.84588623 3.57928467 C49.44103027 3.84878433 50.03617432 4.118284 50.64935303 4.39595032 C52.84317243 5.57782267 54.24984364 6.74670845 55.99041748 8.51263428 C56.57782715 9.1034227 57.16523682 9.69421112 57.77044678 10.30290222 C58.3934668 10.93938187 59.01648682 11.57586151 59.65838623 12.23162842 C60.30912109 12.88756485 60.95985596 13.54350128 61.63031006 14.21931458 C63.7069796 16.31377427 65.77684129 18.41479469 67.84588623 20.51678467 C69.9157735 22.61433779 71.98711553 24.71039986 74.0614624 26.80354309 C75.35088402 28.10516728 76.63762302 29.40945584 77.92132568 30.71672058 C78.50873535 31.31066116 79.09614502 31.90460175 79.70135498 32.51654053 C80.21335449 33.03679306 80.725354 33.55704559 81.25286865 34.09306335 C83.00040151 35.72344121 84.93390246 37.14529684 86.84588623 38.57928467 C86.84588623 44.84928467 86.84588623 51.11928467 86.84588623 57.57928467 C73.64588623 57.57928467 60.44588623 57.57928467 46.84588623 57.57928467 C46.84588623 52.29928467 46.84588623 47.01928467 46.84588623 41.57928467 C15.82588623 41.57928467 -15.19411377 41.57928467 -47.15411377 41.57928467 C-47.15411377 42.89928467 -47.15411377 44.21928467 -47.15411377 45.57928467 C-49.13411377 46.56928467 -51.11411377 47.55928467 -53.15411377 48.57928467 C-53.15411377 44.61928467 -53.15411377 40.65928467 -53.15411377 36.57928467 C-18.50411377 36.57928467 16.14588623 36.57928467 51.84588623 36.57928467 C51.84588623 41.85928467 51.84588623 47.13928467 51.84588623 52.57928467 C61.74588623 52.57928467 71.64588623 52.57928467 81.84588623 52.57928467 C81.45110284 42.04056621 81.45110284 42.04056621 75.77947998 35.50115967 C75.26716324 35.00062073 74.7548465 34.50008179 74.227005 33.984375 C72.6013058 32.40745186 70.9441786 30.86911142 69.28338623 29.32928467 C68.19715659 28.28473952 67.11315151 27.23787589 66.03143311 26.18865967 C60.93656897 21.27675571 55.7273774 16.49958102 50.35394287 11.89276123 C49.14100217 10.83632267 47.98327086 9.7166693 46.84588623 8.57928467 C44.07703712 8.30717579 41.4025895 8.16000288 38.62689209 8.09832764 C37.77608566 8.0723349 36.92527924 8.04634216 36.0486908 8.01956177 C27.09357987 7.76471944 18.13462284 7.65232825 9.17669678 7.54949951 C4.93918577 7.49628091 0.70626028 7.39926946 -3.52935791 7.26239014 C-29.03487697 5.10250311 -29.03487697 5.10250311 -51.81411743 13.82662964 C-54.41551078 16.56655617 -56.65454316 19.40210752 -58.74765015 22.5456543 C-60.86759071 25.61091347 -63.41464365 27.95437155 -66.11895752 30.51678467 C-68.65300076 33.08783546 -71.17777446 35.66757518 -73.69903564 38.25115967 C-74.92783447 39.49639404 -74.92783447 39.49639404 -76.18145752 40.76678467 C-76.90067383 41.50283936 -77.61989014 42.23889404 -78.36090088 42.99725342 C-80.15411377 44.57928467 -80.15411377 44.57928467 -82.15411377 44.57928467 C-82.15411377 51.50928467 -82.15411377 58.43928467 -82.15411377 65.57928467 C-84.62911377 66.56928467 -84.62911377 66.56928467 -87.15411377 67.57928467 C-89.05866537 44.44497609 -89.05866537 44.44497609 -84.98614502 38.71600342 C-82.18145568 35.98094774 -79.37045509 33.8102273 -76.15411377 31.57928467 C-71.28155482 27.86551022 -67.57508047 23.9282147 -64.04449463 18.91497803 C-47.12198505 -3.55725489 -26.20656178 -1.25344909 0 0 Z " fill="#6D070D" transform="translate(113.15411376953125,7.42071533203125)"/>
<path d="M0 0 C3.41076462 2.11868673 5.69840373 4.09521119 7 8 C8.093125 8.721875 9.18625 9.44375 10.3125 10.1875 C15.51395843 13.71210222 17.77466657 18.95425111 19 25 C19.71224291 32.80727808 18.81372734 40.74829898 14.41015625 47.40234375 C12.69159082 50.56812217 12.6618797 52.67231592 12.75 56.25 C12.76546875 57.30703125 12.7809375 58.3640625 12.796875 59.453125 C12.71763365 61.933851 12.71763365 61.933851 14 63 C16.39397179 63.44876382 16.39397179 63.44876382 19 63 C20.94450751 61.11198419 20.94450751 61.11198419 22.5 58.625 C24.99202927 54.92222066 26.70274382 53.3392134 31 52 C29.28032649 55.02990095 27.70761694 57.76327296 25 60 C24.34 60 23.68 60 23 60 C22.71125 60.61875 22.4225 61.2375 22.125 61.875 C20.54372167 64.86185906 19.49463886 65.84261491 16.25 66.875 C11.87341862 67.04333005 10.34023915 65.77168781 7 63 C4.66665128 60.53492999 2.52768615 58.05537229 1 55 C0.34 55 -0.32 55 -1 55 C1.63886654 59.2026393 4.36440339 62.56638098 8 66 C3.56909529 64.79157144 1.01887244 63.48331435 -2 60 C-2.99 60.495 -2.99 60.495 -4 61 C-4.94875 60.690625 -5.8975 60.38125 -6.875 60.0625 C-12.14347136 58.45760851 -17.55388444 58.35017939 -23 59 C-26.12815187 60.66256423 -26.12815187 60.66256423 -28 63 C-28.99 63.99 -28.99 63.99 -30 65 C-29.54572404 60.11653339 -28.42657167 57.52175421 -25 54 C-20.77591683 50.74142155 -16.13665998 49.95123333 -11 49 C-14.29298755 45.54236307 -17.16518528 42.58594986 -22.125 42.3125 C-26.67528118 43.11980795 -28.15643973 44.44554967 -31 48 C-30.54572404 43.11653339 -29.42657167 40.52175421 -26 37 C-22.90431048 34.48998147 -21.5251038 33.99062315 -17.5 34.0625 C-13.75516718 35.06558022 -11.80067774 36.3690603 -9 39 C-8.66104344 37.27192682 -8.32908475 35.54248026 -8 33.8125 C-7.7215625 32.36810547 -7.7215625 32.36810547 -7.4375 30.89453125 C-7.02435404 28.16112806 -6.73604831 25.75263908 -7 23 C-9.39859044 20.66369252 -9.39859044 20.66369252 -12 19 C-11.67 17.68 -11.34 16.36 -11 15 C-10.01 15.66 -9.02 16.32 -8 17 C-5.37468476 17.16713569 -5.37468476 17.16713569 -3 17 C-2.34 15.68 -1.68 14.36 -1 13 C-2.85625 12.9690625 -2.85625 12.9690625 -4.75 12.9375 C-5.44609375 12.92589844 -6.1421875 12.91429688 -6.859375 12.90234375 C-9.17130798 13.00781515 -10.84850203 13.12042969 -13 14 C-14.83172588 16.16353016 -14.83172588 16.16353016 -16.4375 18.8125 C-20.00612948 24.15019366 -22.60266345 27.40066586 -29 29 C-27.68 26.36 -26.36 23.72 -25 21 C-28.7520344 21.75801375 -28.7520344 21.75801375 -30.921875 23.0546875 C-33.50194539 24.22832854 -35.4297347 24.19921751 -38.25 24.125 C-39.14203125 24.10695313 -40.0340625 24.08890625 -40.953125 24.0703125 C-41.62859375 24.04710938 -42.3040625 24.02390625 -43 24 C-43 23.34 -43 22.68 -43 22 C-42.31035156 21.64808594 -41.62070312 21.29617187 -40.91015625 20.93359375 C-36.03889341 18.37434318 -31.52974946 15.7865626 -27.25 12.3125 C-23.66794031 9.40881267 -20.29635486 7.73361687 -16 6 C-14.30261254 4.95336811 -12.61573429 3.88957574 -10.9375 2.8125 C-4.45101725 -1.11275431 -4.45101725 -1.11275431 0 0 Z " fill="#56080E" transform="translate(75,53)"/>
<path d="M0 0 C0.1546875 0.9590625 0.1546875 0.9590625 0.3125 1.9375 C0.6528125 2.9584375 0.6528125 2.9584375 1 4 C1.99 4.33 2.98 4.66 4 5 C3.34 5.66 2.68 6.32 2 7 C2.16141654 9.19896211 2.16141654 9.19896211 2.8125 11.5625 C3.00457031 12.36816406 3.19664062 13.17382812 3.39453125 14.00390625 C3.82259087 15.97972846 3.82259087 15.97972846 5 17 C5.66 16.34 6.32 15.68 7 15 C7.66 16.32 8.32 17.64 9 19 C9.66 18.34 10.32 17.68 11 17 C12.875 17 12.875 17 15 18 C17.1875 21 17.1875 21 19 24 C20.96822886 25.96822886 24.34808709 25.66248381 27 26 C27.495 24.515 27.495 24.515 28 23 C33.48780488 23.48780488 33.48780488 23.48780488 35.8125 25.8125 C36.96605122 27.93746278 37.68091136 29.60683517 38 32 C37.505 32.99 37.505 32.99 37 34 C38.65 33.67 40.3 33.34 42 33 C42.33 33.66 42.66 34.32 43 35 C41.68 35 40.36 35 39 35 C39.33 35.99 39.66 36.98 40 38 C35.32790951 39.43023178 30.86896303 40.40380045 26 41 C25.67 39.35 25.34 37.7 25 36 C24.31292969 36.2165625 23.62585938 36.433125 22.91796875 36.65625 C22.01691406 36.9346875 21.11585938 37.213125 20.1875 37.5 C19.29417969 37.7784375 18.40085938 38.056875 17.48046875 38.34375 C15 39 15 39 12 39 C12 38.34 12 37.68 12 37 C9.525 37.495 9.525 37.495 7 38 C7.66 41.96 8.32 45.92 9 50 C6.525 48.02 6.525 48.02 4 46 C3.34 46.66 2.68 47.32 2 48 C1.67 47.01 1.34 46.02 1 45 C-0.99571323 44.32060826 -2.99594773 43.65438441 -5 43 C-5.66 42.01 -6.32 41.02 -7 40 C-7.33 40.99 -7.66 41.98 -8 43 C-9.485 42.505 -9.485 42.505 -11 42 C-10.67 41.34 -10.34 40.68 -10 40 C-13.07080871 41.0236029 -13.29891025 41.26426337 -15.34375 43.41015625 C-16.9757858 44.97675665 -18.62263702 46.18180766 -20.5 47.4375 C-23.23054944 49.34253449 -25.20337208 51.14653212 -27 54 C-27 52.68 -27 51.36 -27 50 C-27.99 50 -28.98 50 -30 50 C-29.67 48.35 -29.34 46.7 -29 45 C-29.99 44.67 -30.98 44.34 -32 44 C-31.34 43.34 -30.68 42.68 -30 42 C-31.65 41.34 -33.3 40.68 -35 40 C-33.68 39.34 -32.36 38.68 -31 38 C-32.65 36.35 -34.3 34.7 -36 33 C-34.515 32.505 -34.515 32.505 -33 32 C-33.3609375 31.51789063 -33.721875 31.03578125 -34.09375 30.5390625 C-34.5578125 29.90742187 -35.021875 29.27578125 -35.5 28.625 C-36.19609375 27.68527344 -36.19609375 27.68527344 -36.90625 26.7265625 C-38 25 -38 25 -38 23 C-37.236875 23.309375 -36.47375 23.61875 -35.6875 23.9375 C-33.81210323 24.67893593 -31.91315348 25.36228217 -30 26 C-30.515625 25.21625 -31.03125 24.4325 -31.5625 23.625 C-32.2740625 22.325625 -32.2740625 22.325625 -33 21 C-32.67 20.34 -32.34 19.68 -32 19 C-30.02 20.65 -28.04 22.3 -26 24 C-25.67 23.67 -25.34 23.34 -25 23 C-25.33773437 22.45859375 -25.67546875 21.9171875 -26.0234375 21.359375 C-27.25272813 18.38940883 -27.00281808 16.42367191 -26.625 13.25 C-26.45871094 11.77273437 -26.45871094 11.77273437 -26.2890625 10.265625 C-26.19367188 9.51796875 -26.09828125 8.7703125 -26 8 C-25.01 8.66 -24.02 9.32 -23 10 C-23 10.66 -23 11.32 -23 12 C-22.34 12 -21.68 12 -21 12 C-21 9.36 -21 6.72 -21 4 C-19.68 5.32 -18.36 6.64 -17 8 C-16.67 5.69 -16.34 3.38 -16 1 C-14 2.625 -14 2.625 -12 5 C-11.75 8.25 -11.75 8.25 -12 11 C-11.67 8.03 -11.34 5.06 -11 2 C-9.2925002 3.28062485 -7.62626404 4.61767557 -6 6 C-6 6.66 -6 7.32 -6 8 C-3.38472619 5.63379989 -1.73559438 3.057952 0 0 Z " fill="#67030B" transform="translate(135,58)"/>
<path d="M0 0 C2.03396622 1.81101223 3.6891215 3.69863161 5.40625 5.80859375 C14.13191216 16.03397909 28.65160811 20.27362518 41.71875 21.55859375 C43.15609323 21.64458864 44.59357917 21.72826147 46.03125 21.80859375 C48.03485906 22.1194986 50.0372126 22.44127107 52.03125 22.80859375 C51.03125 24.80859375 51.03125 24.80859375 48.53125 25.74609375 C47.29375 26.27203125 47.29375 26.27203125 46.03125 26.80859375 C45.70125 27.79859375 45.37125 28.78859375 45.03125 29.80859375 C41.81673731 31.4158501 38.59512464 30.8660756 35.03125 30.80859375 C34.53625 31.79859375 34.53625 31.79859375 34.03125 32.80859375 C34.03125 31.81859375 34.03125 30.82859375 34.03125 29.80859375 C32.83628906 29.6384375 31.64132813 29.46828125 30.41015625 29.29296875 C22.01070588 28.03393349 14.64876502 26.75337831 7.03125 22.80859375 C6.37125 22.80859375 5.71125 22.80859375 5.03125 22.80859375 C7.52918739 23.77260357 10.02938659 24.72986922 12.53125 25.68359375 C13.57539063 26.08771484 13.57539063 26.08771484 14.640625 26.5 C19.38450524 28.3009175 24.08751101 29.66173538 29.03125 30.80859375 C28.53625 31.79859375 28.53625 31.79859375 28.03125 32.80859375 C17.79393104 32.59889075 6.69662341 30.58550936 -1.96875 24.80859375 C-1.96875 24.14859375 -1.96875 23.48859375 -1.96875 22.80859375 C-3.28875 22.80859375 -4.60875 22.80859375 -5.96875 22.80859375 C-5.1746875 23.30230469 -4.380625 23.79601562 -3.5625 24.3046875 C-2.5415625 24.94535156 -1.520625 25.58601563 -0.46875 26.24609375 C0.5521875 26.88417969 1.573125 27.52226562 2.625 28.1796875 C3.4190625 28.71722656 4.213125 29.25476563 5.03125 29.80859375 C5.03125 30.13859375 5.03125 30.46859375 5.03125 30.80859375 C-0.39767065 30.3742801 -3.67671704 29.18090536 -7.96875 25.80859375 C-8.29875 25.14859375 -8.62875 24.48859375 -8.96875 23.80859375 C-10.99338255 23.15646083 -10.99338255 23.15646083 -12.96875 22.80859375 C-12.99453125 23.72382813 -13.0203125 24.6390625 -13.046875 25.58203125 C-13.10359375 26.77054688 -13.1603125 27.9590625 -13.21875 29.18359375 C-13.28835937 30.95863281 -13.28835937 30.95863281 -13.359375 32.76953125 C-13.96875 35.80859375 -13.96875 35.80859375 -16.015625 37.22265625 C-16.98242188 37.51269531 -16.98242188 37.51269531 -17.96875 37.80859375 C-20.31940223 36.20814968 -22.1464994 34.94753177 -23.96875 32.80859375 C-24.16212338 30.87485991 -24.34831493 28.93807953 -24.421875 26.99609375 C-25.40471607 23.06472945 -28.50245647 20.62738129 -31.3515625 17.88671875 C-32.96875 15.80859375 -32.96875 15.80859375 -32.7109375 13.60546875 C-32.46601562 13.0125 -32.22109375 12.41953125 -31.96875 11.80859375 C-31.96875 11.47859375 -31.96875 11.14859375 -31.96875 10.80859375 C-31.63875 9.81859375 -31.30875 8.82859375 -30.96875 7.80859375 C-30.63875 7.80859375 -30.30875 7.80859375 -29.96875 7.80859375 C-29.845 7.16921875 -29.72125 6.52984375 -29.59375 5.87109375 C-29.3875 5.19046875 -29.18125 4.50984375 -28.96875 3.80859375 C-28.30875 3.47859375 -27.64875 3.14859375 -26.96875 2.80859375 C-26.63875 4.12859375 -26.30875 5.44859375 -25.96875 6.80859375 C-25.2675 5.73609375 -24.56625 4.66359375 -23.84375 3.55859375 C-20.91838561 -0.53525896 -17.62902257 -3.14342009 -12.90625 -5.00390625 C-7.41729119 -5.53509581 -4.18503165 -3.25589216 0 0 Z " fill="#64020A" transform="translate(133.96875,107.19140625)"/>
<path d="M0 0 C0.99 0.33 1.98 0.66 3 1 C-1.21684143 4.49395433 -5.51631204 7.18817074 -10.3125 9.8125 C-13.07153687 11.37195562 -15.55309916 13.1277711 -18.0625 15.0625 C-25.80379747 21 -25.80379747 21 -30 21 C-30 21.66 -30 22.32 -30 23 C-22.87391001 22.70245971 -17.3327492 21.28874656 -11 18 C-12.875 24.75 -12.875 24.75 -14 27 C-8.27185121 23.99272189 -5.45917828 19.71421606 -1.9296875 14.36328125 C0 12 0 12 1.9453125 11.171875 C4.22755408 10.98096506 6.45945842 10.90381556 8.75 10.9375 C9.54921875 10.94652344 10.3484375 10.95554687 11.171875 10.96484375 C11.77515625 10.97644531 12.3784375 10.98804687 13 11 C12.01 12.98 11.02 14.96 10 17 C3.125 16.125 3.125 16.125 2 15 C2.20376178 16.90584196 2.20376178 16.90584196 3 19 C3.67804688 19.44085938 4.35609375 19.88171875 5.0546875 20.3359375 C7 22 7 22 7.2421875 24.26953125 C7.06042969 25.52830078 7.06042969 25.52830078 6.875 26.8125 C6.68744141 28.13314453 6.68744141 28.13314453 6.49609375 29.48046875 C5.91509192 32.43122606 5.10424419 35.20258139 4 38 C-0 36 -0 36 -1.875 34.8125 C-4.99582368 33.61924389 -6.82458915 34.02793545 -10 35 C-13.2331694 37.65838373 -15.52470993 39.72238937 -16 44 C-15.505 43.2575 -15.505 43.2575 -15 42.5 C-12.4747443 40.60605823 -10.33295681 40.34660139 -7.20703125 40.43359375 C-2.92183262 41.53333499 0.10019991 44.7839983 3 48 C3 48.33 3 48.66 3 49 C2.19175781 49.15855469 1.38351563 49.31710938 0.55078125 49.48046875 C-7.9614403 51.24050211 -7.9614403 51.24050211 -14 57 C-14.86119134 59.17346568 -14.86119134 59.17346568 -15 61 C-14.236875 60.319375 -13.47375 59.63875 -12.6875 58.9375 C-11.800625 58.298125 -10.91375 57.65875 -10 57 C-8.515 57.495 -8.515 57.495 -7 58 C-7.7425 58.53625 -8.485 59.0725 -9.25 59.625 C-12.19598605 62.16926068 -13.96400506 64.70028406 -16 68 C-16.66 68.99 -17.32 69.98 -18 71 C-19.55090815 69.44909185 -19.20677311 67.96303767 -19.25 65.8125 C-19.14855342 60.46119289 -18.00323521 57.09610041 -14.23046875 53.1484375 C-10.41942362 49.60700742 -7.18756309 47.1672017 -2 46 C-4.96164999 43.82231618 -6.45663808 42.97869169 -10.1875 43.125 C-13.30148891 43.77005187 -13.30148891 43.77005187 -15 47 C-15.54585626 49.04190673 -15.94179262 51.08487996 -16.33984375 53.16015625 C-17 55 -17 55 -20 57 C-22.76059793 57.34507474 -24.36202878 57.35198412 -26.8125 56 C-28.73618446 52.76011038 -28.18282384 49.7174181 -28 46 C-27.401875 46.33 -26.80375 46.66 -26.1875 47 C-23.94613529 48.20787988 -23.94613529 48.20787988 -21 48 C-20.86464844 47.43152344 -20.72929688 46.86304688 -20.58984375 46.27734375 C-18.82496104 39.94701595 -16.10172737 36.13055518 -11 32 C-7.97562661 30.4878133 -5.33758466 30.82736631 -2 31 C0.4375 32 0.4375 32 2 33 C3.65892472 31.34107528 3.24986813 29.39952582 3.3125 27.125 C3.34988281 26.24070312 3.38726562 25.35640625 3.42578125 24.4453125 C3.22955042 21.83054812 3.22955042 21.83054812 0.98046875 20.1796875 C0.32691406 19.79039063 -0.32664063 19.40109375 -1 19 C-1.70125 19.9075 -2.4025 20.815 -3.125 21.75 C-6.86615567 26.1827979 -10.52761947 28.99716265 -16.375 29.75 C-18.169375 29.87375 -18.169375 29.87375 -20 30 C-19.525625 29.21625 -19.05125 28.4325 -18.5625 27.625 C-17.66101977 26.11051322 -16.78820515 24.5764103 -16 23 C-16.55816406 23.32097656 -17.11632812 23.64195313 -17.69140625 23.97265625 C-21.67861737 25.74699893 -25.73146439 25.71027329 -30 25 C-32.28473292 23.54607905 -33.34671154 22.20438462 -35 20 C-34.2265625 19.70867187 -33.453125 19.41734375 -32.65625 19.1171875 C-26.74406405 16.79036184 -21.7406168 14.40396419 -16.796875 10.41015625 C-14.03690626 8.24418078 -11.08035888 6.68019575 -8 5 C-3.74611436 2.83829207 -3.74611436 2.83829207 0 0 Z " fill="#DEDCDC" transform="translate(62,54)"/>
<path d="M0 0 C1.92759992 1.67617384 2.90534623 2.59772148 3.5 5.125 C3.7475 6.053125 3.7475 6.053125 4 7 C4.99 7.33 5.98 7.66 7 8 C7.56997053 24.40248523 7.56997053 24.40248523 2.87890625 31.7578125 C1.65514669 34.87975912 2.00391579 37.36743137 2.3125 40.6875 C2.41175781 41.84636719 2.51101562 43.00523438 2.61328125 44.19921875 C2.69903201 46.90028029 2.69903201 46.90028029 4 48 C6.39397179 48.44876382 6.39397179 48.44876382 9 48 C10.94450751 46.11198419 10.94450751 46.11198419 12.5 43.625 C14.99202927 39.92222066 16.70274382 38.3392134 21 37 C19.28032649 40.02990095 17.70761694 42.76327296 15 45 C14.34 45 13.68 45 13 45 C12.566875 45.928125 12.566875 45.928125 12.125 46.875 C10.54372167 49.86185906 9.49463886 50.84261491 6.25 51.875 C1.87341862 52.04333005 0.34023915 50.77168781 -3 48 C-6.33799987 44.71583884 -8.57644807 41.80025522 -9 37 C-9.66 37.66 -10.32 38.32 -11 39 C-13.24979588 35.39674126 -13.29896807 32.31989966 -13.3125 28.125 C-13.32925781 26.93132812 -13.34601563 25.73765625 -13.36328125 24.5078125 C-12.97040185 20.71420285 -11.89932304 18.2774598 -10 15 C-9.34 15 -8.68 15 -8 15 C-8.33 14.01 -8.66 13.02 -9 12 C-8.01 11.01 -7.02 10.02 -6 9 C-5.34 9.66 -4.68 10.32 -4 11 C-4.391875 10.2575 -4.78375 9.515 -5.1875 8.75 C-5.455625 7.8425 -5.72375 6.935 -6 6 C-4.625 3.6875 -4.625 3.6875 -3 2 C0.72631981 7.58947972 0.73077709 13.42300616 0 20 C-0.66 20.99 -1.32 21.98 -2 23 C-2.33 23 -2.66 23 -3 23 C-3 25.31 -3 27.62 -3 30 C-2.67 28.68 -2.34 27.36 -2 26 C-1.01 26 -0.02 26 1 26 C2.98291501 17.59244037 3.0945242 8.12312602 0 0 Z " fill="#690D12" transform="translate(85,68)"/>
<path d="M0 0 C0.99 1.32 1.98 2.64 3 4 C2.01 4.495 2.01 4.495 1 5 C1.5755236 8.61300925 2.93436425 10.20539405 5.5 12.75 C9.24942516 16.82912921 9.90221003 19.52376177 10 25 C10.66 25 11.32 25 12 25 C13.625 27 13.625 27 15 29 C15.99 28.67 16.98 28.34 18 28 C18.66 23.71 19.32 19.42 20 15 C19.01 14.67 18.02 14.34 17 14 C20 13 20 13 22.4375 14.1875 C24.91820361 15.94214402 26.85820216 17.85820216 29 20 C32.09647064 21.93529415 33.13930677 22 37 22 C36.28972656 21.59007812 35.57945312 21.18015625 34.84765625 20.7578125 C33.92855469 20.21898437 33.00945312 19.68015625 32.0625 19.125 C31.14597656 18.59132812 30.22945312 18.05765625 29.28515625 17.5078125 C27 16 27 16 26 14 C30.66971518 14.63104259 30.66971518 14.63104259 32.234375 16.37890625 C39.14462985 22.72349865 52.11039087 23.70610549 61 24 C60.38479492 23.80365967 59.76958984 23.60731934 59.13574219 23.4050293 C56.33786816 22.50714498 53.54396809 21.59746208 50.75 20.6875 C49.78191406 20.37876953 48.81382812 20.07003906 47.81640625 19.75195312 C46.88183594 19.44580078 45.94726562 19.13964844 44.984375 18.82421875 C44.12553711 18.54666748 43.26669922 18.26911621 42.38183594 17.9831543 C39.90061731 16.95897764 38.06756966 15.69716497 36 14 C39.6398539 14.63730294 42.91483313 15.6532644 46.375 16.9375 C53.49480654 19.37883017 60.54093863 20.22556193 68 21 C67.6875 22.9375 67.6875 22.9375 67 25 C62.08534755 26.63821748 57.02138516 26.22644675 51.875 26.25 C50.7715625 26.270625 49.668125 26.29125 48.53125 26.3125 C41.72192273 26.34484835 36.3031957 25.53674625 30 23 C26.55160612 22.0804283 24.40025216 21.86658261 21 23 C21.061875 23.928125 21.12375 24.85625 21.1875 25.8125 C21 29 21 29 19.9375 30.9375 C16.73887696 32.6915836 14.43919826 31.88944782 11 31 C10.21625 30.34 9.4325 29.68 8.625 29 C4.95543959 26.20414445 1.50785619 26.19642075 -3 26 C-3.33 26.66 -3.66 27.32 -4 28 C-4.33 27.34 -4.66 26.68 -5 26 C-5.99 26.99 -6.98 27.98 -8 29 C-10.12132552 24.75734896 -11.11647866 22.67614835 -10.5625 17.875 C-10.40974609 16.50988281 -10.40974609 16.50988281 -10.25390625 15.1171875 C-10.17011719 14.41851562 -10.08632812 13.71984375 -10 13 C-9.67 13 -9.34 13 -9 13 C-8.67 15.97 -8.34 18.94 -8 22 C-7.67 19.69 -7.34 17.38 -7 15 C-6.34 15.66 -5.68 16.32 -5 17 C-5 15.02 -5 13.04 -5 11 C-1.00499382 12.3697164 1.80009492 14.25722422 5 17 C3.0704557 13.50804181 3.0704557 13.50804181 0.375 10.625 C-1 9 -1 9 -1.07421875 6.73828125 C-0.94660156 5.93777344 -0.81898437 5.13726562 -0.6875 4.3125 C-0.56761719 3.50425781 -0.44773437 2.69601563 -0.32421875 1.86328125 C-0.21722656 1.24839844 -0.11023438 0.63351563 0 0 Z " fill="#080505" transform="translate(101,115)"/>
<path d="M0 0 C1.485 0.495 1.485 0.495 3 1 C3 1.99 3 2.98 3 4 C5.64 4 8.28 4 11 4 C11 4.33 11 4.66 11 5 C10.37351563 5.03738281 9.74703125 5.07476562 9.1015625 5.11328125 C8.28429687 5.17902344 7.46703125 5.24476562 6.625 5.3125 C5.81289062 5.37050781 5.00078125 5.42851563 4.1640625 5.48828125 C1.62078662 5.82990528 1.62078662 5.82990528 0 9 C1.485 9.495 1.485 9.495 3 10 C2.11634766 10.09861328 2.11634766 10.09861328 1.21484375 10.19921875 C-1.884044 11.3196279 -2.69142807 13.0583034 -4.4375 15.8125 C-8.00612948 21.15019366 -10.60266345 24.40066586 -17 26 C-15.68 23.36 -14.36 20.72 -13 18 C-16.7520344 18.75801375 -16.7520344 18.75801375 -18.921875 20.0546875 C-21.50194539 21.22832854 -23.4297347 21.19921751 -26.25 21.125 C-27.14203125 21.10695313 -28.0340625 21.08890625 -28.953125 21.0703125 C-29.62859375 21.04710938 -30.3040625 21.02390625 -31 21 C-31 20.34 -31 19.68 -31 19 C-30.31035156 18.64808594 -29.62070312 18.29617187 -28.91015625 17.93359375 C-23.14612227 14.90530155 -18.11003857 11.64043837 -13.06640625 7.53515625 C-10.20013476 5.40577119 -7.31598134 4.30038484 -4 3 C-3.2575 2.4225 -2.515 1.845 -1.75 1.25 C-1.1725 0.8375 -0.595 0.425 0 0 Z " fill="#100C0C" transform="translate(63,56)"/>
<path d="M0 0 C7.10717866 3.41691282 9.05208865 6.61719947 12.25 13.8125 C14.92656661 25.18790809 11.35921521 35.02077168 6 45 C5.3828125 43.21875 5.3828125 43.21875 5 41 C5.94691269 39.23242964 6.89936034 37.46252256 7.9921875 35.78125 C10.38494991 31.55218156 10.19390684 27.21944198 10.25 22.4375 C10.270625 21.76525391 10.29125 21.09300781 10.3125 20.40039062 C10.36237335 16.46855731 10.36237335 16.46855731 8.546875 13.09765625 C8.03640625 12.73542969 7.5259375 12.37320313 7 12 C6.67 11.67 6.34 11.34 6 11 C6.33 11.99 6.66 12.98 7 14 C7.12093495 16.28932678 7.17538326 18.58251324 7.1875 20.875 C7.20167969 22.08929688 7.21585938 23.30359375 7.23046875 24.5546875 C7.01047255 27.84344421 6.41715618 30.05365948 5 33 C4.01 33 3.02 33 2 33 C1.67 36.3 1.34 39.6 1 43 C0.67 43 0.34 43 0 43 C-0.18451025 29.3667426 -0.18451025 29.3667426 1 23 C1.66 24.32 2.32 25.64 3 27 C3.05441656 25.10448978 3.09298035 23.2085208 3.125 21.3125 C3.14820312 20.25675781 3.17140625 19.20101562 3.1953125 18.11328125 C2.99858729 14.97748141 2.33057654 12.82354627 1 10 C-0.19838209 12.32854463 -0.19838209 12.32854463 -1 15 C-0.01 16.485 -0.01 16.485 1 18 C0.625 20.1875 0.625 20.1875 0 22 C-0.66 20.35 -1.32 18.7 -2 17 C-2.66 18.32 -3.32 19.64 -4 21 C-3.67 21.33 -3.34 21.66 -3 22 C-2.92820036 23.51928038 -2.91607993 25.04167482 -2.9375 26.5625 C-2.94652344 27.38878906 -2.95554687 28.21507813 -2.96484375 29.06640625 C-2.97644531 29.70449219 -2.98804687 30.34257813 -3 31 C-3.33 31 -3.66 31 -4 31 C-4.33 28.36 -4.66 25.72 -5 23 C-5.99 23.66 -6.98 24.32 -8 25 C-7.1968699 19.59895008 -4.78164269 15.19955907 -2.375 10.3515625 C-0.9403381 6.85457412 -0.37950241 3.74758634 0 0 Z " fill="#0E0809" transform="translate(81,61)"/>
<path d="M0 0 C0.99 0.33 1.98 0.66 3 1 C2.67 2.32 2.34 3.64 2 5 C2.33 4.505 2.66 4.01 3 3.5 C5.5252557 1.60605823 7.66704319 1.34660139 10.79296875 1.43359375 C15.07816738 2.53333499 18.10019991 5.7839983 21 9 C21 9.33 21 9.66 21 10 C20.19175781 10.15855469 19.38351563 10.31710938 18.55078125 10.48046875 C10.0385597 12.24050211 10.0385597 12.24050211 4 18 C3.13880866 20.17346568 3.13880866 20.17346568 3 22 C4.1446875 20.9790625 4.1446875 20.9790625 5.3125 19.9375 C6.199375 19.298125 7.08625 18.65875 8 18 C8.99 18.33 9.98 18.66 11 19 C10.2575 19.53625 9.515 20.0725 8.75 20.625 C5.80401395 23.16926068 4.03599494 25.70028406 2 29 C1.34 29.99 0.68 30.98 0 32 C-1.55090815 30.44909185 -1.20677311 28.96303767 -1.25 26.8125 C-1.14855342 21.46119289 -0.00323521 18.09610041 3.76953125 14.1484375 C7.58057638 10.60700742 10.81243691 8.1672017 16 7 C13.03835001 4.82231618 11.54336192 3.97869169 7.8125 4.125 C4.69851109 4.77005187 4.69851109 4.77005187 3 8 C2.45414374 10.04190673 2.05820738 12.08487996 1.66015625 14.16015625 C1 16 1 16 -2 18 C-4.76059793 18.34507474 -6.36202878 18.35198412 -8.8125 17 C-10.73618446 13.76011038 -10.18282384 10.7174181 -10 7 C-9.401875 7.33 -8.80375 7.66 -8.1875 8 C-5.94613529 9.20787988 -5.94613529 9.20787988 -3 9 C-2.01 6.03 -1.02 3.06 0 0 Z " fill="#CFCFCF" transform="translate(44,93)"/>
<path d="M0 0 C7.59 0.33 15.18 0.66 23 1 C23.33 1.66 23.66 2.32 24 3 C22.35 3.33 20.7 3.66 19 4 C18.86722656 4.57234375 18.73445313 5.1446875 18.59765625 5.734375 C18.00619683 7.97650875 17.26711146 10.08579619 16.4375 12.25 C16.03337891 13.30960938 16.03337891 13.30960938 15.62109375 14.390625 C15.41613281 14.92171875 15.21117187 15.4528125 15 16 C15.66 16.33 16.32 16.66 17 17 C16.67 17.99 16.34 18.98 16 20 C15.01 19.67 14.02 19.34 13 19 C13 18.34 13 17.68 13 17 C12.443125 17.226875 11.88625 17.45375 11.3125 17.6875 C9 18 9 18 6.3125 17.125 C3.20633484 14.27068607 3.46399905 12.22381561 3.24609375 8.15625 C2.93293559 5.41238801 1.84510181 4.00554544 0 2 C0 1.34 0 0.68 0 0 Z " fill="#710C15" transform="translate(145,104)"/>
<path d="M0 0 C1.58246707 -0.08153933 3.16616273 -0.13943557 4.75 -0.1875 C6.07257812 -0.23970703 6.07257812 -0.23970703 7.421875 -0.29296875 C10.44671583 0.05076316 11.75583602 1.00227459 14 3 C13.45730469 3.20753906 12.91460937 3.41507812 12.35546875 3.62890625 C8.40627311 5.32955086 5.74490732 6.54787508 4 10.625 C2.90530389 13.73292738 2.90530389 13.73292738 3 16 C3.86625 14.824375 3.86625 14.824375 4.75 13.625 C6.87972477 11.14032111 7.95710137 10.01429954 11 9 C13.75 8.875 13.75 8.875 16 9 C15.59007813 9.47050781 15.18015625 9.94101563 14.7578125 10.42578125 C14.21898438 11.04839844 13.68015625 11.67101562 13.125 12.3125 C12.32449219 13.23482422 12.32449219 13.23482422 11.5078125 14.17578125 C9.8359553 16.13498212 9.8359553 16.13498212 8 19 C11.73487777 18.5020163 13.81237635 18.12508244 17 16 C18.32 16 19.64 16 21 16 C20.67 16.99 20.34 17.98 20 19 C18.9275 19.268125 17.855 19.53625 16.75 19.8125 C11.98512434 21.32137729 10.85322715 23.02277428 8 27 C11.02419525 26.41196203 14.01758453 25.77321882 17 25 C16.67 25.99 16.34 26.98 16 28 C15.34 28 14.68 28 14 28 C13.34 28.66 12.68 29.32 12 30 C9.90625 30.23046875 9.90625 30.23046875 7.5 30.1875 C6.7059375 30.18105469 5.911875 30.17460937 5.09375 30.16796875 C3 30 3 30 1 29 C1 28.34 1 27.68 1 27 C1.969375 26.525625 2.93875 26.05125 3.9375 25.5625 C6.80477437 24.29806053 6.80477437 24.29806053 8 23 C5.69 22.34 3.38 21.68 1 21 C0.44278607 9.21595725 0.44278607 9.21595725 4 5 C5.6875 3.1875 5.6875 3.1875 7 2 C4.69 1.67 2.38 1.34 0 1 C0 0.67 0 0.34 0 0 Z " fill="#D8D5D5" transform="translate(54,111)"/>
<path d="M0 0 C2.86180687 0.93008723 4.43601141 1.60108366 6.5 3.8125 C7.25 7.5 7.25 7.5 7.5 10.8125 C6.51 11.1425 5.52 11.4725 4.5 11.8125 C3.51 9.5025 2.52 7.1925 1.5 4.8125 C0.613125 4.833125 -0.27375 4.85375 -1.1875 4.875 C-4.12169631 4.81963781 -6.65493696 4.4819266 -9.5 3.8125 C-9.5 5.1325 -9.5 6.4525 -9.5 7.8125 C-8.18 7.8125 -6.86 7.8125 -5.5 7.8125 C-5.17 7.8125 -4.84 7.8125 -4.5 7.8125 C-4.5 9.4625 -4.5 11.1125 -4.5 12.8125 C-1.53 13.3075 -1.53 13.3075 1.5 13.8125 C1.17 14.4725 0.84 15.1325 0.5 15.8125 C-2.3125 16.125 -2.3125 16.125 -5.5 15.8125 C-7.38599343 13.42357499 -8.5 11.89398442 -8.5 8.8125 C-9.49 8.8125 -10.48 8.8125 -11.5 8.8125 C-11.5825 9.534375 -11.665 10.25625 -11.75 11 C-12.64750201 14.36563254 -14.2114278 16.22862816 -16.5 18.8125 C-17.16 18.4825 -17.82 18.1525 -18.5 17.8125 C-18.005 16.905 -17.51 15.9975 -17 15.0625 C-15.22062788 11.80376962 -15.22062788 11.80376962 -15.5 7.8125 C-17.48 7.1525 -19.46 6.4925 -21.5 5.8125 C-20.84 4.4925 -20.18 3.1725 -19.5 1.8125 C-18.16195312 1.84730469 -18.16195312 1.84730469 -16.796875 1.8828125 C-15.62640625 1.90085938 -14.4559375 1.91890625 -13.25 1.9375 C-12.08984375 1.96070313 -10.9296875 1.98390625 -9.734375 2.0078125 C-6.03910613 1.78466824 -3.56115442 -0.26708658 0 0 Z " fill="#595959" transform="translate(139.5,142.1875)"/>
<path d="M0 0 C2.98470853 2.72516866 3.92211278 4.69584189 4.16796875 8.8125 C4.17441406 9.864375 4.18085937 10.91625 4.1875 12 C4.20167969 13.051875 4.21585938 14.10375 4.23046875 15.1875 C4 18 4 18 2 21 C1.67 21 1.34 21 1 21 C0.34 25.95 -0.32 30.9 -1 36 C-4 33 -4 33 -4.32470703 30.87109375 C-4.30263184 30.06800781 -4.28055664 29.26492187 -4.2578125 28.4375 C-4.24363281 27.55835937 -4.22945313 26.67921875 -4.21484375 25.7734375 C-4.17037109 24.40058594 -4.17037109 24.40058594 -4.125 23 C-4.08160447 21.18759857 -4.04236337 19.37509162 -4.0078125 17.5625 C-3.98348145 16.75941406 -3.95915039 15.95632812 -3.93408203 15.12890625 C-3.90405429 12.80997714 -3.90405429 12.80997714 -5 10 C-4.01 9.01 -3.02 8.02 -2 7 C-1.34 7.66 -0.68 8.32 0 9 C-0.37125 8.2575 -0.7425 7.515 -1.125 6.75 C-2 4 -2 4 -1.125 1.6875 C-0.75375 1.130625 -0.3825 0.57375 0 0 Z " fill="#873B40" transform="translate(81,70)"/>
<path d="M0 0 C4.66971518 0.63104259 4.66971518 0.63104259 6.234375 2.37890625 C13.14462985 8.72349865 26.11039087 9.70610549 35 10 C34.38479492 9.80365967 33.76958984 9.60731934 33.13574219 9.4050293 C30.33786816 8.50714498 27.54396809 7.59746208 24.75 6.6875 C23.78191406 6.37876953 22.81382812 6.07003906 21.81640625 5.75195312 C20.88183594 5.44580078 19.94726562 5.13964844 18.984375 4.82421875 C18.12553711 4.54666748 17.26669922 4.26911621 16.38183594 3.9831543 C13.90061731 2.95897764 12.06756966 1.69716497 10 0 C13.6398539 0.63730294 16.91483313 1.6532644 20.375 2.9375 C27.49480654 5.37883017 34.54093863 6.22556193 42 7 C41.6875 8.9375 41.6875 8.9375 41 11 C36.03547183 12.65484272 30.88519837 12.18456179 25.6875 12.1875 C23.99463867 12.20586914 23.99463867 12.20586914 22.26757812 12.22460938 C20.62499023 12.22750977 20.62499023 12.22750977 18.94921875 12.23046875 C17.45394653 12.23663208 17.45394653 12.23663208 15.9284668 12.24291992 C12.69859337 11.97499795 10.02550522 11.13459959 7 10 C8.32 9.34 9.64 8.68 11 8 C10.28972656 7.59007812 9.57945312 7.18015625 8.84765625 6.7578125 C7.92855469 6.21898437 7.00945312 5.68015625 6.0625 5.125 C5.14597656 4.59132812 4.22945312 4.05765625 3.28515625 3.5078125 C1 2 1 2 0 0 Z " fill="#221415" transform="translate(127,129)"/>
<path d="M0 0 C5.48780488 0.48780488 5.48780488 0.48780488 7.8125 2.8125 C8.96605122 4.93746278 9.68091136 6.60683517 10 9 C9.67 9.66 9.34 10.32 9 11 C10.65 10.67 12.3 10.34 14 10 C14.33 10.66 14.66 11.32 15 12 C13.68 12 12.36 12 11 12 C11.33 12.99 11.66 13.98 12 15 C7.32790951 16.43023178 2.86896303 17.40380045 -2 18 C-2.33 16.35 -2.66 14.7 -3 13 C-3.99 12.67 -4.98 12.34 -6 12 C-1.37078475 10.9838308 2.34462607 11.16203269 7 12 C7 11.34 7 10.68 7 10 C5.68 10 4.36 10 3 10 C2.67 8.68 2.34 7.36 2 6 C-0.64 5.67 -3.28 5.34 -6 5 C-6 4.67 -6 4.34 -6 4 C-4.35 3.67 -2.7 3.34 -1 3 C-0.67 2.01 -0.34 1.02 0 0 Z " fill="#1D0809" transform="translate(163,81)"/>
<path d="M0 0 C1.5625 1.125 1.5625 1.125 3 3 C2.81350846 7.2893054 1.91603983 10.80176277 -1 14 C-3.79498349 14.43637094 -6.14556518 14.23397007 -9 14 C-9.33 13.01 -9.66 12.02 -10 11 C-10.66 11 -11.32 11 -12 11 C-11.66466723 7.98200506 -11.13434402 6.19118187 -9.375 3.6875 C-6.16715428 1.4082412 -3.84279789 1.70440016 0 2 C0 1.34 0 0.68 0 0 Z " fill="#707171" transform="translate(172,109)"/>
<path d="M0 0 C0.66 0.33 1.32 0.66 2 1 C1.01 2.485 1.01 2.485 0 4 C1.051875 3.484375 2.10375 2.96875 3.1875 2.4375 C6.54411139 1.0192135 8.49835387 0.61777126 12 2 C14.5625 3.875 14.5625 3.875 17 6 C18.32901064 7.00573778 19.66073801 8.00795408 21 9 C20.67 9.66 20.34 10.32 20 11 C19.01 10.67 18.02 10.34 17 10 C16.67 10.33 16.34 10.66 16 11 C14.329375 11.2165625 14.329375 11.2165625 12.625 11.4375 C8.91489453 11.75300217 8.91489453 11.75300217 6 14 C3.3125 14.125 3.3125 14.125 1 14 C5.14285714 6.42857143 5.14285714 6.42857143 8 4 C3.13884258 4.41667064 1.23605579 6.50156131 -2 10 C-2.99 10.495 -2.99 10.495 -4 11 C-3.71758359 9.53984709 -3.42373386 8.08190207 -3.125 6.625 C-2.96257813 5.81289062 -2.80015625 5.00078125 -2.6328125 4.1640625 C-2 2 -2 2 0 0 Z " fill="#521015" transform="translate(60,117)"/>
<path d="M0 0 C0.99 0.66 1.98 1.32 3 2 C2.67 2.66 2.34 3.32 2 4 C1.47179628 9.73035395 1.47179628 9.73035395 3.75 14.8125 C6.17908276 17.26708891 6.17908276 17.26708891 10 20 C6.7 19.67 3.4 19.34 0 19 C3.96 20.98 7.92 22.96 12 25 C7.24440816 26.18889796 5.8636631 25.42058212 1.4375 23.5625 C-3.13723875 21.57304005 -3.13723875 21.57304005 -8 21 C-10.1875 19.125 -10.1875 19.125 -12 17 C-12 16.34 -12 15.68 -12 15 C-11.236875 15.309375 -10.47375 15.61875 -9.6875 15.9375 C-7.81210323 16.67893593 -5.91315348 17.36228217 -4 18 C-4.515625 17.21625 -5.03125 16.4325 -5.5625 15.625 C-6.036875 14.75875 -6.51125 13.8925 -7 13 C-6.67 12.34 -6.34 11.68 -6 11 C-4.02 12.65 -2.04 14.3 0 16 C0.33 15.67 0.66 15.34 1 15 C0.66226563 14.45859375 0.32453125 13.9171875 -0.0234375 13.359375 C-1.25272813 10.38940883 -1.00281808 8.42367191 -0.625 5.25 C-0.45871094 3.77273437 -0.45871094 3.77273437 -0.2890625 2.265625 C-0.19367188 1.51796875 -0.09828125 0.7703125 0 0 Z " fill="#241B1B" transform="translate(109,66)"/>
<path d="M0 0 C0.99 0.33 1.98 0.66 3 1 C2.67 1.515625 2.34 2.03125 2 2.5625 C0.66680762 5.81215644 0.80666736 8.52001247 1 12 C1.33 12.66 1.66 13.32 2 14 C-1.269813 17.87533393 -1.269813 17.87533393 -4.5625 18.4375 C-7 18 -7 18 -8.8125 17 C-10.73618446 13.76011038 -10.18282384 10.7174181 -10 7 C-9.401875 7.33 -8.80375 7.66 -8.1875 8 C-5.94613529 9.20787988 -5.94613529 9.20787988 -3 9 C-2.01 6.03 -1.02 3.06 0 0 Z " fill="#DDDDDD" transform="translate(44,93)"/>
<path d="M0 0 C-3.82180842 4.4008703 -6.47371099 5.80805531 -12 7 C-12 7.66 -12 8.32 -12 9 C-13.6396875 9.185625 -13.6396875 9.185625 -15.3125 9.375 C-19.07381802 9.75464801 -19.07381802 9.75464801 -22 12 C-23.32 11.34 -24.64 10.68 -26 10 C-24.35 9.67 -22.7 9.34 -21 9 C-20.67 8.01 -20.34 7.02 -20 6 C-21.32 5.67 -22.64 5.34 -24 5 C-22.72125 4.855625 -21.4425 4.71125 -20.125 4.5625 C-17.74307106 4.29357254 -16.15547309 4.07773654 -14 3 C-14 2.34 -14 1.68 -14 1 C-12.41913952 0.63495397 -10.83516093 0.28339494 -9.25 -0.0625 C-7.92742187 -0.35833984 -7.92742187 -0.35833984 -6.578125 -0.66015625 C-4.01320972 -0.99825872 -2.42908361 -0.81158635 0 0 Z " fill="#3F0B0E" transform="translate(184,102)"/>
<path d="M0 0 C5.2193712 -0.6524214 8.02909179 0.87923947 12.265625 3.61328125 C14 5 14 5 16 8 C16.66 7.67 17.32 7.34 18 7 C18.99 9.97 19.98 12.94 21 16 C20.01 15.01 19.02 14.02 18 13 C13.01747135 12.21328495 8.38563933 12.34793443 3.8125 14.5 C3.214375 14.995 2.61625 15.49 2 16 C2.66 16 3.32 16 4 16 C6.33333333 16 8.66666667 16 11 16 C11 16.33 11 16.66 11 17 C10.11248047 17.14695312 10.11248047 17.14695312 9.20703125 17.296875 C2.92842994 18.48499531 -0.45972159 20.45972159 -5 25 C-4.54572404 20.11653339 -3.42657167 17.52175421 0 14 C4.22408317 10.74142155 8.86334002 9.95123333 14 9 C9.54831603 4.69715653 6.10419901 2.2457549 0 1 C0 0.67 0 0.34 0 0 Z " fill="#110607" transform="translate(50,93)"/>
<path d="M0 0 C0 0.66 0 1.32 0 2 C-5.35689638 4.67844819 -9.00286732 5.49156825 -15 5 C-17.5 4 -17.5 4 -19 3 C-18.75 0.625 -18.75 0.625 -18 -2 C-12.73130021 -6.13969269 -5.5937635 -1.93770892 0 0 Z " fill="#F3F3F3" transform="translate(140,140)"/>
<path d="M0 0 C2.398485 2.37269484 3.74297416 4.88868742 5 8 C2.27541178 9.36229411 0.79606874 8.41271329 -1.98828125 7.54296875 C-4.10264355 6.97229621 -6.13728751 6.67919028 -8.3125 6.4375 C-12 6 -12 6 -14 5 C-16.09821215 5.39938767 -16.09821215 5.39938767 -18 6 C-18 5.34 -18 4.68 -18 4 C-12.39834186 0.01659866 -6.86440981 -1.81922725 0 0 Z " fill="#59161A" transform="translate(68,105)"/>
<path d="M0 0 C0.33 0.66 0.66 1.32 1 2 C2.98 1.67 4.96 1.34 7 1 C9.09749995 3.35968744 9.96905704 4.54616994 10.1875 7.75 C10.125625 8.4925 10.06375 9.235 10 10 C6.52176885 11.15941038 4.54104422 10.70820884 1 10 C0.67 8.68 0.34 7.36 0 6 C-0.99 6.495 -0.99 6.495 -2 7 C-2 6.34 -2 5.68 -2 5 C-2.66 5 -3.32 5 -4 5 C-4 3.68 -4 2.36 -4 1 C-2.68 0.67 -1.36 0.34 0 0 Z " fill="#B8B8B8" transform="translate(134,145)"/>
<path d="M0 0 C1.32 0.66 2.64 1.32 4 2 C2.989375 2.37125 1.97875 2.7425 0.9375 3.125 C-2.76456566 4.69125855 -5.40924946 6.86356811 -8.32421875 9.59765625 C-10.11226531 11.09394696 -11.88443871 12.03670521 -14 13 C-9.84429597 11.69827309 -9.84429597 11.69827309 -5.9375 9.8125 C-3.33319183 8.72037077 -1.66677045 9.25923043 1 10 C0.34 11.98 -0.32 13.96 -1 16 C-0.34 16.33 0.32 16.66 1 17 C-1.375 18.5625 -1.375 18.5625 -4 20 C-4.66 19.67 -5.32 19.34 -6 19 C-5.525625 18.4225 -5.05125 17.845 -4.5625 17.25 C-3.03264756 15.04701249 -2.55661048 13.57229698 -2 11 C-3.11375 11.66 -4.2275 12.32 -5.375 13 C-10.25057105 15.48147344 -14.63783386 15.39556963 -20 15 C-20 14.34 -20 13.68 -20 13 C-19.31035156 12.64808594 -18.62070312 12.29617187 -17.91015625 11.93359375 C-11.39742833 8.5119548 -5.64677407 4.71261638 0 0 Z " fill="#120D0D" transform="translate(52,62)"/>
<path d="M0 0 C2 1.625 2 1.625 4 4 C4.25 7.25 4.25 7.25 4 10 C4.66 8.35 5.32 6.7 6 5 C7.18771723 8.42943519 6.80226223 10.37784675 5.5625 13.75 C5.27503906 14.54921875 4.98757812 15.3484375 4.69140625 16.171875 C4.46324219 16.77515625 4.23507813 17.3784375 4 18 C3.34 17.67 2.68 17.34 2 17 C1.59270772 14.67843403 1.25561323 12.3431213 1 10 C0.67 12.64 0.34 15.28 0 18 C-3.00617269 14.99382731 -2.59585316 12.17618402 -3 8 C-3.33 10.97 -3.66 13.94 -4 17 C-6.1385485 14.8614515 -6.42655063 13.86724686 -7 11 C-6.34 11 -5.68 11 -5 11 C-5 8.36 -5 5.72 -5 3 C-3.68 4.32 -2.36 5.64 -1 7 C-0.67 4.69 -0.34 2.38 0 0 Z " fill="#231415" transform="translate(119,59)"/>
<path d="M0 0 C0.103125 0.639375 0.20625 1.27875 0.3125 1.9375 C0.539375 2.618125 0.76625 3.29875 1 4 C1.99 4.33 2.98 4.66 4 5 C2.625 7.5 2.625 7.5 1 10 C0.34 10 -0.32 10 -1 10 C-0.74862975 16.06002974 -0.74862975 16.06002974 2.5625 21 C3.366875 21.66 4.17125 22.32 5 23 C1.7 22.67 -1.6 22.34 -5 22 C-5 21.34 -5 20.68 -5 20 C-3.68 20 -2.36 20 -1 20 C-1.66 19.34 -2.32 18.68 -3 18 C-3.39764263 16.01178687 -3.73775349 14.01055661 -4 12 C-4.33 14.31 -4.66 16.62 -5 19 C-6.80411967 16.24075815 -7.0127245 15.11027897 -6.625 11.75 C-6.41875 10.8425 -6.2125 9.935 -6 9 C-5.34 9 -4.68 9 -4 9 C-3.71125 7.88625 -3.4225 6.7725 -3.125 5.625 C-2 2 -2 2 0 0 Z " fill="#38080C" transform="translate(135,58)"/>
<path d="M0 0 C3.22289046 1.16572634 4.75421568 2.45935331 6.9375 5.0625 C5.143125 5.68125 5.143125 5.68125 3.3125 6.3125 C-0.59692243 7.76635994 -3.6935344 9.61999994 -7.0625 12.0625 C-8.0625 11.0625 -8.0625 11.0625 -8.4375 8.3125 C-8.0625 5.0625 -8.0625 5.0625 -5.9375 2.125 C-3.0625 0.0625 -3.0625 0.0625 0 0 Z " fill="#111111" transform="translate(54.0625,95.9375)"/>
<path d="M0 0 C0.66 0.33 1.32 0.66 2 1 C1.67386719 1.56847656 1.34773438 2.13695312 1.01171875 2.72265625 C-1.0577307 6.37929406 -3.06144178 9.97028509 -4.625 13.875 C-5.84106094 16.63877487 -6.56007429 18.27171929 -9 20 C-9.99 20 -10.98 20 -12 20 C-9.85175829 12.45495595 -7.11188012 4.21444748 0 0 Z " fill="#5F050C" transform="translate(63,58)"/>
<path d="M0 0 C0.66 0.99 1.32 1.98 2 3 C5.78415461 8.15488554 8.91154064 10.92992382 15 13 C15 13.33 15 13.66 15 14 C8.4869336 14.61444023 4.42061596 13.14129696 -1.38671875 10.19140625 C-3.94936285 9.0230857 -6.22771063 8.43457509 -9 8 C-9 7.01 -9 6.02 -9 5 C-6.525 5.495 -6.525 5.495 -4 6 C-3.67 5.34 -3.34 4.68 -3 4 C-2.401875 4.804375 -1.80375 5.60875 -1.1875 6.4375 C0.80947276 9.22327984 0.80947276 9.22327984 4 10 C3.566875 9.51789063 3.13375 9.03578125 2.6875 8.5390625 C2.130625 7.90742187 1.57375 7.27578125 1 6.625 C0.443125 5.99851562 -0.11375 5.37203125 -0.6875 4.7265625 C-2 3 -2 3 -2 1 C-1.34 0.67 -0.68 0.34 0 0 Z " fill="#070303" transform="translate(76,107)"/>
<path d="M0 0 C3.80802445 1.4960096 5.69424557 3.66063151 8 7 C8.75 9.3125 8.75 9.3125 9 11 C8.34 11 7.68 11 7 11 C6.34 10.01 5.68 9.02 5 8 C5.33 8.99 5.66 9.98 6 11 C6.12093495 13.28932678 6.17538326 15.58251324 6.1875 17.875 C6.20167969 19.08929688 6.21585937 20.30359375 6.23046875 21.5546875 C6.01047255 24.84344421 5.41715618 27.05365948 4 30 C2.51291861 25.53875583 3.03215493 20.99053091 3.21484375 16.3359375 C3.30608431 11.59142857 2.81000607 8.99239823 0 5 C-0.1875 2.1875 -0.1875 2.1875 0 0 Z " fill="#66090C" transform="translate(82,64)"/>
<path d="M0 0 C0.66 0.33 1.32 0.66 2 1 C1.855625 2.19625 1.71125 3.3925 1.5625 4.625 C0.8409539 11.06737585 0.43236264 17.53295884 0 24 C-2 23 -2 23 -3 20 C-3.14648082 17.73236426 -3.2209626 15.45967634 -3.25 13.1875 C-3.27578125 11.98480469 -3.3015625 10.78210938 -3.328125 9.54296875 C-2.9731533 5.71011955 -1.92202587 3.30284973 0 0 Z " fill="#E3E3E3" transform="translate(75,83)"/>
<path d="M0 0 C0.33 0.99 0.66 1.98 1 3 C1.99 3.33 2.98 3.66 4 4 C5.64820195 6.60242414 6 7.86248779 6 11 C5.34 11 4.68 11 4 11 C2.66666667 9.66666667 1.33333333 8.33333333 0 7 C-3.76117143 4.31344898 -7.5469496 4.85156499 -12 5 C-7.81374099 0.67419902 -6.05150555 -0.13155447 0 0 Z " fill="#6A0108" transform="translate(60,89)"/>
<path d="M0 0 C1.65 0 3.3 0 5 0 C5 0.66 5 1.32 5 2 C6.32 2 7.64 2 9 2 C8.83560987 8.72505081 7.78944649 12.21055351 3 17 C2.34 16.67 1.68 16.34 1 16 C1.495 15.0925 1.99 14.185 2.5 13.25 C4.27937212 9.99126962 4.27937212 9.99126962 4 6 C2.02 5.34 0.04 4.68 -2 4 C-1.34 2.68 -0.68 1.36 0 0 Z " fill="#B2B3B3" transform="translate(120,144)"/>
<path d="M0 0 C2.5363613 1.01454452 3.79351461 1.6853556 5.3125 4 C5.539375 4.66 5.76625 5.32 6 6 C5.67 6.66 5.34 7.32 5 8 C5.99 8.33 6.98 8.66 8 9 C8 9.99 8 10.98 8 12 C8.3062434 13.33981486 8.63451555 14.67511887 9 16 C8.34 16.33 7.68 16.66 7 17 C4.375 16.0625 4.375 16.0625 2 15 C2.66 14.34 3.32 13.68 4 13 C1.525 12.01 1.525 12.01 -1 11 C0.32 10.34 1.64 9.68 3 9 C1.35 7.35 -0.3 5.7 -2 4 C-1.01 3.67 -0.02 3.34 1 3 C0.67 2.01 0.34 1.02 0 0 Z " fill="#261516" transform="translate(101,87)"/>
<path d="M0 0 C1.86328125 0.26171875 1.86328125 0.26171875 4 1 C5.23046875 2.70703125 5.23046875 2.70703125 6.1875 4.8125 C6.51105469 5.49957031 6.83460937 6.18664062 7.16796875 6.89453125 C10.62520021 15.64311226 9.33138974 24.41365656 6 33 C4.76100599 35.73555666 3.42227365 38.35162837 2 41 C1.3828125 39.21875 1.3828125 39.21875 1 37 C1.94691269 35.23242964 2.89936034 33.46252256 3.9921875 31.78125 C7.42757099 25.70940941 6.53090398 17.73894123 6 11 C4.70651349 6.83141789 2.41349955 3.62024933 0 0 Z " fill="#1B1818" transform="translate(85,65)"/>
<path d="M0 0 C3.656146 3.32376909 4.87889865 5.77368953 5.37109375 10.7578125 C5.41107127 12.21316097 5.43240892 13.66911145 5.4375 15.125 C5.44136719 15.87966553 5.44523437 16.63433105 5.44921875 17.41186523 C5.31715643 23.83408327 3.66692067 28.66986888 0 34 C-0.33 34 -0.66 34 -1 34 C-1.26501967 30.37806452 -1.14346607 28.28693213 0.5 25 C3.57276436 18.47583681 2.93398761 9.44265417 1 2.625 C0.67 1.75875 0.34 0.8925 0 0 Z " fill="#E2D1D2" transform="translate(85,68)"/>
<path d="M0 0 C3.6398539 0.63730294 6.91483313 1.6532644 10.375 2.9375 C17.49480654 5.37883017 24.54093863 6.22556193 32 7 C31.67 8.32 31.34 9.64 31 11 C26.9210462 11.18540699 24.56753105 10.88385743 21 9 C19.68593702 8.50821291 18.36240319 8.04110552 17.03125 7.59765625 C16.29519531 7.34693359 15.55914062 7.09621094 14.80078125 6.83789062 C13.26810525 6.3213606 11.73424484 5.80833169 10.19921875 5.29882812 C6.32818791 3.97345767 3.10946227 2.77039856 0 0 Z " fill="#060101" transform="translate(137,129)"/>
<path d="M0 0 C4.84161602 3.28893348 4.84161602 3.28893348 5.55859375 6.5078125 C5.51863281 7.37148437 5.47867188 8.23515625 5.4375 9.125 C5.41558594 9.99382812 5.39367187 10.86265625 5.37109375 11.7578125 C5 14 5 14 3 16 C2.01 15.34 1.02 14.68 0 14 C-0.29296875 10.7421875 -0.29296875 10.7421875 -0.1875 6.875 C-0.16042969 5.59367187 -0.13335937 4.31234375 -0.10546875 2.9921875 C-0.07066406 2.00476563 -0.03585938 1.01734375 0 0 Z " fill="#75050B" transform="translate(61,72)"/>
<path d="M0 0 C2.0625 0.4375 2.0625 0.4375 4 1 C3.360625 1.28875 2.72125 1.5775 2.0625 1.875 C-0.15206079 2.82823451 -0.15206079 2.82823451 -1 5 C-0.01 4.34 0.98 3.68 2 3 C4.48046875 2.8046875 4.48046875 2.8046875 7.1875 2.875 C8.08855469 2.89304688 8.98960938 2.91109375 9.91796875 2.9296875 C10.60503906 2.95289063 11.29210937 2.97609375 12 3 C8.57611908 6.82669043 5.99275057 8.72278474 1 10 C1.99 8.35 2.98 6.7 4 5 C3.113125 5.495 2.22625 5.99 1.3125 6.5 C-1.87586238 7.94378674 -3.58187546 8.30159922 -7 8 C-6.02133662 6.85373678 -5.04205413 5.70800212 -4.0625 4.5625 C-3.51722656 3.92441406 -2.97195312 3.28632813 -2.41015625 2.62890625 C-1.63204305 1.73008851 -0.84063472 0.84063472 0 0 Z " fill="#160D0D" transform="translate(67,131)"/>
<path d="M0 0 C0.93423645 3.01031744 1.04449911 3.86650268 0 7 C-2.97 7 -5.94 7 -9 7 C-9.33 5.68 -9.66 4.36 -10 3 C-6.68152292 -0.06320961 -4.44849969 -0.3033068 0 0 Z " fill="#372E2E" transform="translate(75,53)"/>
<path d="M0 0 C0.66 0.66 1.32 1.32 2 2 C0.68 2 -0.64 2 -2 2 C-1.67 2.99 -1.34 3.98 -1 5 C-5.67209049 6.43023178 -10.13103697 7.40380045 -15 8 C-15.33 6.35 -15.66 4.7 -16 3 C-14.37509046 2.97301811 -12.75005367 2.95361243 -11.125 2.9375 C-10.22007812 2.92589844 -9.31515625 2.91429688 -8.3828125 2.90234375 C-6 3 -6 3 -4 4 C-4 3.01 -4 2.02 -4 1 C-2.125 0.375 -2.125 0.375 0 0 Z " fill="#582024" transform="translate(176,91)"/>
<path d="M0 0 C2.98470853 2.72516866 3.92211278 4.69584189 4.16796875 8.8125 C4.17441406 9.864375 4.18085937 10.91625 4.1875 12 C4.20167969 13.051875 4.21585937 14.10375 4.23046875 15.1875 C4 18 4 18 2 21 C1.96261719 20.33613281 1.92523438 19.67226562 1.88671875 18.98828125 C1.54143357 13.34502155 1.54143357 13.34502155 -0.6875 8.25 C-2 6 -2 6 -1.1875 2.6875 C-0.795625 1.800625 -0.40375 0.91375 0 0 Z " fill="#EAEAEA" transform="translate(81,70)"/>
<path d="M0 0 C0.33 0.99 0.66 1.98 1 3 C1.99 2.34 2.98 1.68 4 1 C4.474375 2.11375 4.94875 3.2275 5.4375 4.375 C6.25306463 6.26710994 7.07856355 8.15712709 8 10 C6.35 11.65 4.7 13.3 3 15 C3 13.02 3 11.04 3 9 C2.01 9.495 2.01 9.495 1 10 C1 8.68 1 7.36 1 6 C0.01 6.33 -0.98 6.66 -2 7 C-2 5.02 -2 3.04 -2 1 C-1.34 0.67 -0.68 0.34 0 0 Z " fill="#141212" transform="translate(82,132)"/>
<path d="M0 0 C4.28519863 1.09974124 7.30723116 4.35040455 10.20703125 7.56640625 C10.20703125 7.89640625 10.20703125 8.22640625 10.20703125 8.56640625 C7.23703125 8.56640625 4.26703125 8.56640625 1.20703125 8.56640625 C2.20703125 6.56640625 2.20703125 6.56640625 5.20703125 5.56640625 C2.24538126 3.38872243 0.75039317 2.54509794 -2.98046875 2.69140625 C-6.09445766 3.33645812 -6.09445766 3.33645812 -7.79296875 6.56640625 C-8.17796766 8.22190156 -8.5209001 9.88864955 -8.79296875 11.56640625 C-9.45296875 10.90640625 -10.11296875 10.24640625 -10.79296875 9.56640625 C-8.86853472 2.90490384 -7.56089541 -0.21041453 0 0 Z " fill="#EBEBEB" transform="translate(54.79296875,94.43359375)"/>
<path d="M0 0 C0 3 0 3 -1.74414062 5.0847168 C-2.54013672 5.86500244 -3.33613281 6.64528809 -4.15625 7.44921875 C-5.01347656 8.29677734 -5.87070312 9.14433594 -6.75390625 10.01757812 C-7.66011719 10.89865234 -8.56632812 11.77972656 -9.5 12.6875 C-10.40621094 13.58017578 -11.31242187 14.47285156 -12.24609375 15.39257812 C-14.49085168 17.60189251 -16.74229998 19.80392533 -19 22 C-19.66 21.34 -20.32 20.68 -21 20 C-15.34576836 14.25222409 -9.7063181 8.56732661 -3.55859375 3.33984375 C-2.32496821 2.27935864 -1.15031749 1.15031749 0 0 Z " fill="#771317" transform="translate(47,30)"/>
<path d="M0 0 C0.33 0 0.66 0 1 0 C1.33 3.96 1.66 7.92 2 12 C1.01 12.33 0.02 12.66 -1 13 C1.63886654 17.2026393 4.36440339 20.56638098 8 24 C2.99088137 22.74772034 0.98782244 21.16160983 -2 17 C-2.66 16.67 -3.32 16.34 -4 16 C-3.67 13.36 -3.34 10.72 -3 8 C-2.01 9.485 -2.01 9.485 -1 11 C-0.67 7.37 -0.34 3.74 0 0 Z " fill="#21080A" transform="translate(75,95)"/>
<path d="M0 0 C1.21236328 0.02707031 1.21236328 0.02707031 2.44921875 0.0546875 C3.37154297 0.08949219 3.37154297 0.08949219 4.3125 0.125 C3.3225 2.105 2.3325 4.085 1.3125 6.125 C-2.0625 5.8125 -2.0625 5.8125 -5.6875 5.125 C-6.3475 4.135 -7.0075 3.145 -7.6875 2.125 C-4.48369983 -0.01086678 -3.66810033 -0.10632175 0 0 Z " fill="#F0F0F0" transform="translate(70.6875,64.875)"/>
<path d="M0 0 C0.66 0.33 1.32 0.66 2 1 C1.04882866 2.1725131 0.08882991 3.33787015 -0.875 4.5 C-1.67550781 5.47453125 -1.67550781 5.47453125 -2.4921875 6.46875 C-2.98976563 6.9740625 -3.48734375 7.479375 -4 8 C-4.66 8 -5.32 8 -6 8 C-6.433125 8.928125 -6.433125 8.928125 -6.875 9.875 C-8 12 -8 12 -10 14 C-13.73296326 14.38286803 -14.77626323 14.14915785 -18 12 C-17.67 10.68 -17.34 9.36 -17 8 C-16.01 9.485 -16.01 9.485 -15 11 C-12.56994124 11.61505837 -12.56994124 11.61505837 -10 11 C-7.98513204 9.11794817 -7.98513204 9.11794817 -6.375 6.625 C-4.29761375 3.6640196 -3.05475462 2.03650308 0 0 Z " fill="#251516" transform="translate(104,105)"/>
<path d="M0 0 C-1.65802755 2.21070341 -2.69814192 3.55817681 -5 5 C-8.37425965 5.43788102 -11.61677147 5.29562191 -15 5 C-15.33 4.34 -15.66 3.68 -16 3 C-15.34 3 -14.68 3 -14 3 C-14 2.34 -14 1.68 -14 1 C-12.41913952 0.63495397 -10.83516093 0.28339494 -9.25 -0.0625 C-8.36828125 -0.25972656 -7.4865625 -0.45695312 -6.578125 -0.66015625 C-4.01320972 -0.99825872 -2.42908361 -0.81158635 0 0 Z " fill="#3F1317" transform="translate(184,102)"/>
<path d="M0 0 C-1.44101172 3.57928719 -3.14280801 5.07400774 -6.375 7.125 C-7.53128906 7.87136719 -7.53128906 7.87136719 -8.7109375 8.6328125 C-9.84402344 9.30957031 -9.84402344 9.30957031 -11 10 C-11.67289063 10.40992187 -12.34578125 10.81984375 -13.0390625 11.2421875 C-15.43377391 12.16763374 -16.62156326 11.84944169 -19 11 C-18.34773438 10.62488281 -17.69546875 10.24976562 -17.0234375 9.86328125 C-11.03199306 6.36509212 -11.03199306 6.36509212 -5.5625 2.125 C-3 0 -3 0 0 0 Z " fill="#68030B" transform="translate(55,64)"/>
<path d="M0 0 C-0.33 0.99 -0.66 1.98 -1 3 C-1.825 3.309375 -2.65 3.61875 -3.5 3.9375 C-6.15338685 4.7275349 -6.15338685 4.7275349 -6.875 7 C-7.17260908 9.0732281 -7.17260908 9.0732281 -6 11 C-7.98 10.34 -9.96 9.68 -12 9 C-11.66466723 5.98200506 -11.13434402 4.19118187 -9.375 1.6875 C-6.16715428 -0.5917588 -3.84279789 -0.29559984 0 0 Z " fill="#F0F0F0" transform="translate(172,111)"/>
<path d="M0 0 C0 0.66 0 1.32 0 2 C-2.5 3.625 -2.5 3.625 -5 5 C-4.34 5 -3.68 5 -3 5 C-0.66666667 5 1.66666667 5 4 5 C4 5.33 4 5.66 4 6 C3.11248047 6.14695312 3.11248047 6.14695312 2.20703125 6.296875 C-4.07157006 7.48499531 -7.45972159 9.45972159 -12 14 C-11.54572404 9.11653339 -10.42657167 6.52175421 -7 3 C-2.65517241 0 -2.65517241 0 0 0 Z " fill="#151111" transform="translate(57,104)"/>
<path d="M0 0 C0.99 0.33 1.98 0.66 3 1 C1.515 2.485 1.515 2.485 0 4 C3.02419525 3.41196203 6.01758453 2.77321882 9 2 C8.67 2.99 8.34 3.98 8 5 C7.34 5 6.68 5 6 5 C5.34 5.66 4.68 6.32 4 7 C1.90625 7.23046875 1.90625 7.23046875 -0.5 7.1875 C-1.2940625 7.18105469 -2.088125 7.17460937 -2.90625 7.16796875 C-5 7 -5 7 -7 6 C-7 5.34 -7 4.68 -7 4 C-6.030625 3.525625 -5.06125 3.05125 -4.0625 2.5625 C-1.19522563 1.29806053 -1.19522563 1.29806053 0 0 Z " fill="#DEDCDD" transform="translate(62,134)"/>
<path d="M0 0 C3.78269337 0.52537408 6.35288832 1.16380891 9 4 C9.75 7.6875 9.75 7.6875 10 11 C9.01 11.33 8.02 11.66 7 12 C6.01 9.03 5.02 6.06 4 3 C2.35 3 0.7 3 -1 3 C-0.67 2.01 -0.34 1.02 0 0 Z " fill="#757575" transform="translate(137,142)"/>
<path d="M0 0 C-3.1254959 2.64465038 -6.08788267 3.84414715 -10 5 C-10 5.66 -10 6.32 -10 7 C-7.36 7 -4.72 7 -2 7 C-2 7.33 -2 7.66 -2 8 C-7.19689119 9.14507772 -7.19689119 9.14507772 -10 9 C-13 6.5625 -13 6.5625 -15 4 C-13.06767179 3.13419713 -11.12892806 2.28270059 -9.1875 1.4375 C-8.10855469 0.96183594 -7.02960937 0.48617187 -5.91796875 -0.00390625 C-3 -1 -3 -1 0 0 Z " fill="#D2D0D0" transform="translate(42,70)"/>
<path d="M0 0 C0.33 0.66 0.66 1.32 1 2 C2.98 1.67 4.96 1.34 7 1 C8.5625 2.75 8.5625 2.75 10 5 C9.6875 7.25 9.6875 7.25 9 9 C8.34 7.35 7.68 5.7 7 4 C3.85375007 3.73781251 2.38162983 3.75245633 -0.3125 5.5 C-0.869375 5.995 -1.42625 6.49 -2 7 C-2 6.34 -2 5.68 -2 5 C-2.66 5 -3.32 5 -4 5 C-4 3.68 -4 2.36 -4 1 C-2.68 0.67 -1.36 0.34 0 0 Z " fill="#F3F3F3" transform="translate(134,145)"/>
<path d="M0 0 C0.66 0.33 1.32 0.66 2 1 C1.01 2.485 1.01 2.485 0 4 C1.051875 3.484375 2.10375 2.96875 3.1875 2.4375 C6.49457175 1.01827083 8.52470433 0.70917589 12 2 C12.66 2.66 13.32 3.32 14 4 C13.41992188 3.95359375 12.83984375 3.9071875 12.2421875 3.859375 C6.55865473 3.59676953 3.5254871 4.22876075 -1 8 C-2.00824943 8.99168195 -3.01018103 9.98992158 -4 11 C-3.71758359 9.53984709 -3.42373386 8.08190207 -3.125 6.625 C-2.96257813 5.81289062 -2.80015625 5.00078125 -2.6328125 4.1640625 C-2 2 -2 2 0 0 Z " fill="#141313" transform="translate(60,117)"/>
<path d="M0 0 C0 0.33 0 0.66 0 1 C-1.258125 1.28875 -2.51625 1.5775 -3.8125 1.875 C-6.8539399 2.57303539 -8.30669878 3.20446585 -11 5 C-8.03 5.495 -8.03 5.495 -5 6 C-5 6.33 -5 6.66 -5 7 C-6.0725 7.2475 -7.145 7.495 -8.25 7.75 C-11.99649437 8.99883146 -13.52073882 10.02488658 -16 13 C-15.54572404 8.11653339 -14.42657167 5.52175421 -11 2 C-7.05197187 -1.11686431 -4.83434419 -1.2366927 0 0 Z " fill="#2F2727" transform="translate(60,88)"/>
<path d="M0 0 C0.33 0.66 0.66 1.32 1 2 C-0.1875 5.0625 -0.1875 5.0625 -2 8 C-4.1875 8.875 -4.1875 8.875 -6 9 C-5.34 7.68 -4.68 6.36 -4 5 C-4.495 5.33 -4.99 5.66 -5.5 6 C-9.09090894 7.43636358 -12.14456127 7.12851462 -16 7 C-16 6.67 -16 6.34 -16 6 C-14.2675 5.62875 -14.2675 5.62875 -12.5 5.25 C-7.93858296 4.12593652 -4.13226443 2.21371309 0 0 Z " fill="#E8E8E8" transform="translate(50,72)"/>
<path d="M0 0 C1.485 0.99 1.485 0.99 3 2 C2.67 2.66 2.34 3.32 2 4 C1.47179628 9.73035395 1.47179628 9.73035395 3.75 14.8125 C5.74332407 16.75045396 7.70159052 18.440365 10 20 C7.36 19.67 4.72 19.34 2 19 C2 18.01 2 17.02 2 16 C1.484375 15.34 0.96875 14.68 0.4375 14 C-1.78457873 9.36261829 -0.72356211 4.97775864 0 0 Z " fill="#070303" transform="translate(109,66)"/>
<path d="M0 0 C-0.33 1.65 -0.66 3.3 -1 5 C-0.34 5.33 0.32 5.66 1 6 C0.67 6.99 0.34 7.98 0 9 C-0.99 8.67 -1.98 8.34 -3 8 C-3 7.34 -3 6.68 -3 6 C-3.66 6 -4.32 6 -5 6 C-5 5.34 -5 4.68 -5 4 C-6.32 3.67 -7.64 3.34 -9 3 C-5.92807025 0.26939578 -4.09590633 -0.34132553 0 0 Z " fill="#222020" transform="translate(161,115)"/>
<path d="M0 0 C1.50433594 0.01353516 1.50433594 0.01353516 3.0390625 0.02734375 C3.80992188 0.03894531 4.58078125 0.05054687 5.375 0.0625 C5.375 1.3825 5.375 2.7025 5.375 4.0625 C4.385 4.5575 4.385 4.5575 3.375 5.0625 C3.375 4.4025 3.375 3.7425 3.375 3.0625 C-0.255 3.0625 -3.885 3.0625 -7.625 3.0625 C-7.625 2.4025 -7.625 1.7425 -7.625 1.0625 C-4.98041621 -0.25979189 -2.94738699 -0.03427194 0 0 Z " fill="#92494D" transform="translate(62.625,104.9375)"/>
<path d="M0 0 C1.98 0 3.96 0 6 0 C6 0.66 6 1.32 6 2 C6.66 2 7.32 2 8 2 C8.33 1.34 8.66 0.68 9 0 C9.33 1.98 9.66 3.96 10 6 C8.02 6 6.04 6 4 6 C4 4.35 4 2.7 4 1 C3.34 1 2.68 1 2 1 C2 2.65 2 4.3 2 6 C1.67 6 1.34 6 1 6 C0.67 4.02 0.34 2.04 0 0 Z " fill="#808080" transform="translate(184,190)"/>
<path d="M0 0 C0.72703125 0.2371875 1.4540625 0.474375 2.203125 0.71875 C1.666875 0.96625 1.130625 1.21375 0.578125 1.46875 C-6.02880749 4.94608289 -8.98216591 7.89721972 -11.796875 14.71875 C-12.126875 14.71875 -12.456875 14.71875 -12.796875 14.71875 C-12.88241394 10.6128808 -12.56709484 8.64618997 -9.90234375 5.4375 C-3.73143679 -0.37522828 -3.73143679 -0.37522828 0 0 Z " fill="#DBDBDB" transform="translate(56.796875,102.28125)"/>
<path d="M0 0 C0.66 0 1.32 0 2 0 C2.3125 2.1875 2.3125 2.1875 2 5 C-0.5 7.8125 -0.5 7.8125 -3 10 C-3.66 9.67 -4.32 9.34 -5 9 C-2.25 2.25 -2.25 2.25 0 0 Z " fill="#121212" transform="translate(78,139)"/>
<path d="M0 0 C1.65 0 3.3 0 5 0 C5.84454356 3.37817425 6.10844919 5.67465243 5 9 C4.67 8.01 4.34 7.02 4 6 C0.99152582 4.77479736 0.99152582 4.77479736 -2 4 C-1.34 2.68 -0.68 1.36 0 0 Z " fill="#9A9A9A" transform="translate(120,144)"/>
<path d="M0 0 C0.33 0 0.66 0 1 0 C1.12375 1.093125 1.2475 2.18625 1.375 3.3125 C1.75464801 7.07381802 1.75464801 7.07381802 4 10 C1.125 10.125 1.125 10.125 -2 10 C-2.66 9.34 -3.32 8.68 -4 8 C-4 6.68 -4 5.36 -4 4 C-3.34 4 -2.68 4 -2 4 C-1.34 2.68 -0.68 1.36 0 0 Z " fill="#7E343A" transform="translate(131,69)"/>
<path d="M0 0 C0.66 0.33 1.32 0.66 2 1 C1 4 1 4 -1 5 C-3.6723621 5.13415472 -6.32250488 5.04318541 -9 5 C-9.33 5.66 -9.66 6.32 -10 7 C-9.125 3.125 -9.125 3.125 -8 2 C-5.32941149 1.85884839 -2.67567762 1.95752893 0 2 C0 1.34 0 0.68 0 0 Z " fill="#401F22" transform="translate(178,133)"/>
<path d="M0 0 C0.66 0.33 1.32 0.66 2 1 C1.33333333 4.33333333 0.66666667 7.66666667 0 11 C-0.99 10.34 -1.98 9.68 -3 9 C-2.25 2.25 -2.25 2.25 0 0 Z " fill="#4E1719" transform="translate(103,63)"/>
<path d="M0 0 C0.625 1.8125 0.625 1.8125 1 4 C0.01 5.485 0.01 5.485 -1 7 C-3.625 7.1875 -3.625 7.1875 -6 7 C-6.33 5.68 -6.66 4.36 -7 3 C-3.535 2.505 -3.535 2.505 0 2 C0 1.34 0 0.68 0 0 Z " fill="#3B191B" transform="translate(43,102)"/>
<path d="M0 0 C0.33 0 0.66 0 1 0 C0.67 4.29 0.34 8.58 0 13 C-0.99 11.68 -1.98 10.36 -3 9 C-4.32869858 7.32963607 -5.66104368 5.66215268 -7 4 C-6.67 3.34 -6.34 2.68 -6 2 C-3.525 3.98 -3.525 3.98 -1 6 C-0.67 4.02 -0.34 2.04 0 0 Z " fill="#120909" transform="translate(67,86)"/>
<path d="M0 0 C0.33 0 0.66 0 1 0 C1 1.65 1 3.3 1 5 C3.97 5.495 3.97 5.495 7 6 C6.67 6.66 6.34 7.32 6 8 C3.125 8.125 3.125 8.125 0 8 C-0.66 7.34 -1.32 6.68 -2 6 C-1.44444444 1.44444444 -1.44444444 1.44444444 0 0 Z " fill="#6E6E6E" transform="translate(134,150)"/>
<path d="M0 0 C2 1.375 2 1.375 4 3 C4 3.66 4 4.32 4 5 C5.32 5.66 6.64 6.32 8 7 C7.67 6.01 7.34 5.02 7 4 C7.99 4 8.98 4 10 4 C9.34 6.64 8.68 9.28 8 12 C7.67 10.68 7.34 9.36 7 8 C4.57616923 6.83046584 4.57616923 6.83046584 2 6 C1.34 5.34 0.68 4.68 0 4 C0 2.68 0 1.36 0 0 Z " fill="#150909" transform="translate(63,68)"/>
<path d="M0 0 C-0.33 0.99 -0.66 1.98 -1 3 C-3.31074405 3.74118205 -5.64811553 4.40206327 -8 5 C-9.35350594 5.62469505 -10.69934483 6.2716331 -12 7 C-12 6.34 -12 5.68 -12 5 C-12.66 4.67 -13.32 4.34 -14 4 C-12.906875 3.71125 -11.81375 3.4225 -10.6875 3.125 C-0.44444444 0 -0.44444444 0 0 0 Z " fill="#EEECEC" transform="translate(75,127)"/>
<path d="M0 0 C1.5625 1.25 1.5625 1.25 3 3 C2.6875 5.1875 2.6875 5.1875 2 7 C-1 7 -4 7 -7 7 C-6.34 5.68 -5.68 4.36 -5 3 C-3.35 3 -1.7 3 0 3 C0 2.01 0 1.02 0 0 Z " fill="#676767" transform="translate(172,109)"/>
<path d="M0 0 C1.65 0.33 3.3 0.66 5 1 C4.34 2.98 3.68 4.96 3 7 C3.66 7.33 4.32 7.66 5 8 C2.625 9.5625 2.625 9.5625 0 11 C-0.66 10.67 -1.32 10.34 -2 10 C-1.525625 9.4225 -1.05125 8.845 -0.5625 8.25 C0.9484867 6.07417916 1.54036151 4.57397552 2 2 C1.34 2 0.68 2 0 2 C0 1.34 0 0.68 0 0 Z " fill="#1F1919" transform="translate(48,71)"/>
<path d="M0 0 C0.33 0 0.66 0 1 0 C1.125 7.75 1.125 7.75 0 10 C-0.66 10 -1.32 10 -2 10 C-3.34920635 4.6031746 -3.34920635 4.6031746 -1.625 1.625 C-1.08875 1.08875 -0.5525 0.5525 0 0 Z " fill="#5B292B" transform="translate(144,62)"/>
<path d="M0 0 C2.125 0.375 2.125 0.375 4 1 C3.34 1 2.68 1 2 1 C2 1.99 2 2.98 2 4 C3.32 4 4.64 4 6 4 C6 4.66 6 5.32 6 6 C3.69 6 1.38 6 -1 6 C-1.625 4.125 -1.625 4.125 -2 2 C-1.34 1.34 -0.68 0.68 0 0 Z " fill="#4E050A" transform="translate(164,87)"/>
<path d="M0 0 C2.91796875 0.8984375 2.91796875 0.8984375 6.1875 2.375 C7.27417969 2.85710937 8.36085938 3.33921875 9.48046875 3.8359375 C10.31191406 4.22007813 11.14335938 4.60421875 12 5 C8.21180727 6.43410153 5.93478721 5.51009497 2.25 4.0625 C0.77273437 3.49208984 0.77273437 3.49208984 -0.734375 2.91015625 C-1.48203125 2.60980469 -2.2296875 2.30945313 -3 2 C-2.01 1.34 -1.02 0.68 0 0 Z " fill="#0F0404" transform="translate(109,86)"/>
<path d="M0 0 C0.99 0.33 1.98 0.66 3 1 C2.8864371 2.64666203 2.75882619 4.29236082 2.625 5.9375 C2.52058594 7.31228516 2.52058594 7.31228516 2.4140625 8.71484375 C2.27742188 9.46894531 2.14078125 10.22304687 2 11 C1.01 11.495 1.01 11.495 0 12 C0 8.04 0 4.08 0 0 Z " fill="#EFEFEF" transform="translate(66,75)"/>
<path d="M0 0 C0.33 0 0.66 0 1 0 C2.12862175 5.36095333 2.09688221 10.55306686 2 16 C-0.66374247 13.33625753 -0.65413435 11.73534903 -1 8 C-0.79583077 5.29718824 -0.41629739 2.68280538 0 0 Z " fill="#550006" transform="translate(70,93)"/>
<path d="M0 0 C2.875 0.3125 2.875 0.3125 6 1 C6.66 1.99 7.32 2.98 8 4 C7.34 4.66 6.68 5.32 6 6 C3.5625 5.25 3.5625 5.25 1 4 C0.1875 1.875 0.1875 1.875 0 0 Z " fill="#631E23" transform="translate(163,81)"/>
<path d="M0 0 C1.65 0.33 3.3 0.66 5 1 C5.33 1.99 5.66 2.98 6 4 C3.03 4 0.06 4 -3 4 C-2.01 2.68 -1.02 1.36 0 0 Z " fill="#F9F9F9" transform="translate(69,56)"/>
<path d="M0 0 C0 0.33 0 0.66 0 1 C-2.64 1.66 -5.28 2.32 -8 3 C-8 3.66 -8 4.32 -8 5 C-9.65 5.66 -11.3 6.32 -13 7 C-11.79618552 4.50638429 -10.54571278 2.31856917 -9 0 C-5.52176885 -1.15941038 -3.54104422 -0.70820884 0 0 Z " fill="#450B0F" transform="translate(72,115)"/>
<path d="M0 0 C1.58246707 -0.08153933 3.16616273 -0.13943557 4.75 -0.1875 C6.07257812 -0.23970703 6.07257812 -0.23970703 7.421875 -0.29296875 C10.44671583 0.05076316 11.75583602 1.00227459 14 3 C12.02 3.66 10.04 4.32 8 5 C7.67 4.01 7.34 3.02 7 2 C4.69 1.67 2.38 1.34 0 1 C0 0.67 0 0.34 0 0 Z " fill="#EBE7E7" transform="translate(54,111)"/>
<path d="M0 0 C-0.33 0.66 -0.66 1.32 -1 2 C-4.87806155 3.16691222 -8.31521406 2.95783597 -12.3125 2.5625 C-13.38113281 2.46066406 -14.44976562 2.35882813 -15.55078125 2.25390625 C-16.35902344 2.17011719 -17.16726562 2.08632812 -18 2 C-18 1.67 -18 1.34 -18 1 C-11.97968656 0.39034801 -6.05329744 -0.13451772 0 0 Z " fill="#120607" transform="translate(178,106)"/>
<path d="M0 0 C-2.3125 2.5 -2.3125 2.5 -5 5 C-8 5 -8 5 -9.6875 3.5 C-10.120625 3.005 -10.55375 2.51 -11 2 C-9.54494642 1.47007308 -8.08581873 0.9513211 -6.625 0.4375 C-5.81289062 0.14746094 -5.00078125 -0.14257812 -4.1640625 -0.44140625 C-2 -1 -2 -1 0 0 Z " fill="#040101" transform="translate(144,91)"/>
<path d="M0 0 C0.103125 0.639375 0.20625 1.27875 0.3125 1.9375 C0.539375 2.618125 0.76625 3.29875 1 4 C1.99 4.33 2.98 4.66 4 5 C1.33333333 6.33333333 -1.33333333 7.66666667 -4 9 C-2.25 2.25 -2.25 2.25 0 0 Z " fill="#403434" transform="translate(135,58)"/>
<path d="M0 0 C0.33 0 0.66 0 1 0 C1.04898438 0.59167969 1.09796875 1.18335938 1.1484375 1.79296875 C1.56456867 6.19104472 2.04965595 9.96928897 4 14 C3.34 14.66 2.68 15.32 2 16 C-0.12132552 11.75734896 -1.11647866 9.67614835 -0.5625 4.875 C-0.46066406 3.96492187 -0.35882813 3.05484375 -0.25390625 2.1171875 C-0.17011719 1.41851562 -0.08632812 0.71984375 0 0 Z " fill="#1A1111" transform="translate(91,128)"/>
<path d="M0 0 C0.66 0.66 1.32 1.32 2 2 C-1.32307692 5.93846154 -1.32307692 5.93846154 -4.75 6.25 C-5.4925 6.1675 -6.235 6.085 -7 6 C-7.66 4.68 -8.32 3.36 -9 2 C-6.69 2.33 -4.38 2.66 -2 3 C-1.34 2.01 -0.68 1.02 0 0 Z " fill="#DEDEDE" transform="translate(44,105)"/>
<path d="M0 0 C0 0.99 0 1.98 0 3 C-6.75 7 -6.75 7 -9 7 C-9 5.68 -9 4.36 -9 3 C-7.88625 2.690625 -6.7725 2.38125 -5.625 2.0625 C-2.2054845 1.17673517 -2.2054845 1.17673517 0 0 Z " fill="#160608" transform="translate(143,84)"/>
<path d="M0 0 C4.03520597 1.58962659 8.01811282 3.28232318 12 5 C12 5.33 12 5.66 12 6 C10.906875 5.835 9.81375 5.67 8.6875 5.5 C5.12474127 4.93281816 5.12474127 4.93281816 2 5 C1.34 3.35 0.68 1.7 0 0 Z " fill="#2B2727" transform="translate(97,81)"/>
<path d="M0 0 C1.32 0.33 2.64 0.66 4 1 C1.525 5.455 1.525 5.455 -1 10 C-2.32 9.34 -3.64 8.68 -5 8 C-4.175 7.401875 -3.35 6.80375 -2.5 6.1875 C-1.2625 5.1046875 -1.2625 5.1046875 0 4 C0 3.01 0 2.02 0 1 C0 0.67 0 0.34 0 0 Z " fill="#050202" transform="translate(54,62)"/>
<path d="M0 0 C0 0.99 0 1.98 0 3 C-1.98 3 -3.96 3 -6 3 C-6.33 2.01 -6.66 1.02 -7 0 C-4.3333581 -1.33332095 -2.83319697 -0.67102033 0 0 Z " fill="#F6F6F6" transform="translate(172,117)"/>
<path d="M0 0 C0.66 0 1.32 0 2 0 C3.27400375 1.47000433 4.5435008 2.94515781 5.7578125 4.46484375 C7.07336124 6.09066342 8.48213245 7.56202021 10 9 C5.06789169 7.76697292 2.78225429 6.28039122 0 2 C0 1.34 0 0.68 0 0 Z " fill="#5F050B" transform="translate(73,110)"/>
<path d="M0 0 C0.66 0.66 1.32 1.32 2 2 C1.40832031 1.98839844 0.81664063 1.97679688 0.20703125 1.96484375 C-4.00231785 1.91677614 -7.8922333 1.93993117 -12 3 C-7.82031663 -0.3149213 -5.25849075 -1.48316406 0 0 Z " fill="#0D0304" transform="translate(72,119)"/>
<path d="M0 0 C0.66 0.33 1.32 0.66 2 1 C0.02 3.31 -1.96 5.62 -4 8 C-4.33 6.68 -4.66 5.36 -5 4 C-3.35 2.68 -1.7 1.36 0 0 Z " fill="#440F12" transform="translate(104,105)"/>
<path d="M0 0 C0.99 0.33 1.98 0.66 3 1 C2.67 1.53625 2.34 2.0725 2 2.625 C0.77300796 5.5391061 0.85766714 7.86867708 1 11 C-0.5625 9.875 -0.5625 9.875 -2 8 C-1.75528519 5.00224356 -1.34661086 2.69322172 0 0 Z " fill="#CACACA" transform="translate(44,93)"/>
<path d="M0 0 C-3.85756507 2.15305957 -6.55129785 3.39253254 -11 3 C-10.67 2.01 -10.34 1.02 -10 0 C-3.375 -1.125 -3.375 -1.125 0 0 Z " fill="#BCBCBC" transform="translate(53,81)"/>
<path d="M0 0 C0.66 0.66 1.32 1.32 2 2 C1.9765625 5.0390625 1.9765625 5.0390625 1.625 8.625 C1.51414062 9.81351563 1.40328125 11.00203125 1.2890625 12.2265625 C1.19367188 13.14179687 1.09828125 14.05703125 1 15 C0.67 15 0.34 15 0 15 C-0.19517554 13.06325815 -0.38087873 11.12555991 -0.5625 9.1875 C-0.66691406 8.10855469 -0.77132812 7.02960938 -0.87890625 5.91796875 C-1 3 -1 3 0 0 Z " fill="#4F1112" transform="translate(76,90)"/>
<path d="M0 0 C0.99 0.495 0.99 0.495 2 1 C4.3329866 1.04022391 6.66706666 1.04320247 9 1 C9.33 1.66 9.66 2.32 10 3 C9.21625 3.144375 8.4325 3.28875 7.625 3.4375 C5.03578982 3.87798925 5.03578982 3.87798925 3 5 C2.01 4.67 1.02 4.34 0 4 C0 2.68 0 1.36 0 0 Z " fill="#CDCDCD" transform="translate(161,121)"/>
<path d="M0 0 C1.98 0 3.96 0 6 0 C6.66 1.65 7.32 3.3 8 5 C5.03 4.01 2.06 3.02 -1 2 C-0.67 1.34 -0.34 0.68 0 0 Z " fill="#B48587" transform="translate(54,89)"/>
<path d="M0 0 C0.99 0.33 1.98 0.66 3 1 C1.75023244 4.65316671 1.32901247 5.78065836 -2 8 C-1.125 1.125 -1.125 1.125 0 0 Z " fill="#26090A" transform="translate(87,139)"/>
<path d="M0 0 C0.99 0.33 1.98 0.66 3 1 C0.53846154 4.81538462 0.53846154 4.81538462 -2.1875 5.75 C-2.785625 5.8325 -3.38375 5.915 -4 6 C-4 5.01 -4 4.02 -4 3 C-2.1875 1.25 -2.1875 1.25 0 0 Z " fill="#C4C0C0" transform="translate(62,134)"/>
<path d="M0 0 C0.33 0.66 0.66 1.32 1 2 C0.01 2.495 0.01 2.495 -1 3 C-1 3.66 -1 4.32 -1 5 C-5.875 3.25 -5.875 3.25 -7 1 C-3.535 0.505 -3.535 0.505 0 0 Z " fill="#551318" transform="translate(72,70)"/>
<path d="M0 0 C0.99 0 1.98 0 3 0 C3.33 2.31 3.66 4.62 4 7 C3.34 6.67 2.68 6.34 2 6 C2 5.34 2 4.68 2 4 C1.34 4 0.68 4 0 4 C-0.33 3.01 -0.66 2.02 -1 1 C-0.67 0.67 -0.34 0.34 0 0 Z " fill="#E8E8E8" transform="translate(156,117)"/>
<path d="M0 0 C0.90105469 0.11085938 1.80210938 0.22171875 2.73046875 0.3359375 C3.76107422 0.47902344 3.76107422 0.47902344 4.8125 0.625 C4.8125 0.955 4.8125 1.285 4.8125 1.625 C0.5225 2.285 -3.7675 2.945 -8.1875 3.625 C-8.1875 2.965 -8.1875 2.305 -8.1875 1.625 C-4.73535147 -0.67643236 -3.95270676 -0.51333854 0 0 Z " fill="#660106" transform="translate(58.1875,107.375)"/>
<path d="M0 0 C0.495 0.474375 0.99 0.94875 1.5 1.4375 C4.99468651 3.62167907 7.90966936 3.65913911 12 4 C12 4.33 12 4.66 12 5 C8.7 5 5.4 5 2 5 C1.34 3.35 0.68 1.7 0 0 Z " fill="#4C4242" transform="translate(151,80)"/>
<path d="M0 0 C0.99 1.32 1.98 2.64 3 4 C2.01 5.485 2.01 5.485 1 7 C-0.32 5.68 -1.64 4.36 -3 3 C-2.67 2.34 -2.34 1.68 -2 1 C-1.67 1.33 -1.34 1.66 -1 2 C-0.67 1.34 -0.34 0.68 0 0 Z " fill="#241415" transform="translate(141,73)"/>
<path d="M0 0 C0.99 0.33 1.98 0.66 3 1 C-0.5 5.875 -0.5 5.875 -5 7 C-3.35 4.69 -1.7 2.38 0 0 Z " fill="#E5E5E5" transform="translate(57,73)"/>
<path d="M0 0 C0.99 0.33 1.98 0.66 3 1 C-2.75 6 -2.75 6 -5 6 C-3.86525052 2.59575156 -3.03188696 1.78346291 0 0 Z " fill="#E5E5E5" transform="translate(46,64)"/>
<path d="M0 0 C1.65 0.33 3.3 0.66 5 1 C5.33 1.99 5.66 2.98 6 4 C3.69 3.67 1.38 3.34 -1 3 C-0.67 2.01 -0.34 1.02 0 0 Z " fill="#A2A2A2" transform="translate(137,142)"/>
<path d="M0 0 C1.36125 0.37125 1.36125 0.37125 2.75 0.75 C-0.69450737 3.04633824 -3.18812283 3.29016485 -7.25 3.75 C-4.05 -0.31153846 -4.05 -0.31153846 0 0 Z " fill="#710810" transform="translate(55.25,90.25)"/>
</svg>
