<?xml version="1.0" standalone="no"?>
<!DOCTYPE svg PUBLIC "-//W3C//DTD SVG 20010904//EN"
 "http://www.w3.org/TR/2001/REC-SVG-20010904/DTD/svg10.dtd">
<svg version="1.0" xmlns="http://www.w3.org/2000/svg"
 width="2156.000000pt" height="1131.000000pt" viewBox="0 0 2156.000000 1131.000000"
 preserveAspectRatio="xMidYMid meet">

<g transform="translate(0.000000,1131.000000) scale(0.100000,-0.100000)"
fill="#000000" stroke="none">
<path d="M4530 7734 c-465 -22 -839 -62 -1207 -129 -1060 -195 -1938 -601
-2398 -1111 -249 -276 -375 -564 -375 -859 0 -309 138 -600 420 -885 583 -589
1699 -1015 3000 -1144 326 -33 486 -40 890 -39 416 0 627 11 960 48 1751 199
3088 934 3280 1803 24 108 26 297 5 409 -98 512 -570 987 -1335 1342 -633 294
-1406 478 -2296 546 -189 15 -783 27 -944 19z m645 -124 c705 -34 1349 -155
1945 -363 259 -90 560 -224 560 -248 0 -21 -65 -93 -123 -136 -75 -55 -165
-98 -264 -126 l-78 -22 -1420 -5 c-1299 -6 -1428 -7 -1509 -24 -119 -23 -237
-61 -320 -103 -37 -19 -70 -33 -72 -31 -3 4 90 90 371 343 104 94 207 187 230
207 l40 37 -98 1 c-54 0 -107 -5 -119 -11 -11 -6 -344 -294 -739 -640 l-719
-629 91 0 91 0 91 61 c121 79 345 189 479 233 59 20 163 48 230 63 l123 27
1170 3 c716 2 1166 0 1160 -6 -6 -5 -82 -32 -170 -61 -88 -28 -261 -85 -385
-125 -124 -41 -407 -133 -629 -204 l-405 -131 -585 -1 -586 0 -42 -59 c-24
-32 -43 -61 -43 -64 0 -3 190 -7 423 -8 232 -2 415 -6 407 -10 -8 -4 -215 -71
-460 -148 -719 -229 -779 -248 -910 -297 -429 -157 -858 -465 -1077 -772 -4
-6 -251 162 -328 223 -95 77 -240 219 -312 308 -219 268 -316 530 -300 807 32
545 476 1028 1285 1397 808 369 1952 565 2997 514z m2743 -732 c99 -62 276
-195 365 -275 234 -210 399 -454 473 -698 26 -82 28 -104 28 -260 1 -205 -13
-265 -103 -450 -358 -732 -1487 -1302 -2921 -1475 -500 -60 -1174 -66 -1685
-14 -728 73 -1443 261 -1984 520 l-136 65 81 77 c89 85 158 125 274 156 73 19
116 20 1530 26 1264 6 1469 9 1561 23 130 19 258 49 329 76 30 11 56 18 59 16
2 -3 2 -6 0 -8 -6 -5 -303 -235 -358 -278 -25 -19 -108 -83 -184 -142 l-139
-107 126 0 125 0 125 93 c68 50 206 153 307 228 101 75 299 221 439 326 390
290 638 473 827 612 94 69 172 128 172 131 1 3 -45 4 -101 2 l-101 -3 -63 -57
c-201 -184 -543 -306 -991 -352 -86 -9 -2740 -16 -2749 -7 -4 4 693 236 1206
401 l265 86 647 0 646 0 55 63 55 62 -479 3 c-263 1 -479 6 -479 10 1 4 107
42 238 84 569 184 1455 479 1542 513 230 90 516 242 665 352 80 60 204 177
232 220 9 13 19 23 24 23 5 0 40 -19 77 -42z"/>
<path d="M19675 6919 c-81 -12 -178 -44 -250 -82 -71 -38 -172 -130 -214 -195
-130 -204 -125 -522 12 -715 90 -126 177 -193 506 -391 243 -146 335 -211 433
-307 103 -100 138 -173 146 -299 4 -71 1 -101 -16 -157 -41 -134 -147 -240
-282 -280 -74 -23 -243 -22 -330 1 -229 62 -421 251 -551 545 -35 80 -41 87
-74 95 -20 4 -39 6 -42 2 -5 -5 90 -717 104 -773 4 -18 12 -23 39 -23 24 0 36
5 40 18 18 58 37 84 70 98 45 19 85 13 214 -32 205 -70 251 -78 425 -78 186 1
267 18 403 85 142 69 247 173 312 307 51 105 64 166 64 287 -2 190 -62 324
-214 475 -107 107 -192 167 -466 331 -121 72 -250 153 -289 180 -112 79 -201
173 -243 258 -32 65 -36 83 -37 150 0 98 24 167 80 229 179 199 549 158 777
-86 89 -95 167 -237 204 -369 l17 -63 44 0 c40 0 43 2 43 26 0 30 -68 692 -76
742 -5 31 -7 33 -42 30 -32 -3 -38 -7 -46 -36 -13 -48 -68 -92 -114 -92 -20 0
-89 18 -152 40 -223 78 -362 100 -495 79z"/>
<path d="M20785 6895 c-49 -27 -72 -54 -85 -101 -21 -76 13 -154 82 -190 35
-18 121 -18 157 1 104 53 118 196 28 268 -46 38 -133 48 -182 22z m131 -31
c66 -32 87 -124 43 -188 -40 -58 -107 -73 -163 -37 -40 26 -55 57 -56 109 0
53 24 96 64 116 40 20 70 20 112 0z"/>
<path d="M20800 6750 c0 -73 3 -90 15 -90 11 0 15 11 15 40 0 22 4 40 10 40 5
0 21 -18 35 -40 14 -22 32 -40 40 -40 20 0 19 6 -6 42 -22 30 -20 37 12 50 4
2 9 13 13 25 11 36 -24 63 -84 63 l-50 0 0 -90z m100 45 c0 -18 -26 -37 -47
-33 -21 4 -30 37 -13 48 17 10 60 0 60 -15z"/>
<path d="M12800 6839 l0 -36 78 -6 c153 -13 222 -74 242 -218 13 -84 12 -1792
0 -1886 -20 -156 -79 -207 -262 -228 l-58 -6 0 -35 0 -34 1012 2 1013 3 76
285 c41 157 79 297 83 313 6 27 6 27 -47 27 -51 0 -53 -1 -65 -34 -24 -66
-114 -202 -175 -264 -69 -70 -178 -131 -282 -157 -129 -32 -459 -44 -711 -26
-125 9 -174 24 -190 58 -5 10 -10 244 -12 521 l-3 502 313 0 c172 0 351 -5
397 -10 180 -21 240 -82 281 -292 l11 -58 40 0 39 0 0 433 0 433 -35 2 c-41 3
-46 -4 -70 -120 -30 -144 -96 -206 -240 -228 -41 -6 -205 -9 -400 -8 l-330 3
-3 395 c-3 444 0 508 29 539 19 21 25 21 415 21 417 0 500 -7 584 -50 79 -41
136 -132 166 -267 l16 -73 46 0 45 0 -6 188 c-4 103 -7 222 -7 264 l0 78 -995
2 -995 3 0 -36z"/>
<path d="M9996 6808 c-14 -131 -56 -495 -62 -530 l-6 -38 49 0 48 0 22 89 c43
181 114 281 243 340 122 56 174 61 708 64 265 1 482 -1 482 -5 0 -4 -70 -105
-157 -225 -86 -120 -229 -319 -318 -443 -281 -392 -674 -939 -790 -1100 -61
-85 -168 -235 -238 -332 -97 -134 -127 -184 -127 -207 l0 -31 1057 2 1058 3
42 305 c23 168 42 315 43 328 0 19 -5 22 -39 22 l-39 0 -28 -82 c-40 -120 -66
-176 -115 -241 -80 -107 -200 -167 -378 -187 -81 -9 -1091 -15 -1091 -6 0 3
107 154 237 338 130 183 422 594 648 913 227 319 485 682 573 808 105 147 162
236 162 252 l0 25 -989 0 -988 0 -7 -62z"/>
<path d="M15728 6840 c-5 -34 -4 -35 99 -45 139 -13 199 -57 225 -165 4 -19 8
-341 8 -715 0 -402 4 -723 10 -785 15 -149 44 -261 98 -370 38 -79 60 -109
131 -181 71 -70 102 -93 181 -132 168 -83 340 -113 585 -104 518 21 797 237
881 684 14 74 18 202 23 818 7 722 7 731 29 786 39 98 102 142 234 162 l83 13
3 32 3 32 -435 0 -436 0 0 -33 c0 -32 1 -33 45 -36 171 -8 257 -80 291 -242
23 -109 16 -1502 -8 -1601 -25 -100 -64 -172 -131 -244 -147 -158 -395 -235
-653 -205 -172 20 -280 66 -374 161 -103 103 -153 237 -170 451 -12 157 -13
1325 -1 1440 18 168 73 218 261 237 l75 7 3 33 3 32 -529 0 -530 0 -4 -30z"/>
</g>
</svg>
